<?xml version="1.0" encoding="UTF-8"?>
<svg width="424px" height="615px" viewBox="0 0 424 615" version="1.1" xmlns="http://www.w3.org/2000/svg" xmlns:xlink="http://www.w3.org/1999/xlink">
    <!-- Generator: Sketch 51.3 (57544) - http://www.bohemiancoding.com/sketch -->
    <title>Group 15</title>
    <desc>Created with Sketch.</desc>
    <defs>
        <polygon id="path-1" points="389.981137 58.9770077 59.0091367 60.0220077 33.3371367 536.678008 350.097137 577.990008"></polygon>
        <filter x="-28.5%" y="-21.9%" width="156.9%" height="139.1%" filterUnits="objectBoundingBox" id="filter-2">
            <feOffset dx="0" dy="0" in="SourceAlpha" result="shadowOffsetOuter1"></feOffset>
            <feGaussianBlur stdDeviation="23.5" in="shadowOffsetOuter1" result="shadowBlurOuter1"></feGaussianBlur>
            <feColorMatrix values="0 0 0 0 0.0470588235   0 0 0 0 0.121568627   0 0 0 0 0.192156863  0 0 0 0.133859828 0" type="matrix" in="shadowBlurOuter1" result="shadowMatrixOuter1"></feColorMatrix>
            <feOffset dx="0" dy="-12" in="SourceAlpha" result="shadowOffsetOuter2"></feOffset>
            <feGaussianBlur stdDeviation="15.5" in="shadowOffsetOuter2" result="shadowBlurOuter2"></feGaussianBlur>
            <feColorMatrix values="0 0 0 0 0.203921569   0 0 0 0 0.28627451   0 0 0 0 0.368627451  0 0 0 0.0642266757 0" type="matrix" in="shadowBlurOuter2" result="shadowMatrixOuter2"></feColorMatrix>
            <feMerge>
                <feMergeNode in="shadowMatrixOuter1"></feMergeNode>
                <feMergeNode in="shadowMatrixOuter2"></feMergeNode>
            </feMerge>
        </filter>
        <path d="M10.3506886,12.4086203 L0.198971505,471.868706 C0.0859231408,476.985201 3.85409277,481.36132 8.93066739,482.009156 L300.725206,519.245927 C308.942836,520.294603 316.45466,514.483019 317.503336,506.265389 C317.538264,505.991691 317.565633,505.71708 317.585412,505.441872 L352.742817,16.2623092 C353.336677,7.99935082 347.119645,0.819480949 338.856686,0.225620949 C338.460448,0.19714326 338.063235,0.184417768 337.665987,0.187474575 L20.2713013,2.62981125 C14.8645803,2.67141571 10.4701239,7.00305844 10.3506886,12.4086203 Z" id="path-3"></path>
        <polygon id="path-5" points="1.5652 2.7045 353.0452 0.0005 348.7702 58.5275 0.3882 55.9705"></polygon>
        <filter x="-4.5%" y="-18.8%" width="109.1%" height="154.7%" filterUnits="objectBoundingBox" id="filter-6">
            <feOffset dx="0" dy="5" in="SourceAlpha" result="shadowOffsetOuter1"></feOffset>
            <feGaussianBlur stdDeviation="4.5" in="shadowOffsetOuter1" result="shadowBlurOuter1"></feGaussianBlur>
            <feColorMatrix values="0 0 0 0 0.740590094   0 0 0 0 0.732620435   0 0 0 0 0.833971088  0 0 0 0.101364357 0" type="matrix" in="shadowBlurOuter1"></feColorMatrix>
        </filter>
        <path d="M309.671049,4.76496517 L15.1583952,1.03843588 C12.4196733,1.00378227 10.1628178,3.17900543 10.0965958,5.91714589 L0.851651268,388.176185 C0.789481905,390.746758 2.6871276,392.945381 5.23918048,393.259601 L280.284109,427.124402 C285.765564,427.799304 290.756278,423.902823 291.43118,418.421368 C291.452749,418.246185 291.469677,418.070462 291.481944,417.894383 L319.520345,15.4591983 C319.904201,9.9497066 315.749053,5.172204 310.239561,4.78834757 C310.050317,4.77516261 309.860737,4.76736533 309.671049,4.76496517 Z" id="path-7"></path>
        <filter x="-3.0%" y="-2.5%" width="107.2%" height="105.4%" filterUnits="objectBoundingBox" id="filter-9">
            <feOffset dx="2" dy="1" in="SourceAlpha" result="shadowOffsetOuter1"></feOffset>
            <feGaussianBlur stdDeviation="3.5" in="shadowOffsetOuter1" result="shadowBlurOuter1"></feGaussianBlur>
            <feColorMatrix values="0 0 0 0 0   0 0 0 0 0   0 0 0 0 0  0 0 0 0.0753226902 0" type="matrix" in="shadowBlurOuter1"></feColorMatrix>
        </filter>
        <linearGradient x1="43.6869925%" y1="62.0588615%" x2="34.8439928%" y2="96.7478947%" id="linearGradient-10">
            <stop stop-color="#FFFFFF" stop-opacity="0" offset="0%"></stop>
            <stop stop-color="#FFFFFF" offset="100%"></stop>
        </linearGradient>
        <path d="M309.671049,4.76496517 L15.1583952,1.03843588 C12.4196733,1.00378227 10.1628178,3.17900543 10.0965958,5.91714589 L0.851651268,388.176185 C0.789481905,390.746758 2.6871276,392.945381 5.23918048,393.259601 L280.284109,427.124402 C285.765564,427.799304 290.756278,423.902823 291.43118,418.421368 C291.452749,418.246185 291.469677,418.070462 291.481944,417.894383 L319.520345,15.4591983 C319.904201,9.9497066 315.749053,5.172204 310.239561,4.78834757 C310.050317,4.77516261 309.860737,4.76736533 309.671049,4.76496517 Z" id="path-11"></path>
    </defs>
    <g id="Retail-Tower-Page" stroke="none" stroke-width="1" fill="none" fill-rule="evenodd">
        <g id="Retail-tower---1" transform="translate(-872.000000, -2098.000000)">
            <g id="Group-15" transform="translate(874.000000, 2098.000000)">
                <g id="Fill-1" transform="translate(211.659137, 318.483508) rotate(-3.000000) translate(-211.659137, -318.483508) " fill="black" fill-opacity="1">
                    <use filter="url(#filter-2)" xlink:href="#path-1"></use>
                </g>
                <g id="Group-46-+-Group-47-Mask">
                    <mask id="mask-4" fill="white">
                        <use xlink:href="#path-3"></use>
                    </mask>
                    <use id="Mask" fill="#F6F9FB" xlink:href="#path-3"></use>
                    <g id="Group-46" mask="url(#mask-4)">
                        <g transform="translate(9.000000, 0.000000)">
                            <g id="Fill-126" fill="none">
                                <use fill="black" fill-opacity="1" filter="url(#filter-6)" xlink:href="#path-5"></use>
                                <use fill="#FFFFFF" fill-rule="evenodd" xlink:href="#path-5"></use>
                            </g>
                            <path d="M18.4743,38.9433 C18.0063,38.9423 17.6373,38.5143 17.6503,37.9873 C17.6633,37.4613 18.0533,37.0353 18.5213,37.0363 L38.9843,37.0763 C39.4573,37.0773 39.8293,37.5073 39.8153,38.0373 C39.8003,38.5673 39.4043,38.9963 38.9313,38.9943 L18.4743,38.9433 Z M18.7093,29.3973 C18.2413,29.3973 17.8713,28.9693 17.8853,28.4413 C17.8973,27.9133 18.2883,27.4853 18.7573,27.4853 L31.5373,27.4753 C32.0103,27.4753 32.3813,27.9053 32.3673,28.4353 C32.3533,28.9653 31.9583,29.3953 31.4863,29.3953 L18.7093,29.3973 Z M18.9463,19.8243 C18.4763,19.8253 18.1063,19.3983 18.1203,18.8683 C18.1333,18.3393 18.5233,17.9083 18.9933,17.9063 L39.5163,17.8373 C39.9913,17.8353 40.3643,18.2663 40.3493,18.7983 C40.3353,19.3313 39.9373,19.7643 39.4633,19.7663 L18.9463,19.8243 Z" id="Fill-128" fill="#35495E" fill-rule="evenodd"></path>
                            <path d="M117.8464,14.6562 L200.5314,14.3102 C208.3314,14.2772 214.3164,21.0462 213.8724,29.4092 C213.4294,37.7522 206.7554,44.4762 198.9934,44.4462 L116.6964,44.1282 C109.3024,44.0992 103.5734,37.5252 103.8734,29.4262 C104.1744,21.3072 110.4184,14.6872 117.8464,14.6562" id="Fill-130" fill="#5B85C3" fill-rule="evenodd"></path>
                            <path d="M190.7385,32.2705 L126.5265,32.2305 C125.3205,32.2295 124.3855,31.1605 124.4385,29.8425 C124.4905,28.5235 125.5115,27.4525 126.7195,27.4515 L190.9805,27.4075 C192.2315,27.4065 193.1915,28.4965 193.1245,29.8395 C193.0565,31.1835 191.9885,32.2705 190.7385,32.2705" id="Fill-132" fill="#FEFEFE" fill-rule="evenodd"></path>
                            <path d="M287.0422,13.9038 C295.2062,13.8688 301.3942,20.7948 300.8312,29.3518 C300.2702,37.8878 293.2042,44.7668 285.0812,44.7358 C276.9922,44.7038 270.8812,37.8268 271.4012,29.3568 C271.9242,20.8648 278.9122,13.9378 287.0422,13.9038" id="Fill-134" fill="#798897" fill-rule="evenodd"></path>
                            <polygon id="Fill-136" fill="#FAFCFE" fill-rule="evenodd" points="281.6408 24.309 284.2758 24.305 286.4168 31.442 289.4988 24.297 292.1178 24.293 291.4598 34.496 289.8088 34.494 290.3528 26.026 290.3258 26.027 286.8278 34.49 285.6198 34.489 283.2048 26.034 283.1778 26.034 282.6438 34.485 281.0008 34.483"></polygon>
                            <path d="M240.4133,14.0991 C248.3793,14.0661 254.4573,20.9061 253.9593,29.3591 C253.4623,37.7911 246.6093,44.5871 238.6823,44.5561 C230.7873,44.5261 224.7823,37.7321 225.2403,29.3641 C225.7003,20.9751 232.4793,14.1321 240.4133,14.0991" id="Fill-138" fill="#EFEFF0" fill-rule="evenodd"></path>
                            <path d="M255.1428,17.1508 C258.6058,17.1388 261.2398,20.1008 261.0198,23.7618 C260.8008,27.4198 257.8178,30.3818 254.3628,30.3808 C250.9138,30.3808 248.2928,27.4278 248.5048,23.7828 C248.7168,20.1328 251.6858,17.1628 255.1428,17.1508" id="Fill-140" fill="#E52E4D" fill-rule="evenodd"></path>
                            <path d="M254.3615,23.229 C254.7195,23.229 254.9785,23.134 255.1375,22.945 C255.2975,22.757 255.3865,22.493 255.4075,22.154 C255.4255,21.838 255.3605,21.583 255.2105,21.39 C255.0595,21.196 254.8255,21.1 254.5075,21.101 C254.1985,21.101 253.9355,21.203 253.7215,21.406 C253.5075,21.609 253.3915,21.863 253.3735,22.167 L252.6085,22.168 L252.5975,22.143 C252.6115,21.672 252.8035,21.27 253.1735,20.936 C253.5435,20.602 254.0015,20.434 254.5475,20.433 C255.0985,20.431 255.5215,20.577 255.8175,20.871 C256.1125,21.165 256.2435,21.598 256.2095,22.17 C256.1915,22.463 256.1035,22.73 255.9435,22.972 C255.7845,23.213 255.5695,23.402 255.3005,23.538 C255.5915,23.663 255.8085,23.854 255.9495,24.111 C256.0905,24.368 256.1505,24.679 256.1295,25.043 C256.0945,25.618 255.8965,26.068 255.5335,26.394 C255.1715,26.72 254.7155,26.883 254.1675,26.884 C253.6625,26.884 253.2265,26.728 252.8615,26.414 C252.4965,26.1 252.3355,25.685 252.3795,25.169 L252.3885,25.143 L253.1545,25.142 C253.1355,25.446 253.2245,25.702 253.4205,25.91 C253.6155,26.118 253.8775,26.221 254.2065,26.221 C254.5315,26.221 254.7945,26.114 254.9945,25.899 C255.1945,25.686 255.3045,25.406 255.3255,25.062 C255.3475,24.668 255.2795,24.375 255.1185,24.179 C254.9575,23.984 254.6925,23.887 254.3235,23.888 L253.6635,23.889 L253.7025,23.23 L254.3615,23.229 Z" id="Fill-142" fill="#FAFCFE" fill-rule="evenodd"></path>
                            <path d="M246.5871,35.1723 L245.3071,33.0973 L246.2401,28.3303 C246.7971,25.4853 245.6351,22.8313 243.3341,21.6163 L243.3901,21.3353 C243.5821,20.3523 242.9931,19.3983 242.1051,19.2513 C241.2211,19.1083 240.3061,19.8123 240.1131,20.7953 L240.0601,21.0763 C237.4521,21.4823 235.3691,23.5933 234.8191,26.4323 L233.8991,31.1903 L231.9281,32.7143 L231.6301,34.2543 L238.8431,35.4663 C238.8101,36.5603 239.4741,37.5263 240.4841,37.7383 C240.6171,37.7663 240.7511,37.7803 240.8841,37.7803 C241.8081,37.7823 242.6761,37.1333 243.0321,36.1713 L246.2841,36.7173 L246.5871,35.1723 Z M240.6911,36.8333 C240.3461,36.7613 240.0541,36.5453 239.8711,36.2223 C239.7661,36.0353 239.7081,35.8263 239.6911,35.6093 L242.1841,36.0273 C241.8961,36.6113 241.2921,36.9623 240.6911,36.8333 Z M245.6361,35.6673 L232.6281,33.4833 L232.6771,33.2283 L234.6481,31.7043 L235.6431,26.5693 C236.1321,24.0403 238.0501,22.1863 240.4151,21.9563 L240.7481,21.9243 L240.9411,20.9313 C241.0311,20.4623 241.4981,20.1013 241.9261,20.1673 C242.3501,20.2363 242.6531,20.7283 242.5631,21.1973 L242.3691,22.1903 L242.6691,22.3273 C244.8051,23.3003 245.9091,25.6583 245.4121,28.1923 L244.4051,33.3393 L245.6851,35.4123 L245.6361,35.6673 Z" id="Fill-144" fill="#798897" fill-rule="evenodd"></path>
                        </g>
                    </g>
                    <g id="Group-47" mask="url(#mask-4)">
                        <g transform="translate(13.000000, 74.000000)" id="Group-25">
                            <g>
                                <mask id="mask-8" fill="white">
                                    <use xlink:href="#path-7"></use>
                                </mask>
                                <g id="Mask">
                                    <use fill="black" fill-opacity="1" filter="url(#filter-9)" xlink:href="#path-7"></use>
                                    <use fill="#FFFFFF" fill-rule="evenodd" xlink:href="#path-7"></use>
                                </g>
                                <g mask="url(#mask-8)">
                                    <g transform="translate(17.000000, 26.000000)">
                                        <path d="M148.0759,2.2421 L150.7069,2.2931 L149.8679,19.9711 L147.2439,19.9081 L148.0759,2.2421 Z M142.3659,2.1311 L144.9889,2.1811 L144.1659,19.8331 L141.5509,19.7691 L142.3659,2.1311 Z M136.4269,14.6401 L135.8839,14.6271 C135.5209,14.6191 135.1149,14.6251 134.6649,14.6461 C134.2149,14.6671 133.7879,14.7311 133.3849,14.8381 C132.9819,14.9451 132.6379,15.1081 132.3529,15.3261 C132.0679,15.5441 131.9169,15.8551 131.8989,16.2581 C131.8869,16.5211 131.9309,16.7431 132.0319,16.9241 C132.1319,17.1041 132.2659,17.2591 132.4339,17.3871 C132.6019,17.5141 132.7929,17.6081 133.0079,17.6681 C133.2219,17.7271 133.4379,17.7591 133.6549,17.7641 C134.5519,17.7851 135.2239,17.5731 135.6719,17.1261 C136.1199,16.6791 136.3619,16.0591 136.3979,15.2681 L136.4269,14.6401 Z M136.4209,18.1091 L136.3559,18.1081 C135.9509,18.7341 135.4519,19.1831 134.8599,19.4561 C134.2679,19.7291 133.6259,19.8561 132.9319,19.8401 C132.4549,19.8281 131.9919,19.7471 131.5429,19.5961 C131.0949,19.4461 130.6999,19.2281 130.3589,18.9411 C130.0169,18.6541 129.7479,18.2991 129.5499,17.8761 C129.3519,17.4531 129.2649,16.9631 129.2899,16.4061 C129.3169,15.8021 129.4409,15.2901 129.6619,14.8691 C129.8829,14.4481 130.1689,14.0971 130.5219,13.8191 C130.8739,13.5391 131.2779,13.3201 131.7339,13.1591 C132.1899,12.9991 132.6619,12.8821 133.1499,12.8071 C133.6389,12.7331 134.1299,12.6891 134.6229,12.6771 C135.1169,12.6651 135.5809,12.6631 136.0149,12.6731 L136.6679,12.6881 L136.6809,12.3851 C136.7129,11.6861 136.5129,11.1571 136.0789,10.7981 C135.6449,10.4391 135.0809,10.2521 134.3859,10.2371 C133.8349,10.2241 133.3169,10.3181 132.8289,10.5171 C132.3429,10.7171 131.9179,10.9911 131.5549,11.3401 L130.2539,9.8441 C130.8609,9.2211 131.5569,8.7771 132.3439,8.5141 C133.1309,8.2511 133.9369,8.1281 134.7629,8.1461 C135.5019,8.1611 136.1209,8.2641 136.6209,8.4531 C137.1199,8.6431 137.5309,8.8811 137.8519,9.1681 C138.1729,9.4551 138.4159,9.7841 138.5799,10.1531 C138.7449,10.5221 138.8589,10.8941 138.9219,11.2681 C138.9849,11.6431 139.0149,12.0061 139.0129,12.3551 C139.0119,12.7051 139.0049,13.0121 138.9929,13.2761 L138.6989,19.7001 L136.3509,19.6431 L136.4209,18.1091 Z M117.1699,10.4201 L115.0399,10.3731 L115.1399,8.0101 L117.2699,8.0541 L117.3379,6.4771 C117.3699,5.7031 117.4509,5.0041 117.5779,4.3801 C117.7049,3.7551 117.9189,3.2211 118.2179,2.7771 C118.5169,2.3331 118.9239,1.9961 119.4369,1.7651 C119.9509,1.5351 120.6109,1.4281 121.4169,1.4431 C122.0079,1.4551 122.5529,1.5201 123.0529,1.6381 L122.7769,4.0081 C122.5919,3.9571 122.4129,3.9151 122.2419,3.8811 C122.0699,3.8461 121.8909,3.8271 121.7039,3.8231 C121.3439,3.8161 121.0539,3.8721 120.8319,3.9921 C120.6109,4.1121 120.4349,4.2751 120.3039,4.4811 C120.1719,4.6881 120.0829,4.9301 120.0339,5.2081 C119.9869,5.4861 119.9559,5.7801 119.9429,6.0901 L119.8559,8.1101 L122.2509,8.1601 L122.1479,10.5291 L119.7539,10.4761 L119.3779,19.2321 L116.7969,19.1701 L117.1699,10.4201 Z M105.0909,13.3451 C105.0729,13.7761 105.1239,14.1931 105.2429,14.5961 C105.3619,14.9991 105.5469,15.3581 105.7979,15.6711 C106.0489,15.9851 106.3559,16.2391 106.7189,16.4321 C107.0819,16.6251 107.4989,16.7271 107.9699,16.7391 C108.4399,16.7501 108.8649,16.6671 109.2439,16.4921 C109.6219,16.3151 109.9509,16.0761 110.2269,15.7751 C110.5049,15.4731 110.7199,15.1231 110.8719,14.7261 C111.0239,14.3281 111.1099,13.9141 111.1279,13.4821 C111.1449,13.0511 111.0949,12.6331 110.9759,12.2291 C110.8569,11.8251 110.6709,11.4661 110.4199,11.1521 C110.1679,10.8381 109.8599,10.5841 109.4959,10.3911 C109.1329,10.1981 108.7149,10.0961 108.2439,10.0861 C107.7729,10.0751 107.3479,10.1591 106.9689,10.3361 C106.5909,10.5131 106.2629,10.7521 105.9869,11.0541 C105.7099,11.3561 105.4959,11.7061 105.3449,12.1031 C105.1929,12.5001 105.1079,12.9141 105.0909,13.3451 Z M102.5279,13.2871 C102.5629,12.4101 102.7409,11.6171 103.0619,10.9091 C103.3829,10.1991 103.8029,9.5961 104.3229,9.0981 C104.8419,8.6011 105.4499,8.2211 106.1459,7.9581 C106.8419,7.6951 107.5759,7.5711 108.3469,7.5881 C109.1179,7.6041 109.8419,7.7581 110.5159,8.0511 C111.1919,8.3431 111.7689,8.7491 112.2479,9.2691 C112.7279,9.7901 113.0989,10.4121 113.3629,11.1361 C113.6259,11.8601 113.7399,12.6621 113.7019,13.5411 C113.6649,14.4201 113.4849,15.2151 113.1619,15.9241 C112.8379,16.6341 112.4159,17.2371 111.8939,17.7331 C111.3729,18.2291 110.7629,18.6071 110.0669,18.8681 C109.3699,19.1281 108.6369,19.2491 107.8669,19.2301 C107.0969,19.2111 106.3759,19.0551 105.7029,18.7621 C105.0309,18.4691 104.4559,18.0631 103.9789,17.5441 C103.5009,17.0251 103.1309,16.4051 102.8679,15.6841 C102.6059,14.9621 102.4929,14.1631 102.5279,13.2871 Z M92.8319,10.6021 C92.3659,9.8391 91.7159,9.4491 90.8809,9.4301 C90.5409,9.4231 90.2049,9.5081 89.8729,9.6851 C89.5409,9.8621 89.3669,10.1581 89.3509,10.5711 C89.3379,10.9091 89.4629,11.1571 89.7249,11.3161 C89.9879,11.4751 90.3229,11.6141 90.7279,11.7301 C91.1339,11.8461 91.5719,11.9681 92.0409,12.0931 C92.5109,12.2191 92.9459,12.4051 93.3469,12.6521 C93.7489,12.8991 94.0759,13.2331 94.3289,13.6541 C94.5819,14.0741 94.6939,14.6441 94.6659,15.3651 C94.6399,16.0251 94.4869,16.5771 94.2069,17.0231 C93.9279,17.4691 93.5739,17.8251 93.1459,18.0901 C92.7179,18.3561 92.2399,18.5441 91.7119,18.6541 C91.1839,18.7631 90.6589,18.8121 90.1369,18.7991 C89.3459,18.7801 88.6239,18.6401 87.9709,18.3791 C87.3169,18.1181 86.7419,17.6601 86.2439,17.0061 L88.0029,15.3251 C88.3119,15.7301 88.6489,16.0641 89.0129,16.3251 C89.3779,16.5861 89.8279,16.7231 90.3649,16.7361 C90.5489,16.7411 90.7399,16.7221 90.9399,16.6811 C91.1389,16.6401 91.3259,16.5681 91.4999,16.4641 C91.6739,16.3611 91.8169,16.2301 91.9289,16.0721 C92.0409,15.9131 92.1019,15.7271 92.1099,15.5131 C92.1249,15.1301 92.0019,14.8431 91.7399,14.6531 C91.4779,14.4631 91.1449,14.3051 90.7399,14.1811 C90.3339,14.0561 89.8969,13.9391 89.4269,13.8291 C88.9579,13.7191 88.5229,13.5481 88.1219,13.3161 C87.7209,13.0851 87.3939,12.7671 87.1409,12.3631 C86.8879,11.9581 86.7759,11.4041 86.8029,10.6991 C86.8259,10.0861 86.9619,9.5561 87.2129,9.1091 C87.4629,8.6621 87.7839,8.2971 88.1769,8.0131 C88.5689,7.7301 89.0149,7.5241 89.5159,7.3971 C90.0159,7.2691 90.5209,7.2111 91.0299,7.2211 C91.7089,7.2361 92.3769,7.3771 93.0329,7.6441 C93.6889,7.9121 94.2099,8.3571 94.5969,8.9811 L92.8319,10.6021 Z M76.4109,0.8461 L78.9419,0.8961 L78.5399,11.8011 L82.6129,7.3201 L85.8689,7.3881 L81.3269,12.3001 L85.7249,18.4161 L82.3689,18.3351 L78.5519,12.6271 L78.5099,12.6261 L78.3029,18.2371 L75.7789,18.1751 L76.4109,0.8461 Z M72.8219,10.4131 C72.5399,10.0711 72.2419,9.7971 71.9269,9.5911 C71.6119,9.3861 71.2869,9.2791 70.9509,9.2721 C70.4899,9.2621 70.0739,9.3451 69.7029,9.5191 C69.3329,9.6951 69.0139,9.9321 68.7439,10.2311 C68.4749,10.5301 68.2669,10.8761 68.1199,11.2701 C67.9739,11.6631 67.8929,12.0731 67.8779,12.4991 C67.8629,12.9261 67.9149,13.3391 68.0339,13.7381 C68.1519,14.1371 68.3349,14.4921 68.5819,14.8021 C68.8299,15.1131 69.1319,15.3641 69.4889,15.5551 C69.8459,15.7461 70.2539,15.8471 70.7159,15.8581 C71.1069,15.8671 71.4729,15.7881 71.8149,15.6211 C72.1579,15.4541 72.4529,15.2051 72.7029,14.8751 L74.3119,16.8821 C74.0499,17.1501 73.7509,17.3791 73.4149,17.5691 C73.0789,17.7591 72.7409,17.9111 72.4009,18.0251 C72.0609,18.1381 71.7359,18.2181 71.4269,18.2641 C71.1169,18.3101 70.8509,18.3301 70.6269,18.3251 C69.8729,18.3061 69.1659,18.1521 68.5059,17.8621 C67.8459,17.5721 67.2799,17.1701 66.8099,16.6571 C66.3399,16.1431 65.9739,15.5291 65.7129,14.8151 C65.4519,14.1011 65.3369,13.3101 65.3669,12.4421 C65.3969,11.5751 65.5679,10.7901 65.8779,10.0881 C66.1889,9.3861 66.5979,8.7881 67.1039,8.2951 C67.6109,7.8031 68.2039,7.4261 68.8849,7.1661 C69.5659,6.9051 70.2839,6.7831 71.0389,6.7991 C71.6829,6.8121 72.3259,6.9601 72.9679,7.2411 C73.6099,7.5221 74.1659,7.9581 74.6349,8.5501 L72.8219,10.4131 Z M60.4399,3.1211 C60.4549,2.6791 60.6179,2.2981 60.9289,1.9761 C61.2399,1.6541 61.6249,1.4971 62.0839,1.5061 C62.5439,1.5151 62.9259,1.6801 63.2289,1.9981 C63.5319,2.3181 63.6749,2.7141 63.6589,3.1871 C63.6419,3.6591 63.4719,4.0491 63.1469,4.3551 C62.8229,4.6611 62.4309,4.8101 61.9709,4.8001 C61.5119,4.7911 61.1379,4.6191 60.8489,4.2851 C60.5609,3.9511 60.4249,3.5641 60.4399,3.1211 Z M60.6679,6.8541 L63.1739,6.9071 L62.7949,17.8611 L60.2929,17.8001 L60.6679,6.8541 Z M55.4379,0.4381 L57.9399,0.4871 L57.3569,17.7291 L54.8629,17.6681 L55.4379,0.4381 Z M51.3249,5.2421 C50.8049,4.5931 50.2969,4.1571 49.7989,3.9331 C49.3009,3.7101 48.7959,3.5941 48.2839,3.5831 C47.5239,3.5681 46.8309,3.7011 46.2069,3.9851 C45.5829,4.2681 45.0419,4.6671 44.5839,5.1811 C44.1259,5.6951 43.7649,6.2981 43.5019,6.9901 C43.2389,7.6821 43.0949,8.4291 43.0689,9.2321 C43.0419,10.0951 43.1369,10.8921 43.3549,11.6241 C43.5729,12.3561 43.8939,12.9921 44.3179,13.5321 C44.7419,14.0711 45.2559,14.4991 45.8599,14.8171 C46.4639,15.1341 47.1449,15.3011 47.9039,15.3191 C48.4969,15.3331 49.0789,15.1911 49.6479,14.8941 C50.2179,14.5971 50.7559,14.1131 51.2629,13.4421 L53.3659,15.1751 C52.6679,16.1591 51.8349,16.8671 50.8659,17.2991 C49.8979,17.7301 48.8759,17.9321 47.7989,17.9061 C46.6679,17.8781 45.6379,17.6531 44.7069,17.2291 C43.7759,16.8061 42.9819,16.2201 42.3249,15.4711 C41.6659,14.7211 41.1609,13.8291 40.8079,12.7921 C40.4549,11.7551 40.2989,10.6091 40.3379,9.3531 C40.3779,8.0671 40.6069,6.9021 41.0259,5.8571 C41.4439,4.8121 42.0059,3.9261 42.7119,3.1961 C43.4179,2.4671 44.2499,1.9101 45.2079,1.5271 C46.1669,1.1431 47.2139,0.9621 48.3469,0.9841 C49.3439,1.0041 50.2609,1.2161 51.0999,1.6201 C51.9399,2.0261 52.7109,2.6991 53.4149,3.6421 L51.3249,5.2421 Z M22.3329,14.0151 L28.1319,8.1341 C28.3009,7.9561 28.4769,7.7681 28.6609,7.5681 C28.8449,7.3681 29.0119,7.1571 29.1619,6.9331 C29.3119,6.7101 29.4389,6.4751 29.5419,6.2281 C29.6449,5.9801 29.7009,5.7211 29.7089,5.4491 C29.7189,5.1171 29.6699,4.8211 29.5609,4.5621 C29.4519,4.3031 29.3049,4.0801 29.1179,3.8951 C28.9319,3.7101 28.7139,3.5661 28.4639,3.4631 C28.2139,3.3591 27.9459,3.3041 27.6589,3.2991 C27.0439,3.2861 26.5329,3.4721 26.1249,3.8561 C25.7179,4.2411 25.4629,4.7641 25.3619,5.4261 L22.7909,5.1451 C22.8669,4.4081 23.0459,3.7591 23.3279,3.1991 C23.6099,2.6381 23.9679,2.1741 24.4019,1.8051 C24.8359,1.4361 25.3359,1.1591 25.9009,0.9741 C26.4669,0.7881 27.0779,0.7021 27.7339,0.7151 C28.3909,0.7281 28.9999,0.8351 29.5629,1.0351 C30.1249,1.2351 30.6129,1.5251 31.0269,1.9041 C31.4399,2.2831 31.7619,2.7621 31.9919,3.3421 C32.2209,3.9211 32.3239,4.5961 32.3009,5.3671 C32.2699,6.3801 32.0349,7.2481 31.5959,7.9711 C31.1559,8.6951 30.5979,9.3811 29.9219,10.0301 L25.3029,14.5141 L32.0209,14.6721 L31.9479,17.1131 L22.2509,16.8781 L22.3329,14.0151 Z M19.6559,3.2711 L13.8479,3.1521 L13.6999,6.3311 C13.8919,6.2601 14.1339,6.2131 14.4269,6.1891 C14.7189,6.1651 14.9939,6.1561 15.2519,6.1611 C15.9569,6.1761 16.6019,6.3141 17.1859,6.5751 C17.7699,6.8361 18.2659,7.2041 18.6749,7.6791 C19.0829,8.1551 19.3969,8.7191 19.6169,9.3711 C19.8359,10.0231 19.9349,10.7551 19.9119,11.5671 C19.8879,12.4241 19.7329,13.1911 19.4489,13.8681 C19.1649,14.5461 18.7819,15.1161 18.2999,15.5771 C17.8189,16.0381 17.2559,16.3891 16.6109,16.6291 C15.9669,16.8681 15.2789,16.9791 14.5479,16.9611 C13.3969,16.9331 12.4279,16.6101 11.6389,15.9911 C10.8509,15.3731 10.3049,14.4461 9.9989,13.2091 L12.5759,12.5041 C12.7229,13.0771 12.9889,13.5341 13.3719,13.8731 C13.7559,14.2121 14.2589,14.3891 14.8829,14.4041 C15.2479,14.4121 15.5859,14.3521 15.8939,14.2251 C16.2029,14.0971 16.4729,13.9111 16.7039,13.6691 C16.9339,13.4271 17.1159,13.1421 17.2469,12.8141 C17.3779,12.4871 17.4499,12.1281 17.4599,11.7371 C17.4759,11.1811 17.3969,10.7061 17.2249,10.3111 C17.0529,9.9161 16.8139,9.5911 16.5079,9.3361 C16.2029,9.0811 15.8479,8.8931 15.4449,8.7711 C15.0409,8.6501 14.6149,8.5841 14.1679,8.5741 C13.6389,8.5621 13.1119,8.6181 12.5869,8.7421 C12.0619,8.8661 11.5799,9.0431 11.1399,9.2741 L11.5139,0.6671 L19.7239,0.8291 L19.6559,3.2711 Z" id="Fill-3" stroke="none" fill="#35495E" fill-rule="evenodd"></path>
                                        <path d="M11.2029,45.062 L172.1329,50.244 C173.6569,50.292 174.8259,51.635 174.7429,53.241 L173.1079,85.075 C173.0259,86.666 171.7309,87.902 170.2169,87.838 L10.2269,81.074 C8.8419,81.015 7.7519,79.734 7.7919,78.213 L8.6059,47.763 C8.6469,46.227 9.8089,45.017 11.2029,45.062" id="Fill-5" stroke="none" fill="#FEFEFE" fill-rule="evenodd"></path>
                                        <path d="M11.2029,45.062 L172.1329,50.244 C173.6569,50.292 174.8259,51.635 174.7429,53.241 L173.1079,85.075 C173.0259,86.666 171.7309,87.902 170.2169,87.838 L10.2269,81.074 C8.8419,81.015 7.7519,79.734 7.7919,78.213 L8.6059,47.763 C8.6469,46.227 9.8089,45.017 11.2029,45.062 Z" id="Stroke-7" stroke="#DFE4EB" stroke-width="1" fill="none"></path>
                                        <path d="M78.4343,60.9267 L26.0183,59.0417 C23.9153,58.9667 22.1583,60.7727 22.0913,63.0757 C22.0253,65.3777 23.6733,67.3067 25.7733,67.3877 L78.1203,69.3917 C80.2853,69.4747 82.1133,67.6467 82.2023,65.3077 C82.2903,62.9667 80.6023,61.0047 78.4343,60.9267" id="Fill-9" stroke="none" fill="#EDEDEE" fill-rule="evenodd"></path>
                                        <path d="M160.1574,67.9125 C160.5754,67.6085 161.1424,67.7165 161.4234,68.1525 C161.7044,68.5885 161.5934,69.1875 161.1744,69.4915 L156.8254,72.6455 L152.8104,69.1785 C152.4254,68.8455 152.3724,68.2415 152.6944,67.8285 C153.0144,67.4155 153.5884,67.3505 153.9734,67.6835 L156.9434,70.2465 L160.1574,67.9125 Z" id="Fill-11" stroke="none" fill="#798897" fill-rule="evenodd"></path>
                                        <path d="M9.9538,91.1611 L169.6798,98.3661 C171.1918,98.4341 172.3518,99.7741 172.2708,101.3571 L170.6588,132.7401 C170.5778,134.3071 169.2928,135.5111 167.7908,135.4281 L8.9918,126.6841 C7.6158,126.6081 6.5328,125.3301 6.5728,123.8291 L7.3758,93.7921 C7.4158,92.2771 8.5698,91.0991 9.9538,91.1611" id="Fill-13" stroke="none" fill="#FEFEFE" fill-rule="evenodd"></path>
                                        <path d="M9.9538,91.1611 L169.6798,98.3661 C171.1918,98.4341 172.3518,99.7741 172.2708,101.3571 L170.6588,132.7401 C170.5778,134.3071 169.2928,135.5111 167.7908,135.4281 L8.9918,126.6841 C7.6158,126.6081 6.5328,125.3301 6.5728,123.8291 L7.3758,93.7921 C7.4158,92.2771 8.5698,91.0991 9.9538,91.1611 Z" id="Stroke-15" stroke="#DFE4EB" stroke-width="1" fill="none"></path>
                                        <path d="M111.6438,109.395 L24.6648,105.148 C22.5768,105.046 20.8328,106.807 20.7678,109.078 C20.7018,111.348 22.3378,113.274 24.4238,113.38 L111.2868,117.821 C113.4768,117.933 115.3358,116.137 115.4358,113.809 C115.5358,111.479 113.8368,109.502 111.6438,109.395" id="Fill-17" stroke="none" fill="#EDEDEE" fill-rule="evenodd"></path>
                                        <path d="M157.8029,115.6411 C158.2179,115.3471 158.7809,115.4601 159.0599,115.8941 C159.3389,116.3281 159.2279,116.9181 158.8129,117.2121 L154.4989,120.2671 L150.5129,116.7941 C150.1309,116.4611 150.0789,115.8641 150.3969,115.4611 C150.7159,115.0581 151.2839,115.0011 151.6669,115.3351 L154.6149,117.9021 L157.8029,115.6411 Z" id="Fill-19" stroke="none" fill="#798897" fill-rule="evenodd"></path>
                                        <path d="M39.9182,170.6909 L288.7352,187.3139" id="Stroke-21" stroke="#E7ECF0" stroke-width="2" fill="none"></path>
                                        <path d="M34.4148,342.9653 L275.9588,370.6933" id="Stroke-23" stroke="#DFE3E7" stroke-width="2" fill="none"></path>
                                        <path d="M35.7634,300.7426 L279.0864,325.8086" id="Stroke-25" stroke="#E7ECF0" stroke-width="2" fill="none"></path>
                                        <path d="M38.5149,214.6157 L285.4729,234.1327" id="Stroke-27" stroke="#E7ECF0" stroke-width="2" fill="none"></path>
                                        <path d="M37.1301,257.9624 L282.2571,280.2934" id="Stroke-29" stroke="#E7ECF0" stroke-width="2" fill="none"></path>
                                        <g id="Group-41" stroke="none" stroke-width="1" fill="none" fill-rule="evenodd" transform="translate(0.000000, 160.253000)">
                                            <path d="M24.4577,8.1972 L26.9267,5.8882 L28.0017,5.9592 L25.3987,8.2952 L28.1077,11.4512 L27.0017,11.3772 L24.4537,8.3262 L24.3687,11.1992 L23.6547,11.1512 L23.9157,2.3142 L24.6307,2.3602 L24.4577,8.1972 Z M20.1137,2.4892 C20.6617,2.5252 21.1017,2.6902 21.4327,2.9852 C21.7637,3.2802 22.0167,3.6442 22.1917,4.0772 C22.3677,4.5102 22.4797,4.9812 22.5307,5.4882 C22.5807,5.9942 22.5997,6.4782 22.5857,6.9372 C22.5717,7.3972 22.5257,7.8762 22.4457,8.3742 C22.3667,8.8712 22.2267,9.3242 22.0267,9.7322 C21.8277,10.1402 21.5537,10.4682 21.2077,10.7182 C20.8607,10.9672 20.4137,11.0732 19.8667,11.0362 C19.3197,11.0002 18.8807,10.8342 18.5507,10.5392 C18.2207,10.2442 17.9677,9.8812 17.7927,9.4482 C17.6177,9.0162 17.5047,8.5472 17.4547,8.0412 C17.4047,7.5352 17.3857,7.0532 17.3987,6.5942 C17.4117,6.1352 17.4577,5.6572 17.5367,5.1592 C17.6157,4.6612 17.7547,4.2082 17.9547,3.8002 C18.1537,3.3922 18.4267,3.0622 18.7727,2.8122 C19.1197,2.5612 19.5657,2.4532 20.1137,2.4892 Z M20.0917,3.2602 C19.6737,3.2342 19.3407,3.3332 19.0917,3.5582 C18.8437,3.7842 18.6537,4.0722 18.5207,4.4222 C18.3877,4.7732 18.2997,5.1492 18.2557,5.5512 C18.2117,5.9542 18.1857,6.3192 18.1757,6.6462 C18.1657,6.9722 18.1717,7.3392 18.1927,7.7462 C18.2137,8.1522 18.2797,8.5382 18.3927,8.9052 C18.5037,9.2702 18.6777,9.5822 18.9117,9.8392 C19.1457,10.0962 19.4717,10.2392 19.8887,10.2672 C20.3067,10.2952 20.6397,10.1972 20.8877,9.9712 C21.1367,9.7462 21.3277,9.4592 21.4597,9.1092 C21.5927,8.7592 21.6817,8.3832 21.7257,7.9812 C21.7697,7.5782 21.7967,7.2132 21.8067,6.8862 C21.8157,6.5592 21.8107,6.1922 21.7907,5.7842 C21.7697,5.3772 21.7027,4.9902 21.5907,4.6232 C21.4787,4.2572 21.3057,3.9452 21.0707,3.6882 C20.8357,3.4302 20.5097,3.2882 20.0917,3.2602 Z M16.1027,3.1412 L12.9767,2.9372 L12.8647,5.4182 C13.0317,5.3592 13.2017,5.3202 13.3747,5.3002 C13.5477,5.2802 13.7207,5.2762 13.8927,5.2872 C14.2517,5.3112 14.5767,5.3992 14.8677,5.5512 C15.1587,5.7022 15.4067,5.9042 15.6117,6.1552 C15.8177,6.4062 15.9747,6.6972 16.0837,7.0272 C16.1937,7.3582 16.2427,7.7142 16.2317,8.0942 C16.2207,8.4912 16.1457,8.8502 16.0067,9.1722 C15.8687,9.4932 15.6807,9.7642 15.4447,9.9862 C15.2077,10.2072 14.9317,10.3742 14.6157,10.4852 C14.2997,10.5952 13.9587,10.6392 13.5927,10.6142 C13.1117,10.5822 12.6817,10.4282 12.3017,10.1542 C11.9217,9.8802 11.6337,9.4952 11.4397,9.0002 L12.2127,8.6902 C12.3477,9.0262 12.5407,9.2972 12.7937,9.5052 C13.0467,9.7122 13.3417,9.8272 13.6787,9.8502 C13.9227,9.8662 14.1497,9.8332 14.3607,9.7502 C14.5717,9.6672 14.7567,9.5492 14.9157,9.3962 C15.0747,9.2432 15.2027,9.0572 15.2987,8.8382 C15.3947,8.6182 15.4467,8.3812 15.4537,8.1242 C15.4617,7.8372 15.4227,7.5702 15.3357,7.3222 C15.2497,7.0752 15.1257,6.8592 14.9657,6.6732 C14.8057,6.4872 14.6117,6.3402 14.3847,6.2312 C14.1577,6.1232 13.9077,6.0592 13.6347,6.0412 C13.3617,6.0242 13.0897,6.0462 12.8177,6.1102 C12.5467,6.1742 12.2877,6.2682 12.0397,6.3912 L12.2337,2.1172 L16.1247,2.3702 L16.1027,3.1412 Z M7.8517,2.4282 C7.6587,2.4312 7.4817,2.4682 7.3217,2.5392 C7.1627,2.6112 7.0237,2.7082 6.9057,2.8332 C6.7877,2.9572 6.6937,3.1052 6.6247,3.2762 C6.5557,3.4462 6.5187,3.6322 6.5127,3.8342 C6.5077,4.0352 6.5367,4.2122 6.6007,4.3642 C6.6647,4.5162 6.7537,4.6522 6.8697,4.7732 C6.9837,4.8932 7.1197,5.0012 7.2737,5.0962 C7.4297,5.1922 7.5957,5.2812 7.7727,5.3632 L7.8517,2.4282 Z M8.1757,9.5272 C8.3117,9.5362 8.4627,9.5232 8.6277,9.4882 C8.7937,9.4522 8.9487,9.3812 9.0907,9.2742 C9.2337,9.1672 9.3557,9.0222 9.4577,8.8382 C9.5597,8.6552 9.6147,8.4192 9.6227,8.1322 C9.6407,7.7372 9.5187,7.4012 9.2577,7.1232 C8.9957,6.8452 8.6637,6.6232 8.2587,6.4562 L8.1757,9.5272 Z M7.7487,6.2592 C7.5067,6.1652 7.2647,6.0502 7.0207,5.9132 C6.7777,5.7772 6.5607,5.6132 6.3687,5.4222 C6.1767,5.2302 6.0207,5.0022 5.9027,4.7382 C5.7847,4.4742 5.7307,4.1632 5.7397,3.8062 C5.7497,3.4732 5.8157,3.1742 5.9407,2.9102 C6.0667,2.6462 6.2287,2.4232 6.4267,2.2422 C6.6247,2.0602 6.8497,1.9212 7.0997,1.8242 C7.3497,1.7282 7.6067,1.6762 7.8727,1.6712 L7.8947,0.8552 L8.4107,0.8882 L8.3887,1.6812 C8.6467,1.6972 8.8747,1.7392 9.0737,1.8072 C9.2727,1.8742 9.4507,1.9602 9.6057,2.0632 C9.7607,2.1672 9.8987,2.2832 10.0207,2.4122 C10.1437,2.5402 10.2527,2.6702 10.3497,2.8012 L9.7327,3.3212 C9.5897,3.0392 9.3907,2.8262 9.1367,2.6812 C8.8817,2.5362 8.6257,2.4592 8.3677,2.4502 L8.2837,5.5602 C8.5457,5.6782 8.8037,5.8102 9.0577,5.9552 C9.3117,6.1002 9.5407,6.2752 9.7427,6.4782 C9.9457,6.6822 10.1077,6.9232 10.2287,7.1992 C10.3507,7.4752 10.4067,7.8032 10.3957,8.1842 C10.3867,8.5092 10.3237,8.8032 10.2047,9.0632 C10.0867,9.3232 9.9267,9.5442 9.7247,9.7242 C9.5217,9.9052 9.2867,10.0452 9.0187,10.1432 C8.7507,10.2412 8.4627,10.2922 8.1547,10.2942 L8.1337,11.0852 L7.6187,11.0502 L7.6397,10.2832 C7.1397,10.2182 6.6947,10.0512 6.3047,9.7802 C5.9147,9.5092 5.6177,9.2002 5.4117,8.8532 L6.0677,8.3962 C6.1777,8.5662 6.3027,8.7182 6.4427,8.8522 C6.5827,8.9852 6.7227,9.0992 6.8627,9.1952 C7.0037,9.2892 7.1437,9.3632 7.2817,9.4152 C7.4197,9.4672 7.5457,9.4962 7.6607,9.5042 L7.7487,6.2592 Z" id="Fill-31" fill="#627381"></path>
                                            <path d="M17.1921,51.4877 L19.6331,49.2427 L20.6971,49.3257 L18.1241,51.5957 L20.8081,54.7397 L19.7131,54.6527 L17.1881,51.6147 L17.1071,54.4457 L16.4001,54.3887 L16.6491,45.6817 L17.3571,45.7367 L17.1921,51.4877 Z M12.8871,45.8077 C13.4291,45.8497 13.8651,46.0177 14.1921,46.3127 C14.5211,46.6077 14.7721,46.9697 14.9451,47.3987 C15.1201,47.8287 15.2321,48.2927 15.2821,48.7937 C15.3321,49.2937 15.3511,49.7697 15.3381,50.2227 C15.3251,50.6757 15.2791,51.1467 15.2011,51.6367 C15.1231,52.1267 14.9851,52.5707 14.7881,52.9697 C14.5901,53.3697 14.3201,53.6897 13.9781,53.9317 C13.6351,54.1737 13.1931,54.2727 12.6511,54.2297 C12.1091,54.1867 11.6751,54.0177 11.3481,53.7227 C11.0211,53.4277 10.7711,53.0667 10.5971,52.6387 C10.4231,52.2107 10.3111,51.7467 10.2611,51.2477 C10.2111,50.7487 10.1921,50.2727 10.2041,49.8207 C10.2161,49.3687 10.2621,48.8967 10.3391,48.4077 C10.4171,47.9187 10.5541,47.4727 10.7511,47.0737 C10.9481,46.6737 11.2171,46.3517 11.5601,46.1097 C11.9021,45.8667 12.3451,45.7657 12.8871,45.8077 Z M12.8661,46.5677 C12.4521,46.5367 12.1231,46.6307 11.8771,46.8487 C11.6311,47.0687 11.4431,47.3497 11.3121,47.6937 C11.1811,48.0377 11.0941,48.4067 11.0511,48.8027 C11.0081,49.1997 10.9821,49.5587 10.9731,49.8807 C10.9641,50.2027 10.9701,50.5637 10.9911,50.9657 C11.0121,51.3667 11.0781,51.7477 11.1901,52.1097 C11.3011,52.4717 11.4731,52.7807 11.7051,53.0377 C11.9371,53.2937 12.2591,53.4377 12.6721,53.4707 C13.0861,53.5047 13.4151,53.4117 13.6611,53.1927 C13.9061,52.9737 14.0951,52.6927 14.2261,52.3497 C14.3581,52.0067 14.4441,51.6367 14.4881,51.2407 C14.5311,50.8437 14.5581,50.4847 14.5671,50.1627 C14.5761,49.8407 14.5701,49.4777 14.5491,49.0767 C14.5281,48.6747 14.4631,48.2927 14.3511,47.9297 C14.2391,47.5677 14.0671,47.2577 13.8351,47.0017 C13.6031,46.7447 13.2791,46.5997 12.8661,46.5677 Z M6.0591,48.9207 L6.4531,48.9507 C6.6741,48.9677 6.8861,48.9577 7.0901,48.9207 C7.2941,48.8827 7.4721,48.8097 7.6251,48.7027 C7.7771,48.5957 7.9001,48.4497 7.9951,48.2647 C8.0891,48.0807 8.1401,47.8537 8.1471,47.5857 C8.1591,47.1487 8.0461,46.8007 7.8071,46.5397 C7.5681,46.2787 7.2281,46.1317 6.7871,46.0967 C6.4671,46.0727 6.1841,46.1277 5.9391,46.2617 C5.6931,46.3967 5.4881,46.6037 5.3241,46.8827 L4.6631,46.4627 C4.9011,46.0437 5.2001,45.7427 5.5571,45.5587 C5.9141,45.3757 6.3241,45.3007 6.7861,45.3377 C7.0851,45.3597 7.3651,45.4277 7.6261,45.5407 C7.8861,45.6527 8.1141,45.8057 8.3081,46.0027 C8.5031,46.1977 8.6541,46.4317 8.7651,46.7067 C8.8751,46.9797 8.9251,47.2857 8.9161,47.6227 C8.9101,47.8447 8.8711,48.0527 8.7971,48.2477 C8.7241,48.4407 8.6271,48.6137 8.5051,48.7657 C8.3831,48.9177 8.2431,49.0467 8.0831,49.1527 C7.9231,49.2597 7.7571,49.3377 7.5851,49.3847 L7.6161,49.4107 C7.8281,49.4727 8.0221,49.5747 8.1961,49.7157 C8.3701,49.8547 8.5191,50.0217 8.6421,50.2167 C8.7651,50.4107 8.8591,50.6247 8.9231,50.8597 C8.9881,51.0947 9.0171,51.3397 9.0101,51.5917 C9.0001,51.9667 8.9271,52.2957 8.7911,52.5767 C8.6551,52.8567 8.4741,53.0887 8.2481,53.2697 C8.0231,53.4517 7.7631,53.5817 7.4681,53.6617 C7.1741,53.7427 6.8641,53.7687 6.5371,53.7437 C5.9841,53.6987 5.5041,53.5307 5.1001,53.2377 C4.6951,52.9457 4.3981,52.5047 4.2071,51.9147 L5.0231,51.7147 C5.1411,52.1147 5.3221,52.4187 5.5691,52.6267 C5.8171,52.8337 6.1671,52.9547 6.6221,52.9907 C6.8351,53.0087 7.0381,52.9857 7.2321,52.9247 C7.4261,52.8627 7.5981,52.7677 7.7471,52.6367 C7.8971,52.5077 8.0151,52.3457 8.1031,52.1537 C8.1901,51.9617 8.2361,51.7467 8.2431,51.5087 C8.2521,51.2027 8.2051,50.9397 8.1041,50.7207 C8.0041,50.5017 7.8661,50.3207 7.6921,50.1757 C7.5171,50.0317 7.3161,49.9227 7.0861,49.8457 C6.8571,49.7707 6.6181,49.7227 6.3691,49.7037 L6.0391,49.6777 L6.0591,48.9207 Z" id="Fill-33" fill="#627381"></path>
                                            <path d="M15.9299,95.4799 L18.3529,93.2939 L19.4089,93.3899 L16.8549,95.5979 L19.5199,98.7359 L18.4329,98.6359 L15.9259,95.6049 L15.8459,98.3989 L15.1439,98.3339 L15.3889,89.7429 L16.0929,89.8049 L15.9299,95.4799 Z M11.6539,89.8189 C12.1929,89.8669 12.6249,90.0389 12.9509,90.3339 C13.2769,90.6289 13.5259,90.9899 13.6989,91.4159 C13.8709,91.8409 13.9829,92.3009 14.0329,92.7949 C14.0829,93.2909 14.1009,93.7609 14.0889,94.2079 C14.0759,94.6549 14.0309,95.1189 13.9529,95.6019 C13.8749,96.0839 13.7389,96.5209 13.5429,96.9129 C13.3469,97.3039 13.0789,97.6179 12.7389,97.8509 C12.3979,98.0849 11.9589,98.1779 11.4219,98.1279 C10.8839,98.0799 10.4519,97.9069 10.1279,97.6119 C9.8029,97.3169 9.5539,96.9579 9.3819,96.5319 C9.2089,96.1069 9.0969,95.6479 9.0479,95.1549 C8.9969,94.6619 8.9779,94.1919 8.9909,93.7459 C9.0029,93.2989 9.0479,92.8339 9.1249,92.3529 C9.2019,91.8709 9.3379,91.4329 9.5339,91.0409 C9.7289,90.6489 9.9959,90.3339 10.3369,90.0989 C10.6769,89.8639 11.1159,89.7709 11.6539,89.8189 Z M11.6329,90.5689 C11.2219,90.5319 10.8949,90.6209 10.6519,90.8339 C10.4079,91.0469 10.2209,91.3229 10.0909,91.6609 C9.9609,91.9979 9.8749,92.3619 9.8319,92.7519 C9.7889,93.1429 9.7629,93.4969 9.7549,93.8149 C9.7459,94.1319 9.7519,94.4889 9.7729,94.8849 C9.7939,95.2819 9.8589,95.6589 9.9699,96.0179 C10.0799,96.3759 10.2509,96.6839 10.4809,96.9399 C10.7119,97.1959 11.0319,97.3419 11.4429,97.3799 C11.8529,97.4169 12.1799,97.3309 12.4239,97.1179 C12.6679,96.9049 12.8549,96.6299 12.9849,96.2919 C13.1149,95.9559 13.2019,95.5919 13.2449,95.2019 C13.2879,94.8109 13.3139,94.4569 13.3229,94.1379 C13.3319,93.8199 13.3259,93.4619 13.3049,93.0659 C13.2839,92.6689 13.2189,92.2919 13.1079,91.9319 C12.9969,91.5729 12.8269,91.2649 12.5959,91.0079 C12.3649,90.7519 12.0439,90.6059 11.6329,90.5689 Z M7.8629,97.6659 L3.1019,97.2279 L3.1279,96.2899 L6.1979,93.3099 C6.3139,93.1999 6.4309,93.0819 6.5479,92.9559 C6.6639,92.8299 6.7699,92.6949 6.8669,92.5519 C6.9619,92.4099 7.0409,92.2569 7.1019,92.0959 C7.1629,91.9349 7.1959,91.7629 7.2009,91.5819 C7.2069,91.3629 7.1749,91.1629 7.1059,90.9819 C7.0359,90.8009 6.9359,90.6439 6.8049,90.5109 C6.6739,90.3779 6.5209,90.2709 6.3469,90.1909 C6.1719,90.1109 5.9859,90.0619 5.7879,90.0439 C5.4069,90.0099 5.0789,90.0939 4.8049,90.2969 C4.5299,90.4999 4.3489,90.7909 4.2609,91.1689 L3.4599,91.0059 C3.5809,90.4179 3.8489,89.9729 4.2639,89.6679 C4.6799,89.3649 5.1759,89.2389 5.7549,89.2909 C6.0589,89.3179 6.3459,89.3869 6.6149,89.4989 C6.8849,89.6099 7.1209,89.7619 7.3249,89.9549 C7.5289,90.1479 7.6889,90.3799 7.8049,90.6519 C7.9219,90.9239 7.9749,91.2349 7.9659,91.5829 C7.9569,91.8929 7.9059,92.1719 7.8099,92.4209 C7.7149,92.6699 7.5929,92.9019 7.4459,93.1169 C7.2979,93.3309 7.1319,93.5309 6.9459,93.7189 C6.7609,93.9069 6.5699,94.0899 6.3739,94.2689 L3.9469,96.5569 L7.8829,96.9169 L7.8629,97.6659 Z" id="Fill-35" fill="#627381"></path>
                                            <path d="M14.7087,138.0258 L17.1157,135.8978 L18.1647,136.0048 L15.6277,138.1538 L18.2757,141.2848 L17.1957,141.1718 L14.7057,138.1488 L14.6257,140.9058 L13.9287,140.8338 L14.1707,132.3538 L14.8697,132.4238 L14.7087,138.0258 Z M10.4617,132.3828 C10.9967,132.4368 11.4257,132.6118 11.7497,132.9078 C12.0727,133.2028 12.3207,133.5618 12.4927,133.9848 C12.6637,134.4078 12.7747,134.8628 12.8247,135.3518 C12.8747,135.8398 12.8927,136.3048 12.8797,136.7468 C12.8677,137.1878 12.8227,137.6458 12.7457,138.1218 C12.6687,138.5958 12.5327,139.0268 12.3387,139.4108 C12.1447,139.7958 11.8777,140.1008 11.5407,140.3278 C11.2027,140.5548 10.7667,140.6398 10.2317,140.5858 C9.6977,140.5298 9.2697,140.3538 8.9467,140.0588 C8.6237,139.7628 8.3767,139.4048 8.2057,138.9838 C8.0347,138.5618 7.9237,138.1068 7.8737,137.6198 C7.8237,137.1308 7.8047,136.6678 7.8167,136.2268 C7.8297,135.7868 7.8737,135.3288 7.9497,134.8528 C8.0267,134.3788 8.1617,133.9478 8.3557,133.5628 C8.5497,133.1778 8.8147,132.8718 9.1527,132.6438 C9.4907,132.4158 9.9267,132.3288 10.4617,132.3828 Z M10.4407,133.1238 C10.0327,133.0818 9.7077,133.1648 9.4657,133.3728 C9.2237,133.5808 9.0387,133.8498 8.9097,134.1818 C8.7807,134.5128 8.6947,134.8718 8.6517,135.2558 C8.6097,135.6418 8.5837,135.9908 8.5757,136.3048 C8.5667,136.6188 8.5727,136.9708 8.5937,137.3618 C8.6147,137.7538 8.6797,138.1278 8.7897,138.4828 C8.8997,138.8378 9.0687,139.1438 9.2977,139.3998 C9.5267,139.6548 9.8447,139.8038 10.2527,139.8458 C10.6607,139.8878 10.9847,139.8058 11.2277,139.5988 C11.4697,139.3918 11.6547,139.1228 11.7847,138.7918 C11.9137,138.4608 11.9997,138.1018 12.0417,137.7168 C12.0847,137.3318 12.1107,136.9818 12.1197,136.6688 C12.1287,136.3548 12.1227,136.0018 12.1017,135.6098 C12.0817,135.2168 12.0157,134.8428 11.9057,134.4878 C11.7957,134.1308 11.6257,133.8258 11.3967,133.5698 C11.1677,133.3138 10.8497,133.1648 10.4407,133.1238 Z M5.1197,139.9208 L4.3637,139.8408 L4.5507,132.9278 L3.1817,134.0468 L2.7257,133.3938 L4.6627,131.9288 L5.3357,131.9978 L5.1197,139.9208 Z" id="Fill-37" fill="#627381"></path>
                                            <path d="M3.4655,173.7377 C3.9945,173.7987 4.4205,173.9757 4.7405,174.2707 C5.0615,174.5657 5.3065,174.9237 5.4775,175.3417 C5.6475,175.7597 5.7575,176.2117 5.8075,176.6937 C5.8565,177.1757 5.8755,177.6347 5.8635,178.0697 C5.8515,178.5047 5.8075,178.9557 5.7325,179.4237 C5.6565,179.8907 5.5225,180.3127 5.3305,180.6897 C5.1385,181.0667 4.8755,181.3647 4.5405,181.5847 C4.2065,181.8037 3.7755,181.8837 3.2465,181.8217 C2.7175,181.7607 2.2935,181.5827 1.9735,181.2877 C1.6535,180.9927 1.4085,180.6357 1.2385,180.2177 C1.0685,179.8007 0.9585,179.3507 0.9085,178.8697 C0.8595,178.3877 0.8395,177.9297 0.8515,177.4957 C0.8625,177.0617 0.9065,176.6107 0.9815,176.1427 C1.0565,175.6747 1.1905,175.2537 1.3825,174.8767 C1.5735,174.4997 1.8365,174.1997 2.1705,173.9787 C2.5045,173.7587 2.9365,173.6777 3.4655,173.7377 M3.4455,174.4667 C3.0415,174.4227 2.7195,174.4997 2.4805,174.7017 C2.2415,174.9037 2.0575,175.1677 1.9305,175.4927 C1.8035,175.8177 1.7185,176.1707 1.6765,176.5497 C1.6355,176.9287 1.6105,177.2727 1.6025,177.5817 C1.5935,177.8907 1.6005,178.2387 1.6215,178.6247 C1.6425,179.0107 1.7075,179.3807 1.8165,179.7317 C1.9255,180.0837 2.0935,180.3867 2.3205,180.6417 C2.5475,180.8967 2.8625,181.0477 3.2655,181.0937 C3.6695,181.1407 3.9905,181.0627 4.2305,180.8617 C4.4695,180.6607 4.6535,180.3977 4.7815,180.0727 C4.9085,179.7477 4.9935,179.3957 5.0355,179.0157 C5.0775,178.6367 5.1025,178.2927 5.1115,177.9837 C5.1195,177.6747 5.1125,177.3257 5.0925,176.9387 C5.0715,176.5517 5.0065,176.1827 4.8975,175.8307 C4.7875,175.4777 4.6195,175.1747 4.3925,174.9197 C4.1655,174.6637 3.8495,174.5127 3.4455,174.4667" id="Fill-39" fill="#627381"></path>
                                        </g>
                                        <polyline id="Stroke-42" stroke="#8B6CAF" stroke-width="2" fill="none" stroke-linecap="round" stroke-linejoin="round" points="61.2068 352.9594 82.2968 347.6144 103.8988 337.0914 129.9158 237.8094 147.4508 329.3124 169.8448 322.1414 191.4868 334.1824 212.5928 358.5254 238.1938 313.6304 258.1878 361.8324 283.9568 327.3514"></polyline>
                                        <polyline id="Stroke-44" stroke="#4AC1BE" stroke-width="2" fill="none" stroke-linecap="round" stroke-linejoin="round" points="62.9778 303.9702 83.3738 320.2642 104.4798 323.4902 124.6788 351.6692 146.8228 342.0172 168.6548 344.7032 190.3138 355.0482 215.7828 305.0982 236.0448 347.6032 258.7168 353.9092 281.1118 367.7452"></polyline>
                                        <path d="M258.8498,350.8852 C260.4848,351.0652 261.7138,352.6392 261.5958,354.3992 C261.4778,356.1582 260.0568,357.4362 258.4238,357.2532 C256.7918,357.0712 255.5658,355.4992 255.6818,353.7422 C255.7988,351.9852 257.2158,350.7052 258.8498,350.8852" id="Fill-46" stroke="none" fill="#4AC1BE" fill-rule="evenodd"></path>
                                        <path d="M258.8498,350.8852 C260.4848,351.0652 261.7138,352.6392 261.5958,354.3992 C261.4778,356.1582 260.0568,357.4362 258.4238,357.2532 C256.7918,357.0712 255.5658,355.4992 255.6818,353.7422 C255.7988,351.9852 257.2158,350.7052 258.8498,350.8852 Z" id="Stroke-48" stroke="#FEFEFE" stroke-width="1" fill="none"></path>
                                        <path d="M236.3654,343.8471 C237.9814,344.0231 239.2024,345.5871 239.0914,347.3401 C238.9794,349.0921 237.5794,350.3671 235.9644,350.1881 C234.3504,350.0091 233.1334,348.4481 233.2434,346.6991 C233.3524,344.9481 234.7504,343.6701 236.3654,343.8471" id="Fill-50" stroke="none" fill="#4AC1BE" fill-rule="evenodd"></path>
                                        <path d="M236.3654,343.8471 C237.9814,344.0231 239.2024,345.5871 239.0914,347.3401 C238.9794,349.0921 237.5794,350.3671 235.9644,350.1881 C234.3504,350.0091 233.1334,348.4481 233.2434,346.6991 C233.3524,344.9481 234.7504,343.6701 236.3654,343.8471 Z" id="Stroke-52" stroke="#FEFEFE" stroke-width="1" fill="none"></path>
                                        <path d="M217.0119,302.4653 C218.6199,302.6233 219.8389,304.1843 219.7329,305.9483 C219.6269,307.7123 218.2369,309.0103 216.6299,308.8493 C215.0249,308.6893 213.8089,307.1313 213.9129,305.3693 C214.0179,303.6083 215.4049,302.3073 217.0119,302.4653" id="Fill-54" stroke="none" fill="#4AC1BE" fill-rule="evenodd"></path>
                                        <path d="M217.0119,302.4653 C218.6199,302.6233 219.8389,304.1843 219.7329,305.9483 C219.6269,307.7123 218.2369,309.0103 216.6299,308.8493 C215.0249,308.6893 213.8089,307.1313 213.9129,305.3693 C214.0179,303.6083 215.4049,302.3073 217.0119,302.4653 Z" id="Stroke-56" stroke="#FEFEFE" stroke-width="1" fill="none"></path>
                                        <path d="M191.385,350.6577 C193.109,350.8507 194.427,352.4087 194.329,354.1367 C194.231,355.8627 192.754,357.1027 191.032,356.9067 C189.313,356.7117 187.997,355.1557 188.093,353.4317 C188.19,351.7077 189.662,350.4647 191.385,350.6577" id="Fill-58" stroke="none" fill="#4AC1BE" fill-rule="evenodd"></path>
                                        <path d="M191.385,350.6577 C193.109,350.8507 194.427,352.4087 194.329,354.1367 C194.231,355.8627 192.754,357.1027 191.032,356.9067 C189.313,356.7117 187.997,355.1557 188.093,353.4317 C188.19,351.7077 189.662,350.4647 191.385,350.6577 Z" id="Stroke-60" stroke="#FEFEFE" stroke-width="1" fill="none"></path>
                                        <path d="M171.3791,342.1489 C173.0861,342.3369 174.3961,343.8869 174.3031,345.6089 C174.2111,347.3309 172.7531,348.5699 171.0481,348.3779 C169.3441,348.1879 168.0381,346.6409 168.1291,344.9219 C168.2191,343.2029 169.6741,341.9609 171.3791,342.1489" id="Fill-62" stroke="none" fill="#4AC1BE" fill-rule="evenodd"></path>
                                        <path d="M171.3791,342.1489 C173.0861,342.3369 174.3961,343.8869 174.3031,345.6089 C174.2111,347.3309 172.7531,348.5699 171.0481,348.3779 C169.3441,348.1879 168.0381,346.6409 168.1291,344.9219 C168.2191,343.2029 169.6741,341.9609 171.3791,342.1489 Z" id="Stroke-64" stroke="#FEFEFE" stroke-width="1" fill="none"></path>
                                        <path d="M148.0818,338.687 C149.7678,338.873 151.0658,340.413 150.9798,342.125 C150.8948,343.836 149.4588,345.071 147.7748,344.882 C146.0928,344.694 144.7978,343.157 144.8818,341.448 C144.9648,339.738 146.3978,338.501 148.0818,338.687" id="Fill-66" stroke="none" fill="#4AC1BE" fill-rule="evenodd"></path>
                                        <path d="M148.0818,338.687 C149.7678,338.873 151.0658,340.413 150.9798,342.125 C150.8948,343.836 149.4588,345.071 147.7748,344.882 C146.0928,344.694 144.7978,343.157 144.8818,341.448 C144.9648,339.738 146.3978,338.501 148.0818,338.687 Z" id="Stroke-68" stroke="#FEFEFE" stroke-width="1" fill="none"></path>
                                        <path d="M126.0798,347.7563 C127.7438,347.9443 129.0278,349.4743 128.9488,351.1713 C128.8698,352.8673 127.4578,354.0873 125.7968,353.8963 C124.1368,353.7053 122.8548,352.1783 122.9328,350.4853 C123.0098,348.7903 124.4178,347.5683 126.0798,347.7563" id="Fill-70" stroke="none" fill="#4AC1BE" fill-rule="evenodd"></path>
                                        <path d="M126.0798,347.7563 C127.7438,347.9443 129.0278,349.4743 128.9488,351.1713 C128.8698,352.8673 127.4578,354.0873 125.7968,353.8963 C124.1368,353.7053 122.8548,352.1783 122.9328,350.4853 C123.0098,348.7903 124.4178,347.5683 126.0798,347.7563 Z" id="Stroke-72" stroke="#FEFEFE" stroke-width="1" fill="none"></path>
                                        <path d="M105.1628,320.729 C106.8128,320.905 108.0928,322.427 108.0188,324.127 C107.9458,325.828 106.5488,327.06 104.8998,326.881 C103.2528,326.704 101.9768,325.184 102.0488,323.487 C102.1208,321.789 103.5148,320.554 105.1628,320.729" id="Fill-74" stroke="none" fill="#4AC1BE" fill-rule="evenodd"></path>
                                        <path d="M105.1628,320.729 C106.8128,320.905 108.0928,322.427 108.0188,324.127 C107.9458,325.828 106.5488,327.06 104.8998,326.881 C103.2528,326.704 101.9768,325.184 102.0488,323.487 C102.1208,321.789 103.5148,320.554 105.1628,320.729 Z" id="Stroke-76" stroke="#FEFEFE" stroke-width="1" fill="none"></path>
                                        <path d="M83.4372,316.6577 C85.0682,316.8307 86.3372,318.3437 86.2702,320.0357 C86.2022,321.7267 84.8262,322.9547 83.1962,322.7787 C81.5682,322.6037 80.3032,321.0937 80.3692,319.4047 C80.4342,317.7157 81.8082,316.4847 83.4372,316.6577" id="Fill-78" stroke="none" fill="#4AC1BE" fill-rule="evenodd"></path>
                                        <path d="M83.4372,316.6577 C85.0682,316.8307 86.3372,318.3437 86.2702,320.0357 C86.2022,321.7267 84.8262,322.9547 83.1962,322.7787 C81.5682,322.6037 80.3032,321.0937 80.3692,319.4047 C80.4342,317.7157 81.8082,316.4847 83.4372,316.6577 Z" id="Stroke-80" stroke="#FEFEFE" stroke-width="1" fill="none"></path>
                                        <path d="M62.4284,299.5424 C64.0444,299.7064 65.3054,301.2114 65.2434,302.9014 C65.1814,304.5914 63.8224,305.8244 62.2084,305.6574 C60.5954,305.4904 59.3384,303.9874 59.3984,302.3014 C59.4584,300.6134 60.8144,299.3774 62.4284,299.5424" id="Fill-82" stroke="none" fill="#4AC1BE" fill-rule="evenodd"></path>
                                        <path d="M62.4284,299.5424 C64.0444,299.7064 65.3054,301.2114 65.2434,302.9014 C65.1814,304.5914 63.8224,305.8244 62.2084,305.6574 C60.5954,305.4904 59.3384,303.9874 59.3984,302.3014 C59.4584,300.6134 60.8144,299.3774 62.4284,299.5424 Z" id="Stroke-84" stroke="#FEFEFE" stroke-width="1" fill="none"></path>
                                        <path d="M258.3635,358.1616 C259.9965,358.3456 261.2245,359.9176 261.1065,361.6746 C260.9885,363.4296 259.5695,364.7006 257.9385,364.5156 C256.3095,364.3306 255.0845,362.7606 255.2005,361.0076 C255.3165,359.2536 256.7325,357.9786 258.3635,358.1616" id="Fill-86" stroke="none" fill="#8B6CAF" fill-rule="evenodd"></path>
                                        <path d="M258.3635,358.1616 C259.9965,358.3456 261.2245,359.9176 261.1065,361.6746 C260.9885,363.4296 259.5695,364.7006 257.9385,364.5156 C256.3095,364.3306 255.0845,362.7606 255.2005,361.0076 C255.3165,359.2536 256.7325,357.9786 258.3635,358.1616 Z" id="Stroke-88" stroke="#FEFEFE" stroke-width="1" fill="none"></path>
                                        <path d="M239.2844,311.1206 C240.9104,311.2826 242.1384,312.8516 242.0254,314.6226 C241.9124,316.3926 240.5034,317.6926 238.8784,317.5276 C237.2554,317.3616 236.0304,315.7966 236.1414,314.0286 C236.2534,312.2606 237.6594,310.9576 239.2844,311.1206" id="Fill-90" stroke="none" fill="#8B6CAF" fill-rule="evenodd"></path>
                                        <path d="M239.2844,311.1206 C240.9104,311.2826 242.1384,312.8516 242.0254,314.6226 C241.9124,316.3926 240.5034,317.6926 238.8784,317.5276 C237.2554,317.3616 236.0304,315.7966 236.1414,314.0286 C236.2534,312.2606 237.6594,310.9576 239.2844,311.1206 Z" id="Stroke-92" stroke="#FEFEFE" stroke-width="1" fill="none"></path>
                                        <path d="M211.4406,353.8081 C213.0336,353.9881 214.2406,355.5401 214.1366,357.2761 C214.0326,359.0101 212.6576,360.2691 211.0666,360.0871 C209.4776,359.9071 208.2726,358.3561 208.3756,356.6241 C208.4776,354.8911 209.8486,353.6301 211.4406,353.8081" id="Fill-94" stroke="none" fill="#8B6CAF" fill-rule="evenodd"></path>
                                        <path d="M211.4406,353.8081 C213.0336,353.9881 214.2406,355.5401 214.1366,357.2761 C214.0326,359.0101 212.6576,360.2691 211.0666,360.0871 C209.4776,359.9071 208.2726,358.3561 208.3756,356.6241 C208.4776,354.8911 209.8486,353.6301 211.4406,353.8081 Z" id="Stroke-96" stroke="#FEFEFE" stroke-width="1" fill="none"></path>
                                        <path d="M192.4445,331.8354 C194.1735,332.0214 195.4975,333.5794 195.3985,335.3174 C195.2995,337.0544 193.8185,338.3094 192.0905,338.1214 C190.3655,337.9344 189.0465,336.3774 189.1425,334.6434 C189.2395,332.9074 190.7165,331.6504 192.4445,331.8354" id="Fill-98" stroke="none" fill="#8B6CAF" fill-rule="evenodd"></path>
                                        <path d="M192.4445,331.8354 C194.1735,332.0214 195.4975,333.5794 195.3985,335.3174 C195.2995,337.0544 193.8185,338.3094 192.0905,338.1214 C190.3655,337.9344 189.0465,336.3774 189.1425,334.6434 C189.2395,332.9074 190.7165,331.6504 192.4445,331.8354 Z" id="Stroke-100" stroke="#FEFEFE" stroke-width="1" fill="none"></path>
                                        <path d="M171.0871,319.6459 C172.7991,319.8249 174.1131,321.3749 174.0211,323.1089 C173.9281,324.8409 172.4661,326.0979 170.7551,325.9169 C169.0471,325.7359 167.7361,324.1869 167.8271,322.4579 C167.9181,320.7259 169.3771,319.4669 171.0871,319.6459" id="Fill-102" stroke="none" fill="#8B6CAF" fill-rule="evenodd"></path>
                                        <path d="M171.0871,319.6459 C172.7991,319.8249 174.1131,321.3749 174.0211,323.1089 C173.9281,324.8409 172.4661,326.0979 170.7551,325.9169 C169.0471,325.7359 167.7361,324.1869 167.8271,322.4579 C167.9181,320.7259 169.3771,319.4669 171.0871,319.6459 Z" id="Stroke-104" stroke="#FEFEFE" stroke-width="1" fill="none"></path>
                                        <path d="M148.8293,323.5913 C150.5193,323.7713 151.8213,325.3123 151.7353,327.0323 C151.6483,328.7523 150.2093,329.9973 148.5213,329.8163 C146.8343,329.6343 145.5363,328.0963 145.6203,326.3783 C145.7043,324.6603 147.1413,323.4123 148.8293,323.5913" id="Fill-106" stroke="none" fill="#8B6CAF" fill-rule="evenodd"></path>
                                        <path d="M148.8293,323.5913 C150.5193,323.7713 151.8213,325.3123 151.7353,327.0323 C151.6483,328.7523 150.2093,329.9973 148.5213,329.8163 C146.8343,329.6343 145.5363,328.0963 145.6203,326.3783 C145.7043,324.6603 147.1413,323.4123 148.8293,323.5913 Z" id="Stroke-108" stroke="#FEFEFE" stroke-width="1" fill="none"></path>
                                        <path d="M130.2766,237.853 C131.9696,237.995 133.2766,239.533 133.1956,241.288 C133.1136,243.041 131.6756,244.346 129.9846,244.203 C128.2946,244.059 126.9906,242.523 127.0706,240.772 C127.1506,239.019 128.5856,237.712 130.2766,237.853" id="Fill-110" stroke="none" fill="#8B6CAF" fill-rule="evenodd"></path>
                                        <path d="M130.2766,237.853 C131.9696,237.995 133.2766,239.533 133.1956,241.288 C133.1136,243.041 131.6756,244.346 129.9846,244.203 C128.2946,244.059 126.9906,242.523 127.0706,240.772 C127.1506,239.019 128.5856,237.712 130.2766,237.853 Z" id="Stroke-112" stroke="#FEFEFE" stroke-width="1" fill="none"></path>
                                        <path d="M104.675,332.1459 C106.322,332.3269 107.599,333.8469 107.526,335.5419 C107.452,337.2359 106.058,338.4589 104.413,338.2769 C102.769,338.0929 101.495,336.5749 101.567,334.8829 C101.638,333.1919 103.029,331.9649 104.675,332.1459" id="Fill-114" stroke="none" fill="#8B6CAF" fill-rule="evenodd"></path>
                                        <path d="M104.675,332.1459 C106.322,332.3269 107.599,333.8469 107.526,335.5419 C107.452,337.2359 106.058,338.4589 104.413,338.2769 C102.769,338.0929 101.495,336.5749 101.567,334.8829 C101.638,333.1919 103.029,331.9649 104.675,332.1459 Z" id="Stroke-116" stroke="#FEFEFE" stroke-width="1" fill="none"></path>
                                        <path d="M83.1784,342.8979 C84.8034,343.0829 86.0664,344.5929 85.9994,346.2719 C85.9324,347.9499 84.5614,349.1579 82.9384,348.9709 C81.3164,348.7849 80.0564,347.2769 80.1214,345.6009 C80.1874,343.9249 81.5544,342.7139 83.1784,342.8979" id="Fill-118" stroke="none" fill="#8B6CAF" fill-rule="evenodd"></path>
                                        <path d="M83.1784,342.8979 C84.8034,343.0829 86.0664,344.5929 85.9994,346.2719 C85.9324,347.9499 84.5614,349.1579 82.9384,348.9709 C81.3164,348.7849 80.0564,347.2769 80.1214,345.6009 C80.1874,343.9249 81.5544,342.7139 83.1784,342.8979 Z" id="Stroke-120" stroke="#FEFEFE" stroke-width="1" fill="none"></path>
                                        <path d="M60.615,349.8657 C62.217,350.0517 63.468,351.5527 63.407,353.2167 C63.346,354.8797 61.999,356.0747 60.398,355.8867 C58.799,355.6987 57.551,354.2007 57.61,352.5397 C57.669,350.8777 59.014,349.6797 60.615,349.8657" id="Fill-122" stroke="none" fill="#8B6CAF" fill-rule="evenodd"></path>
                                        <path d="M60.615,349.8657 C62.217,350.0517 63.468,351.5527 63.407,353.2167 C63.346,354.8797 61.999,356.0747 60.398,355.8867 C58.799,355.6987 57.551,354.2007 57.61,352.5397 C57.669,350.8777 59.014,349.6797 60.615,349.8657 Z" id="Stroke-124" stroke="#FEFEFE" stroke-width="1" fill="none"></path>
                                        <polyline id="Stroke-146" stroke="#FEFEFE" stroke-width="1.6" fill="none" stroke-linecap="round" stroke-linejoin="round" points="35.3659 129.518 36.4669 130.786 38.7609 128.498"></polyline>
                                    </g>
                                </g>
                                <mask id="mask-12" fill="white">
                                    <use xlink:href="#path-11"></use>
                                </mask>
                                <use id="Mask" fill="url(#linearGradient-10)" xlink:href="#path-11"></use>
                            </g>
                        </g>
                    </g>
                </g>
            </g>
        </g>
    </g>
</svg>