<?xml version="1.0" encoding="UTF-8"?>
<svg width="492px" height="685px" viewBox="0 0 492 685" version="1.1" xmlns="http://www.w3.org/2000/svg" xmlns:xlink="http://www.w3.org/1999/xlink">
    <!-- Generator: Sketch 51.3 (57544) - http://www.bohemiancoding.com/sketch -->
    <title>Group 15</title>
    <desc>Created with Sketch.</desc>
    <defs>
        <polygon id="path-1" points="9.69772565 22.9905919 9.69772565 527.179871 303.751522 516.117958 303.751522 36.8991573"></polygon>
        <filter x="-65.6%" y="-47.2%" width="255.8%" height="190.8%" filterUnits="objectBoundingBox" id="filter-2">
            <feOffset dx="0" dy="0" in="SourceAlpha" result="shadowOffsetOuter1"></feOffset>
            <feGaussianBlur stdDeviation="21" in="shadowOffsetOuter1" result="shadowBlurOuter1"></feGaussianBlur>
            <feColorMatrix values="0 0 0 0 0.0470588235   0 0 0 0 0.121568627   0 0 0 0 0.192156863  0 0 0 0.143229167 0" type="matrix" in="shadowBlurOuter1" result="shadowMatrixOuter1"></feColorMatrix>
            <feOffset dx="0" dy="-11" in="SourceAlpha" result="shadowOffsetOuter2"></feOffset>
            <feGaussianBlur stdDeviation="14" in="shadowOffsetOuter2" result="shadowBlurOuter2"></feGaussianBlur>
            <feColorMatrix values="0 0 0 0 0.203921569   0 0 0 0 0.28627451   0 0 0 0 0.368627451  0 0 0 0.0642266757 0" type="matrix" in="shadowBlurOuter2" result="shadowMatrixOuter2"></feColorMatrix>
            <feOffset dx="36" dy="2" in="SourceAlpha" result="shadowOffsetOuter3"></feOffset>
            <feGaussianBlur stdDeviation="47" in="shadowOffsetOuter3" result="shadowBlurOuter3"></feGaussianBlur>
            <feColorMatrix values="0 0 0 0 0   0 0 0 0 0   0 0 0 0 0  0 0 0 0.0987884964 0" type="matrix" in="shadowBlurOuter3" result="shadowMatrixOuter3"></feColorMatrix>
            <feMerge>
                <feMergeNode in="shadowMatrixOuter1"></feMergeNode>
                <feMergeNode in="shadowMatrixOuter2"></feMergeNode>
                <feMergeNode in="shadowMatrixOuter3"></feMergeNode>
            </feMerge>
        </filter>
        <path d="M0.616359949,15.2847726 L21.189544,483.812889 C21.5166168,491.261556 27.8200993,497.034749 35.2687663,496.707676 C35.4680024,496.698927 35.6670203,496.685765 35.8656733,496.668199 L330.590989,470.60652 C335.447073,470.177111 339.078439,465.959352 338.781532,461.093369 L311.166312,8.51055539 C310.875718,3.74804598 306.918926,0.0399787129 302.147596,0.0587578379 L14.0502313,1.19265901 C6.59444462,1.22200369 0.574123879,7.28990156 0.60346856,14.7456882 C0.604176075,14.9254509 0.608474062,15.1051816 0.616359949,15.2847726 Z" id="path-3"></path>
        <polygon id="path-5" points="0 1.24777821 316.987226 -9.00337831e-05 319.927487 47.9185907 2.22400723 51.8971836"></polygon>
        <filter x="-4.5%" y="-18.3%" width="109.1%" height="155.9%" filterUnits="objectBoundingBox" id="filter-6">
            <feOffset dx="0" dy="5" in="SourceAlpha" result="shadowOffsetOuter1"></feOffset>
            <feGaussianBlur stdDeviation="4" in="shadowOffsetOuter1" result="shadowBlurOuter1"></feGaussianBlur>
            <feColorMatrix values="0 0 0 0 0.740590094   0 0 0 0 0.732620435   0 0 0 0 0.833971088  0 0 0 0.101364357 0" type="matrix" in="shadowBlurOuter1"></feColorMatrix>
        </filter>
        <path d="M0.313707095,17.5042778 L17.8935687,410.484491 C18.1157033,415.450088 22.3211906,419.295423 27.2867875,419.073289 C27.4418527,419.066352 27.5967124,419.055405 27.7512113,419.040458 L308.923931,391.839182 L285.582038,5.14312339 C285.435866,2.72153775 283.396417,0.851709731 280.971272,0.915832595 L9.06683123,8.10521153 C4.09800488,8.23659142 0.176479698,12.3711255 0.307859588,17.3399518 C0.309308334,17.3947438 0.311257584,17.4495214 0.313707095,17.5042778 Z" id="path-7"></path>
        <filter x="-3.4%" y="-2.0%" width="106.2%" height="104.5%" filterUnits="objectBoundingBox" id="filter-8">
            <feOffset dx="-1" dy="1" in="SourceAlpha" result="shadowOffsetOuter1"></feOffset>
            <feGaussianBlur stdDeviation="3" in="shadowOffsetOuter1" result="shadowBlurOuter1"></feGaussianBlur>
            <feColorMatrix values="0 0 0 0 0   0 0 0 0 0   0 0 0 0 0  0 0 0 0.0753226902 0" type="matrix" in="shadowBlurOuter1"></feColorMatrix>
        </filter>
        <path d="M21.4119034,38.9753549 C26.7571405,38.791686 31.2927817,43.1394174 31.5499475,48.6890998 C31.8071132,54.2414833 27.6857944,58.9088346 22.3348426,59.1114106 C16.9743661,59.3139867 12.4177705,54.9599529 12.1653671,49.3886623 C11.9120113,43.8200728 16.0561892,39.1599242 21.4119034,38.9753549" id="path-9"></path>
        <filter x="-74.7%" y="-57.1%" width="239.1%" height="234.0%" filterUnits="objectBoundingBox" id="filter-10">
            <feOffset dx="0" dy="0" in="SourceAlpha" result="shadowOffsetOuter1"></feOffset>
            <feGaussianBlur stdDeviation="3.5" in="shadowOffsetOuter1" result="shadowBlurOuter1"></feGaussianBlur>
            <feColorMatrix values="0 0 0 0 0   0 0 0 0 0.149019608   0 0 0 0 0.4  0 0 0 0.05 0" type="matrix" in="shadowBlurOuter1" result="shadowMatrixOuter1"></feColorMatrix>
            <feOffset dx="-1" dy="2" in="SourceAlpha" result="shadowOffsetOuter2"></feOffset>
            <feGaussianBlur stdDeviation="1.5" in="shadowOffsetOuter2" result="shadowBlurOuter2"></feGaussianBlur>
            <feColorMatrix values="0 0 0 0 0   0 0 0 0 0   0 0 0 0 0  0 0 0 0.2 0" type="matrix" in="shadowBlurOuter2" result="shadowMatrixOuter2"></feColorMatrix>
            <feMerge>
                <feMergeNode in="shadowMatrixOuter1"></feMergeNode>
                <feMergeNode in="shadowMatrixOuter2"></feMergeNode>
            </feMerge>
        </filter>
    </defs>
    <g id="Retail-Tower-Page" stroke="none" stroke-width="1" fill="none" fill-rule="evenodd">
        <g id="Retail-tower---4" transform="translate(-129.000000, -1411.000000)">
            <g id="Group-15" transform="translate(182.000000, 1474.000000)">
                <g id="Fill-1" transform="translate(156.724624, 275.085232) rotate(-2.000000) translate(-156.724624, -275.085232) " fill="black" fill-opacity="1">
                    <use filter="url(#filter-2)" xlink:href="#path-1"></use>
                </g>
                <g id="Group-63-+-Group-60-+-Group-62-Mask" transform="translate(36.969773, 0.000000)">
                    <mask id="mask-4" fill="white">
                        <use xlink:href="#path-3"></use>
                    </mask>
                    <use id="Mask" fill="#F6F9FB" xlink:href="#path-3"></use>
                    <g id="Group-63" mask="url(#mask-4)">
                        <g transform="translate(19.049312, 75.628378)">
                            <path d="M63.8626294,3.10913666 C63.6645165,2.83453361 63.4083033,2.63555895 63.0939896,2.51131233 C62.7787235,2.38796605 62.4510753,2.32854375 62.1100927,2.33484611 C61.9072175,2.33844747 61.7129145,2.3654576 61.5262312,2.41587652 C61.339548,2.46719578 61.1728665,2.54642551 61.0252343,2.65536639 C60.8785546,2.76250659 60.7633063,2.90205895 60.6794893,3.07132247 C60.5947198,3.24058598 60.5585262,3.43956064 60.5690033,3.66914679 C60.5861477,4.01397618 60.7137781,4.27597449 60.9528469,4.45334105 C61.1928683,4.63160794 61.4852752,4.78466537 61.8338776,4.91251334 C62.1805751,5.04126166 62.5606089,5.1637076 62.9711216,5.28075152 C63.3835392,5.39779544 63.7645254,5.56435794 64.1159853,5.77773801 C64.4674451,5.99201841 64.7674717,6.27922618 65.0141603,6.63846098 C65.2627539,6.99859611 65.4008614,7.48027686 65.4303878,8.08350321 C65.4561044,8.62910794 65.3827645,9.10808767 65.2094158,9.51864172 C65.0351146,9.92919578 64.7912834,10.2713242 64.4779222,10.5459272 C64.1636085,10.8196299 63.7930994,11.0285083 63.3663948,11.1707617 C62.9396902,11.313015 62.4863166,11.3886434 62.0072264,11.3976468 C61.3986008,11.4084508 60.8071197,11.3139154 60.2346878,11.1140404 C59.662256,10.913265 59.1603066,10.5675353 58.7307446,10.0768512 L59.981332,8.72904544 C60.2099237,9.0612701 60.5013782,9.31696605 60.8566479,9.49793395 C61.2109651,9.67800152 61.5824267,9.76533429 61.9700802,9.75723125 C62.1729554,9.7536299 62.3739256,9.72121774 62.5739434,9.65999476 C62.7739612,9.59877179 62.9539772,9.50963834 63.1149439,9.39169409 C63.2749581,9.27374983 63.401636,9.12519409 63.4940252,8.94512652 C63.5873668,8.76685963 63.6273704,8.56248294 63.6168933,8.33199645 C63.5987964,7.95835625 63.4692611,7.67294916 63.2292398,7.47667551 C62.9892184,7.27950152 62.695859,7.1147397 62.3482091,6.9814897 C62.0005591,6.84914003 61.6205253,6.72399307 61.2090602,6.60604882 C60.797595,6.4890049 60.4156563,6.32604375 60.0641965,6.11626503 C59.7127367,5.90648632 59.41271,5.62378024 59.1641165,5.26904713 C58.9164754,4.91341368 58.7783679,4.43443395 58.7488415,3.83030726 C58.7240774,3.30360963 58.8059894,2.84623801 58.9955301,2.45999307 C59.1841183,2.0728478 59.441284,1.74962652 59.7660748,1.49032922 C60.0899131,1.23103193 60.466137,1.03475828 60.8928416,0.903308953 C61.3204987,0.771859628 61.7595853,0.701633277 62.211054,0.694430574 C62.7272904,0.685427196 63.2301922,0.758354561 63.7226169,0.913212669 C64.2131367,1.06717044 64.6617481,1.32736807 65.0665459,1.69470591 L63.8626294,3.10913666 Z M57.3496695,10.4766012 C56.1714695,11.1707617 54.8342078,11.5317971 53.3359794,11.5597076 C52.5778167,11.574113 51.8758496,11.4597701 51.2291254,11.2166789 C50.5833537,10.974488 50.0204465,10.6242566 49.5394514,10.166885 C49.0594087,9.71041368 48.6736601,9.15670591 48.3841106,8.50846267 C48.0926561,7.86021943 47.928832,7.13724814 47.8907334,6.34044916 C47.8526348,5.52384274 47.9478813,4.78016368 48.1745682,4.10851166 C48.4031599,3.43685963 48.7346179,2.86244409 49.1698947,2.38346436 C49.606124,1.9062853 50.1347424,1.53444578 50.7567025,1.26974645 C51.37771,1.00414679 52.0672951,0.865494764 52.8254578,0.852890034 C53.5740958,0.840285304 54.2808252,0.921315709 54.9456463,1.09778193 C55.6104673,1.2733478 56.2124255,1.59656909 56.7524735,2.06654544 L55.5295077,3.44046098 C55.1999546,3.12894409 54.8075387,2.8912549 54.3513077,2.72649307 C53.8950767,2.56173125 53.4169389,2.48340186 52.9178469,2.49240524 C52.4092303,2.50140861 51.9539517,2.60224645 51.5510588,2.79671943 C51.1481658,2.9911924 50.8062307,3.25589172 50.5271582,3.59171774 C50.2461809,3.92844409 50.035686,4.31829037 49.8947211,4.76305726 C49.7537562,5.20692382 49.6947033,5.68320253 49.7194674,6.19279375 C49.745184,6.73929882 49.8499552,7.24258767 50.033781,7.69995929 C50.2176069,8.15823125 50.4662004,8.55257922 50.7776567,8.88300321 C51.0900654,9.2134272 51.4567647,9.47092382 51.8777545,9.65549307 C52.2977918,9.84006233 52.7635475,9.9273951 53.2712117,9.91749139 C53.7160131,9.91028868 54.1322406,9.85896943 54.5208466,9.76533429 C54.9094526,9.67169916 55.2513877,9.53124645 55.548557,9.34307584 L55.4333086,6.94007416 L53.4236062,6.97608767 L53.3445515,5.33567213 L57.1001235,5.26904713 L57.3496695,10.4766012 Z M37.1002504,1.37778699 L39.4271239,1.33907247 L44.5590087,8.83798632 L44.5866302,8.83708598 L44.2285031,1.25714172 L45.9810398,1.22743057 L46.4629874,11.4291586 L44.2380277,11.4705742 L38.995657,3.72766875 L38.967083,3.72766875 L39.3356872,11.5624086 L37.5783881,11.5948208 L37.1002504,1.37778699 Z M33.1799019,1.44441199 L34.9381534,1.41470084 L35.4153387,11.635336 L33.6570872,11.6677481 L33.1799019,1.44441199 Z M27.3041415,3.19196774 L24.2667286,3.24418733 L24.1905313,1.59656909 L32.0217037,1.46421943 L32.0979009,3.11003699 L29.0662029,3.16225659 L29.463381,11.7460775 L27.7013196,11.77939 L27.3041415,3.19196774 Z M19.2634267,3.33061976 L16.2183941,3.3837397 L16.1421969,1.73342044 L23.9952759,1.60017044 L24.0705207,3.24778868 L21.0302504,3.30000828 L21.4245712,11.896434 L19.656795,11.9297465 L19.2634267,3.33061976 Z M8.56438037,1.86126841 L15.1592523,1.74962652 L15.2344971,3.39994578 L10.4131161,3.4836772 L10.527412,6.00462314 L15.0963896,5.92449307 L15.1716344,7.57571267 L10.6026568,7.65764341 L10.7283823,10.441488 L15.8040716,10.3487532 L15.8802688,11.9999728 L9.02918359,12.1287211 L8.56438037,1.86126841 Z M5.46696217,4.12021605 C5.26599193,3.84291199 5.00596881,3.64123632 4.6849879,3.5169897 C4.36400698,3.3909424 4.03064401,3.3315201 3.6820416,3.33782247 C3.47535656,3.34142382 3.27724371,3.36933429 3.08579812,3.42065355 C2.89530499,3.4719728 2.72576611,3.55300321 2.57432408,3.66194409 C2.42478698,3.77088497 2.30572878,3.91133767 2.2190544,4.08150152 C2.13238003,4.25256571 2.09523387,4.45424139 2.10571099,4.68652855 C2.12095044,5.03495929 2.25048577,5.29875828 2.49431697,5.47882584 C2.7371957,5.65889341 3.03626991,5.81285118 3.39058712,5.94159949 C3.74395186,6.07124814 4.13065291,6.19549476 4.55069024,6.31433936 C4.96882265,6.43228361 5.35742863,6.59974645 5.7155557,6.81582753 C6.07368277,7.03190861 6.37751931,7.3218174 6.62897023,7.68555389 C6.88042115,8.04839003 7.0204336,8.53457247 7.0480551,9.14410118 C7.07186674,9.69510794 6.99566949,10.1785894 6.81660596,10.5936451 C6.63754242,11.0078005 6.38799643,11.3544306 6.06606305,11.6317346 C5.74508213,11.9081383 5.36600082,12.1188174 4.93072403,12.2628715 C4.49449477,12.4069255 4.03254895,12.4834542 3.54298162,12.4924576 C2.9229265,12.504162 2.32001576,12.4087262 1.73615433,12.2061502 C1.15324537,12.0035742 0.642723801,11.6551434 0.205542081,11.1590573 L1.48756081,9.79774645 C1.71900995,10.1326721 2.01522676,10.3910691 2.37621123,10.5738377 C2.73814817,10.7557059 3.11627702,10.8430387 3.51155025,10.835836 C3.71823529,10.8322346 3.92396787,10.7998225 4.12779551,10.7376992 C4.33257562,10.6755758 4.51640148,10.5846417 4.68022557,10.4657971 C4.84500212,10.3469525 4.97358498,10.1965961 5.06978401,10.0156282 C5.16503057,9.8346603 5.20693906,9.62848294 5.19646194,9.39529544 C5.18027002,9.01805389 5.04882976,8.73084611 4.80499856,8.53097111 C4.56116737,8.33199645 4.26209316,8.16633429 3.90777595,8.03218395 C3.55345874,7.89803361 3.1667577,7.77198632 2.74672036,7.65314172 C2.32763548,7.53519747 1.93902951,7.3695353 1.58090244,7.15795591 C1.22277536,6.94637652 0.917986366,6.66096943 0.666535442,6.30263497 C0.415084518,5.94340017 0.275072071,5.45901841 0.248403034,4.8494897 C0.224591393,4.31739003 0.309360834,3.85551672 0.50366382,3.4647701 C0.698919273,3.07402348 0.961799784,2.74810118 1.29325782,2.48610287 C1.62566832,2.22320422 2.00951197,2.0251299 2.44574122,1.8918799 C2.88197048,1.7586299 3.33058178,1.68840355 3.79157514,1.68120084 C4.31733617,1.67219747 4.83071514,1.74512483 5.33171205,1.90178361 C5.83270897,2.05754206 6.28798754,2.32134105 6.69945269,2.6913799 L5.46696217,4.12021605 Z" id="Fill-71" fill="#35495E"></path>
                            <path d="M51.7089776,25.760016 L27.2953788,26.27681 C25.1189948,26.3227272 23.4369405,28.1855262 23.5407593,30.4381715 C23.6445781,32.6917171 25.4952188,34.4788877 27.6725552,34.4302694 L52.0947262,33.8792627 C54.2530133,33.8306444 55.9141133,31.9741478 55.8074371,29.7332069 C55.6998085,27.4931664 53.8663122,25.7140988 51.7089776,25.760016" id="Fill-73" fill="#5B85C3"></path>
                            <path d="M150.76445,24.5514926 L75.9635146,26.1459909 C73.8223719,26.1910078 72.1736539,28.0394014 72.2831875,30.2731395 C72.3917685,32.507778 74.2166927,34.2805432 76.3587879,34.231925 L151.187344,32.5320872 C153.272292,32.4852696 154.867672,30.6611851 154.750518,28.4580584 C154.633365,26.2558321 152.848444,24.507376 150.76445,24.5514926" id="Fill-75" fill="#EDEDEE"></path>
                            <path d="M62.9353089,28.1124188 C62.7591027,27.9395539 62.7476731,27.6541468 62.9095923,27.4758799 C63.0715115,27.297613 63.3448691,27.2940117 63.5210752,27.4677769 L66.2632237,30.1696907 L63.7782409,32.9067177 C63.6163218,33.0849846 63.3429642,33.088586 63.166758,32.9148208 C62.9905519,32.7419559 62.9781698,32.4565488 63.140089,32.2782819 L65.0402579,30.1858968 L62.9353089,28.1124188 Z" id="Fill-79" fill="#798897"></path>
                            <path d="M6.33103898,30.6270623 L14.558437,30.4478951 C15.0441945,30.437091 15.4566121,30.83414 15.4794713,31.3365285 C15.5023304,31.8380167 15.127059,32.2530725 14.6413015,32.2638765 L6.36437528,32.4466451 L8.49885074,34.4733056 C8.8626926,34.818135 8.89221904,35.3934508 8.56742826,35.7598883 C8.24168502,36.1254255 7.68354016,36.1425319 7.32065076,35.7977025 L2.97169274,31.6705539 L6.92537753,27.239091 C7.25016831,26.8744542 7.80831316,26.8573478 8.17120256,27.2021772 C8.53409196,27.5470066 8.56457086,28.1223225 8.23882762,28.4869593 L6.33103898,30.6270623 Z" id="Fill-83" fill="#4F67AF"></path>
                        </g>
                    </g>
                    <g id="Group-60" mask="url(#mask-4)">
                        <g id="Fill-85">
                            <use fill="black" fill-opacity="1" filter="url(#filter-6)" xlink:href="#path-5"></use>
                            <use fill="#FFFFFF" fill-rule="evenodd" xlink:href="#path-5"></use>
                        </g>
                        <path d="M20.0390194,35.3665307 C19.553262,35.3710324 19.1408444,34.9712824 19.1189377,34.4724953 C19.0960785,33.9746084 19.4723024,33.5658551 19.9580599,33.5622537 L40.9942156,33.3632791 C41.4771156,33.3587774 41.8857234,33.757627 41.9085826,34.2537132 C41.9323942,34.7497993 41.5599802,35.156752 41.0770801,35.1612537 L20.0390194,35.3665307 Z M19.6332691,26.3460459 C19.1475116,26.3496473 18.7360465,25.9498973 18.7131873,25.4511101 C18.6912806,24.9541236 19.066552,24.5462706 19.5523095,24.5435696 L32.712527,24.4391304 C33.1954271,24.4346287 33.6059398,24.8343787 33.6287989,25.3313652 C33.6516581,25.8283517 33.2782916,26.2335037 32.794439,26.2380054 L19.6332691,26.3460459 Z M19.2284712,17.3345645 C18.7436662,17.3381659 18.3322011,16.9366152 18.3093419,16.4396287 C18.2874352,15.9417419 18.6627066,15.5365899 19.1475116,15.5329885 L40.166523,15.3988382 C40.6484706,15.3961372 41.0570783,15.7949868 41.0808899,16.291073 C41.1037491,16.7862588 40.7313351,17.1905105 40.2493875,17.1941118 L19.2284712,17.3345645 Z" id="Fill-88" fill="#35495E"></path>
                        <path d="M116.684944,12.2923125 L192.175464,11.8448446 C199.024645,11.8043294 204.888023,17.6286149 205.287106,24.8583277 C205.686189,32.0943429 200.462868,38.0221672 193.605115,38.0941943 L118.023158,38.8900929 C110.965388,38.9648209 104.934376,33.0505017 104.569581,25.6866385 C104.203835,18.3290777 109.635746,12.333728 116.684944,12.2923125" id="Fill-90" fill="#5B85C3"></path>
                        <path d="M185.146268,27.5251284 L126.334373,28.0347196 C125.199034,28.0446233 124.228472,27.0902652 124.168466,25.9036199 C124.107509,24.7169747 124.98092,23.7473108 126.116259,23.7383074 L184.916724,23.2728328 C186.030156,23.2647297 186.982622,24.2082838 187.046437,25.3823243 C187.110252,26.5554645 186.2597,27.5152247 185.146268,27.5251284" id="Fill-92" fill="#FEFEFE"></path>
                        <path d="M265.717906,11.3721672 C272.392786,11.3325524 278.133296,17.0821098 278.556191,24.2190878 C278.979085,31.3614679 273.915778,37.2118632 267.234232,37.2820895 C260.536494,37.3523159 254.756932,31.5910541 254.34261,24.4180625 C253.928287,17.250473 259.027788,11.4117821 265.717906,11.3721672" id="Fill-94" fill="#798897"></path>
                        <polygon id="Fill-96" fill="#FAFCFE" points="262.32389 20.1056243 264.49456 20.0894182 266.9824 26.0694622 268.787322 20.0579064 270.931322 20.0417003 271.433272 28.5949098 270.079818 28.6075145 269.662638 21.501148 269.639779 21.501148 267.628172 28.6291226 266.633797 28.638126 263.78783 21.5470652 263.765923 21.5470652 264.180246 28.6597341 262.822982 28.6723389"></polygon>
                        <path d="M226.731012,11.6030139 C233.49828,11.563399 239.304511,17.3516709 239.714071,24.5381676 C240.124584,31.7291659 234.976507,37.6209767 228.201619,37.6930037 C221.410539,37.7641304 215.56621,31.9623534 215.16427,24.7398432 C214.763282,17.5218348 219.948505,11.6426287 226.731012,11.6030139" id="Fill-98" fill="#EFEFF0"></path>
                        <g id="Group-28" transform="translate(233.354077, 13.505068)">
                            <path d="M5.35057087,0.896286318 C8.34036046,0.86207348 10.9358293,3.31459375 11.1510865,6.37394172 C11.3653913,9.43689105 9.11376254,11.9506343 6.12111556,11.9875481 C3.12561118,12.024462 0.526332502,9.56744003 0.314885134,6.50269003 C0.104390232,3.43884037 2.35982882,0.930499155 5.35057087,0.896286318" id="Fill-140" fill="#E52E4D"></path>
                            <path d="M5.33847456,5.98616622 C5.64802589,5.98256486 5.86233065,5.90153446 5.97948392,5.74217466 C6.09663719,5.58281486 6.14616541,5.36133176 6.12521116,5.07772534 C6.10806678,4.81302601 6.02234488,4.59964595 5.87185531,4.43938581 C5.71946081,4.27912568 5.50706097,4.19989595 5.23275088,4.2034973 C4.9632031,4.20619831 4.74794587,4.29353108 4.58507425,4.46549561 C4.42125017,4.6365598 4.34886278,4.84993986 4.36600716,5.10473547 L3.70309109,5.11283851 L3.6916615,5.09123041 C3.65165794,4.69688243 3.77357354,4.35835541 4.05836076,4.07564932 C4.34219552,3.79294324 4.72127684,3.64888919 5.19369978,3.64348716 C5.67088506,3.63808514 6.05282377,3.75692973 6.34046839,4.00002095 C6.62811301,4.2440125 6.78717477,4.60504797 6.82146353,5.0840277 C6.83860791,5.32981993 6.79098463,5.55400405 6.67954615,5.75748041 C6.56715521,5.96095676 6.40237866,6.12031655 6.1852165,6.23646014 C6.4509544,6.33909865 6.65954438,6.49755811 6.80908148,6.71183851 C6.95957105,6.92521858 7.04529295,7.18541622 7.0662472,7.49063074 C7.10053596,7.97231149 6.97766789,8.35135372 6.69954793,8.62865777 C6.4204755,8.90506149 6.04329912,9.04641453 5.56801877,9.05181655 C5.13083705,9.05721858 4.73651629,8.93027095 4.38505647,8.67007331 C4.03454912,8.41077601 3.84977079,8.06414595 3.83167395,7.63018311 L3.83643627,7.608575 L4.50030481,7.60047196 C4.51840166,7.85616791 4.62222041,8.06954797 4.81461847,8.24241284 C5.00606406,8.41437736 5.24513293,8.49990946 5.52992015,8.49630811 C5.81184997,8.49270676 6.02805967,8.39997196 6.17854924,8.21900405 C6.32808634,8.03713581 6.39190154,7.80214764 6.37285222,7.51313919 C6.34999305,7.18361554 6.25760388,6.93782331 6.09758966,6.7757625 C5.93662297,6.61370169 5.69660163,6.53447196 5.37657318,6.53897365 L4.80414135,6.54527601 L4.76604272,5.99246858 L5.33847456,5.98616622 Z" id="Fill-142" fill="#FAFCFE"></path>
                        </g>
                        <path d="M234.035471,29.5561105 L232.743928,27.7923486 L233.072528,23.7120176 C233.267784,21.2820057 232.022911,19.0257591 229.947489,18.0002743 L229.96749,17.7598841 C230.036068,16.9216696 229.442682,16.1104652 228.671185,15.9889196 C227.90445,15.8691747 227.191053,16.4733014 227.122476,17.3115159 L227.103426,17.5528064 C224.91466,17.9093402 223.33452,19.7253216 223.135454,22.1598351 L222.803044,26.2473689 L221.25624,27.5717659 L221.147659,28.8997642 L227.456791,29.8775311 C227.534893,30.8165834 228.196857,31.6403926 229.081697,31.8123571 C229.198851,31.8348655 229.314099,31.8447693 229.427442,31.8447693 C230.217036,31.8366662 230.895192,31.2712541 231.105687,30.4429432 L233.929747,30.8814078 L234.035471,29.5561105 Z M229.171229,31.0335649 C228.868345,30.9750429 228.597845,30.7922743 228.410209,30.5167709 C228.300676,30.3574111 228.232098,30.1782439 228.196857,29.991874 L230.366573,30.3286003 C230.177985,30.8318892 229.696038,31.1380041 229.171229,31.0335649 Z M233.274451,29.9873723 L221.93249,28.2272118 L221.950587,28.0084297 L223.496439,26.6840328 L223.855518,22.271477 C224.030772,20.1034635 225.493759,18.5080649 227.492032,18.3018875 L227.77301,18.2730767 L227.841587,17.4249584 C227.873018,17.0252084 228.235908,16.7145919 228.608322,16.7695125 C228.975974,16.8271341 229.281715,17.2457912 229.250284,17.6464416 L229.180754,18.4927591 L229.451254,18.6089027 C231.3619,19.4291105 232.530575,21.4341628 232.355322,23.5994753 L231.9991,28.0057287 L233.292548,29.7685902 L233.274451,29.9873723 Z" id="Fill-103" fill="#798897"></path>
                    </g>
                    <g id="Group-62" mask="url(#mask-4)">
                        <g transform="translate(21.001778, 125.146959)">
                            <g id="Fill-2">
                                <use fill="black" fill-opacity="1" filter="url(#filter-8)" xlink:href="#path-7"></use>
                                <use fill="#FFFFFF" fill-rule="evenodd" xlink:href="#path-7"></use>
                            </g>
                            <g id="Group-61" stroke-width="1" fill-rule="evenodd" transform="translate(0.904931, 15.305743)">
                                <polygon id="Fill-3" fill="#EDEDEE" points="0.470232277 25.9227071 286.30326 16.7644706 286.355646 17.6350973 0.511188299 26.839251"></polygon>
                                <polygon id="Fill-4" fill="#BBBBC4" points="211.516707 19.1604497 265.368161 17.4354024 265.420547 18.3096304 211.566236 20.0436811"></polygon>
                                <path d="M56.2183308,6.0220897 L14.2279314,7.23754578 C12.0372605,7.30056943 10.3428242,9.19127889 10.4456905,11.4592299 C10.5485568,13.7289816 12.4096746,15.5152519 14.601298,15.4486269 L56.6078893,14.1746488 C58.7671288,14.1089242 60.4272764,12.2317198 60.3196478,9.98177551 C60.2110667,7.73183125 58.3766179,5.95996639 56.2183308,6.0220897" id="Fill-5" fill="#EDEDEE"></path>
                                <path d="M124.881863,4.03585439 L83.8791707,5.22159932 C81.7408853,5.28372264 80.0950247,7.15102331 80.2045583,9.39286453 C80.3150443,11.6347057 82.1399684,13.4002682 84.2801587,13.3354439 L125.298091,12.091177 C127.405897,12.0263527 129.020326,10.1725571 128.905078,7.94962297 C128.78983,5.72668885 126.988717,3.97463142 124.881863,4.03585439" id="Fill-7" fill="#EDEDEE"></path>
                                <path d="M191.116799,2.11957534 L151.055142,3.27921047 C148.966385,3.33863277 147.36529,5.183425 147.482444,7.39915642 C147.600549,9.61488784 149.390232,11.3606429 151.480894,11.2967189 L191.555885,10.0812628 C193.616068,10.0182392 195.185732,8.18605169 195.064769,5.98922736 C194.942853,3.79240304 193.176029,2.06015304 191.116799,2.11957534" id="Fill-9" fill="#EDEDEE"></path>
                                <path d="M255.843505,0.24723277 L216.693358,1.37985777 C214.651272,1.43928007 213.09399,3.26156385 213.217811,5.45118547 C213.341631,7.64170743 215.098931,9.36675473 217.141017,9.30553176 L256.306403,8.11708581 C258.319916,8.05586284 259.846718,6.24528345 259.718135,4.07366858 C259.590505,1.90205372 257.856065,0.188710811 255.843505,0.24723277" id="Fill-11" fill="#BBBBC4"></path>
                                <g id="Fill-13">
                                    <use fill="black" fill-opacity="1" filter="url(#filter-10)" xlink:href="#path-9"></use>
                                    <use fill="#FFFFFF" fill-rule="evenodd" xlink:href="#path-9"></use>
                                </g>
                                <path d="M22.7122095,48.0908253 L25.3533966,47.9962899 C25.8391541,47.9782831 26.2525242,48.3735314 26.2753833,48.8786209 C26.299195,49.3846108 25.9239235,49.8077696 25.4372136,49.8257764 L22.7960264,49.9212122 L22.9217519,52.6672426 C22.9455635,53.1732324 22.5702921,53.5972916 22.0826297,53.6152983 C21.5959198,53.6333051 21.1825497,53.2380568 21.1596905,52.7320669 L21.033965,49.9851361 L18.3880155,50.080572 C17.9013056,50.0985787 17.4869831,49.7033304 17.4641239,49.1973405 C17.4412647,48.6913507 17.8174886,48.2672916 18.305151,48.2492848 L20.9501481,48.153849 L20.8244226,45.4087189 C20.8015634,44.9036294 21.1768349,44.4795703 21.6635448,44.4624639 C22.1502547,44.4453574 22.5626724,44.8415061 22.586484,45.3465956 L22.7122095,48.0908253 Z" id="Fill-17" fill="#35495E"></path>
                                <path d="M131.06727,41.4974713 L44.0842998,44.5838294 C41.9107732,44.6603581 40.2334813,46.5609713 40.3401574,48.828022 C40.4458811,51.095973 42.2955694,52.8696385 44.4710008,52.7895084 L131.486355,49.5798041 C133.594161,49.502375 135.208591,47.6305726 135.09239,45.3995355 C134.976189,43.1693986 133.175077,41.4227432 131.06727,41.4974713" id="Fill-19" fill="#EDEDEE"></path>
                                <path d="M14.719499,76.4198654 L281.581317,65.550987 C282.027071,65.5329802 282.410914,65.9102218 282.440441,66.3946035 L297.962773,325.167904 C297.993252,325.664891 297.652269,326.101555 297.202705,326.141169 L27.1263161,349.78044 C26.6319865,349.822756 26.2109967,349.43471 26.187185,348.911614 L13.8765669,77.3751238 C13.8537077,76.8673333 14.2308841,76.4396728 14.719499,76.4198654" id="Fill-21" fill="#FEFEFE"></path>
                                <path d="M14.719499,76.4198654 L281.581317,65.550987 C282.027071,65.5329802 282.410914,65.9102218 282.440441,66.3946035 L297.962773,325.167904 C297.993252,325.664891 297.652269,326.101555 297.202705,326.141169 L27.1263161,349.78044 C26.6319865,349.822756 26.2109967,349.43471 26.187185,348.911614 L13.8765669,77.3751238 C13.8537077,76.8673333 14.2308841,76.4396728 14.719499,76.4198654 Z" id="Stroke-23" stroke="#DFE4EB" stroke-width="0.900000036"></path>
                                <path d="M17.0625644,128.045057 L284.53396,114.791184 C284.979714,114.768675 285.36451,115.145917 285.394037,115.632999 L289.481067,183.767866 C289.510593,184.25765 289.171515,184.678108 288.723856,184.706018 L20.3904793,201.36857 C19.899007,201.399182 19.4818271,201.006635 19.4580154,200.491641 L16.2177274,129.01382 C16.1939157,128.502429 16.5729971,128.069366 17.0625644,128.045057" id="Fill-25" fill="#FEFEFE"></path>
                                <path d="M17.0625644,128.045057 L284.53396,114.791184 C284.979714,114.768675 285.36451,115.145917 285.394037,115.632999 L289.481067,183.767866 C289.510593,184.25765 289.171515,184.678108 288.723856,184.706018 L20.3904793,201.36857 C19.899007,201.399182 19.4818271,201.006635 19.4580154,200.491641 L16.2177274,129.01382 C16.1939157,128.502429 16.5729971,128.069366 17.0625644,128.045057 Z" id="Stroke-27" stroke="#DFE4EB" stroke-width="0.900000036"></path>
                                <path d="M201.313038,141.382662 L263.124247,138.075721 C264.924407,137.979385 266.475974,139.489251 266.591222,141.449287 L267.689415,160.099785 C267.805616,162.064322 266.438828,163.741652 264.636763,163.846091 L202.756024,167.44204 C200.91205,167.54918 199.3281,166.024008 199.218567,164.035162 L198.176569,145.153277 C198.067988,143.168932 199.471922,141.480798 201.313038,141.382662" id="Fill-29" fill="#FEFEFE"></path>
                                <path d="M201.313038,141.382662 L263.124247,138.075721 C264.924407,137.979385 266.475974,139.489251 266.591222,141.449287 L267.689415,160.099785 C267.805616,162.064322 266.438828,163.741652 264.636763,163.846091 L202.756024,167.44204 C200.91205,167.54918 199.3281,166.024008 199.218567,164.035162 L198.176569,145.153277 C198.067988,143.168932 199.471922,141.480798 201.313038,141.382662 Z" id="Stroke-31" stroke="#DFE4EB" stroke-width="0.900000036"></path>
                                <path d="M252.178798,147.139062 L229.159609,148.404937 C227.107046,148.518379 225.54405,150.41269 225.669775,152.634724 C225.796453,154.859459 227.563277,156.5692 229.616793,156.453057 L252.644554,155.152969 C254.679973,155.037726 256.22392,153.152418 256.094384,150.940288 C255.965801,148.729058 254.213265,147.02742 252.178798,147.139062" id="Fill-33" fill="#EDEDEE"></path>
                                <path d="M210.422801,150.807218 C210.929512,151.297002 210.945704,152.17213 210.457089,152.760951 C209.969427,153.349772 209.162689,153.431703 208.655024,152.941919 C208.14736,152.452135 208.133073,151.576107 208.620736,150.987286 C209.108398,150.398465 209.916089,150.317434 210.422801,150.807218 M211.737203,149.197414 C210.476139,147.978357 208.463579,148.183634 207.242518,149.656586 C206.020504,151.129539 206.053841,153.313759 207.31681,154.533716 C208.205461,155.390838 209.465573,155.541194 210.559003,155.041507 L211.224777,155.684348 L212.345829,155.457463 L212.262964,156.686424 L212.678239,157.087975 L213.799291,156.860189 L213.716427,158.089151 L214.131702,158.489801 L215.963293,158.077446 L216.136642,156.06339 L212.566801,152.615997 C212.903021,151.388836 212.624901,150.053635 211.737203,149.197414" id="Fill-35" fill="#798897"></path>
                                <path d="M78.3398211,157.623946 L36.2665572,159.945017 C34.071124,160.066563 32.3766876,162.029299 32.4824113,164.329662 C32.5890875,166.631826 34.4559201,168.397389 36.6523058,168.273142 L78.7417616,165.890848 C80.904811,165.768402 82.5659111,163.819171 82.4544726,161.537715 C82.3430341,159.256258 80.5019181,157.504201 78.3398211,157.623946" id="Fill-37" fill="#EDEDEE"></path>
                                <path d="M175.876396,152.242086 L109.499067,155.90376 C107.358877,156.022605 105.714921,157.959232 105.829217,160.230784 C105.942561,162.502336 107.772247,164.247191 109.91339,164.125646 L176.31453,160.366735 C178.405193,160.249691 180.000572,158.335573 179.878657,156.091931 C179.757694,153.85009 177.966106,152.126843 175.876396,152.242086" id="Fill-39" fill="#EDEDEE"></path>
                                <path d="M23.7451584,275.278024 L292.947184,255.153672 C293.395795,255.12036 293.784401,255.4931 293.813928,255.988286 L297.962868,325.167544 C297.993347,325.665431 297.652364,326.101194 297.201848,326.140809 L27.1264114,349.78008 C26.6320817,349.823296 26.2110919,349.43435 26.1872803,348.911254 L22.8946066,276.283701 C22.8717475,275.765107 23.2517812,275.314938 23.7451584,275.278024" id="Fill-41" fill="#FEFEFE"></path>
                                <path d="M23.7451584,275.278024 L292.947184,255.153672 C293.395795,255.12036 293.784401,255.4931 293.813928,255.988286 L297.962868,325.167544 C297.993347,325.665431 297.652364,326.101194 297.201848,326.140809 L27.1264114,349.78008 C26.6320817,349.823296 26.2110919,349.43435 26.1872803,348.911254 L22.8946066,276.283701 C22.8717475,275.765107 23.2517812,275.314938 23.7451584,275.278024 Z" id="Stroke-43" stroke="#DFE4EB" stroke-width="0.900000036"></path>
                                <path d="M209.221075,284.261145 L271.418985,279.361506 C273.229622,279.218352 274.792618,280.715614 274.909771,282.705361 L276.025108,301.643967 C276.142262,303.637315 274.767854,305.377668 272.954359,305.528925 L210.685967,310.726575 C208.830564,310.881433 207.235184,309.370667 207.124698,307.350308 L206.065556,288.174013 C205.95507,286.159057 207.368529,284.4079 209.221075,284.261145" id="Fill-45" fill="#FEFEFE"></path>
                                <path d="M209.221075,284.261145 L271.418985,279.361506 C273.229622,279.218352 274.792618,280.715614 274.909771,282.705361 L276.025108,301.643967 C276.142262,303.637315 274.767854,305.377668 272.954359,305.528925 L210.685967,310.726575 C208.830564,310.881433 207.235184,309.370667 207.124698,307.350308 L206.065556,288.174013 C205.95507,286.159057 207.368529,284.4079 209.221075,284.261145 Z" id="Stroke-47" stroke="#DFE4EB" stroke-width="0.900000036"></path>
                                <path d="M260.410578,288.849896 L237.247566,290.709994 C235.181668,290.876557 233.6101,292.841094 233.73773,295.098241 C233.865361,297.357189 235.645519,299.051624 237.711417,298.883261 L260.883,296.98805 C262.930802,296.820587 264.483321,294.864153 264.352833,292.61781 C264.221392,290.371467 262.457426,288.685135 260.410578,288.849896" id="Fill-49" fill="#EDEDEE"></path>
                                <path d="M218.393223,293.618896 C218.903745,294.104178 218.919937,294.993712 218.429417,295.605041 C217.937945,296.216371 217.126444,296.319009 216.615923,295.833727 C216.104449,295.348445 216.088257,294.458911 216.579729,293.846681 C217.070249,293.235352 217.882702,293.133614 218.393223,293.618896 M219.715246,291.94967 C218.445609,290.741416 216.420667,290.999813 215.191986,292.527686 C213.963306,294.05646 213.997595,296.276693 215.270089,297.484947 C216.163501,298.334866 217.432186,298.456411 218.532283,297.92161 L219.202819,298.558149 L220.330538,298.299752 L220.247674,299.552122 L220.665806,299.949171 L221.793526,299.690774 L221.710661,300.943144 L222.129746,301.339293 L223.972767,300.875619 L224.145163,298.821948 L220.551511,295.404266 C220.889636,294.148295 220.607706,292.798688 219.715246,291.94967" id="Fill-51" fill="#798897"></path>
                                <path d="M85.4508342,303.839081 L43.0937355,307.24776 C40.8830628,307.425127 39.1781494,309.464392 39.285778,311.803469 C39.3943591,314.140746 41.2745262,315.891003 43.4851989,315.710035 L85.8594419,312.237432 C88.0367783,312.059165 89.7083555,310.035206 89.5950121,307.717736 C89.4816687,305.399366 87.6272181,303.664415 85.4508342,303.839081" id="Fill-53" fill="#EDEDEE"></path>
                                <path d="M183.626419,295.937446 L116.817622,301.315164 C114.663145,301.488029 113.008712,303.498483 113.123961,305.806949 C113.240162,308.114515 115.08223,309.843164 117.23766,309.666698 L184.072172,304.189943 C186.176169,304.017978 187.780121,302.031833 187.656301,299.753978 C187.534385,297.477024 185.730415,295.769083 183.626419,295.937446" id="Fill-55" fill="#EDEDEE"></path>
                                <path d="M20.3905745,201.36857 L288.723952,184.706018 C289.17161,184.678108 289.558311,185.053548 289.587838,185.544233 L293.706299,254.198594 C293.735826,254.69288 293.395795,255.12054 292.947184,255.153853 L23.7451584,275.278204 C23.2517812,275.315118 22.8326964,274.924371 22.8098372,274.404876 L19.5428801,202.356241 C19.5190685,201.841248 19.8991022,201.399182 20.3905745,201.36857" id="Fill-57" fill="#FEFEFE"></path>
                                <path d="M20.3905745,201.36857 L288.723952,184.706018 C289.17161,184.678108 289.558311,185.053548 289.587838,185.544233 L293.706299,254.198594 C293.735826,254.69288 293.395795,255.12054 292.947184,255.153853 L23.7451584,275.278204 C23.2517812,275.315118 22.8326964,274.924371 22.8098372,274.404876 L19.5428801,202.356241 C19.5190685,201.841248 19.8991022,201.399182 20.3905745,201.36857 Z" id="Stroke-59" stroke="#DFE4EB" stroke-width="0.900000036"></path>
                                <path d="M236.562648,222.096508 L237.767517,222.014578 L239.665781,226.566686 L239.68864,226.564885 L240.972564,221.795795 L242.093616,221.719267 L239.906755,229.156958 C239.829605,229.424358 239.746741,229.668349 239.658161,229.888932 C239.569582,230.110415 239.461001,230.302187 239.330513,230.463348 C239.200978,230.624508 239.039059,230.753257 238.846661,230.851393 C238.655215,230.94953 238.416146,231.008052 238.130406,231.02786 C237.976107,231.039564 237.81895,231.039564 237.658936,231.02966 C237.499874,231.018856 237.344622,230.985544 237.194133,230.928822 L237.26271,229.884431 C237.477015,229.96276 237.688462,229.994272 237.8961,229.980767 C238.058019,229.969062 238.194222,229.93665 238.303755,229.88173 C238.412336,229.82861 238.505678,229.754782 238.580923,229.660246 C238.65712,229.566611 238.71903,229.459471 238.765701,229.337926 C238.813324,229.21548 238.859995,229.077728 238.905714,228.92287 L239.187643,227.954106 L236.562648,222.096508 Z M232.935659,222.343201 L233.978609,222.272074 L234.031947,223.19312 L234.054806,223.192219 C234.115764,223.027458 234.200533,222.875301 234.308162,222.737549 C234.416743,222.599797 234.539611,222.479152 234.677719,222.377414 C234.814874,222.274775 234.967268,222.190143 235.13395,222.124419 C235.301584,222.057794 235.47017,222.019079 235.638756,222.007375 C235.809248,221.996571 235.965452,222.010076 236.106417,222.051491 L236.130229,223.277752 C236.043554,223.257944 235.957832,223.242638 235.871158,223.232735 C235.786389,223.22103 235.700667,223.218329 235.615897,223.224632 C235.106328,223.258844 234.724389,223.441613 234.471986,223.771137 C234.21863,224.10066 234.111002,224.593145 234.148148,225.249491 L234.319592,228.253018 L233.275689,228.325045 L232.935659,222.343201 Z M230.060165,225.657344 C229.812524,225.674451 229.559168,225.706863 229.302003,225.753681 C229.043884,225.800498 228.81053,225.873426 228.603845,225.973363 C228.395255,226.0715 228.227621,226.202049 228.099991,226.362309 C227.972361,226.523469 227.916165,226.721544 227.930452,226.956532 C227.949501,227.302262 228.069512,227.543552 228.291437,227.680404 C228.513361,227.817255 228.805768,227.873076 229.16961,227.848767 C229.456302,227.828059 229.697276,227.758733 229.892531,227.639888 C230.087787,227.520143 230.242086,227.372488 230.356382,227.196022 C230.470678,227.018655 230.549733,226.825083 230.591641,226.616204 C230.634502,226.405525 230.649742,226.200248 230.638312,225.997672 L230.617358,225.61863 L230.060165,225.657344 Z M226.976082,223.484829 C227.253249,223.169711 227.580897,222.92662 227.960931,222.752855 C228.33906,222.579089 228.722904,222.479152 229.109605,222.453042 C229.512498,222.425132 229.8611,222.455743 230.157317,222.545777 C230.454486,222.635811 230.700222,222.76636 230.89643,222.939224 C231.092638,223.111189 231.242175,223.314665 231.344089,223.547853 C231.446955,223.781941 231.505056,224.028633 231.520295,224.289731 L231.694596,227.344578 C231.705073,227.554356 231.720313,227.747929 231.73841,227.924395 C231.756507,228.100861 231.777461,228.267424 231.802225,228.426784 L230.872618,228.491608 C230.832615,228.189995 230.804041,227.887481 230.787849,227.584968 L230.764037,227.585868 C230.55259,227.989219 230.294472,228.281829 229.985873,228.463697 C229.677274,228.645566 229.314385,228.751806 228.896252,228.780616 C228.640992,228.797723 228.394303,228.777015 228.158091,228.717593 C227.920928,228.65727 227.711385,228.558233 227.528512,228.41778 C227.344686,228.278228 227.197054,228.100861 227.08371,227.88478 C226.970367,227.667799 226.904647,227.412103 226.888455,227.117692 C226.866548,226.729647 226.928458,226.400123 227.072281,226.129121 C227.216103,225.857219 227.420883,225.629434 227.687573,225.446665 C227.952359,225.262996 228.267625,225.122544 228.631467,225.026208 C228.995309,224.928971 229.38582,224.866848 229.803952,224.838037 L230.569734,224.784917 L230.555447,224.532822 C230.547828,224.381566 230.510682,224.23211 230.448771,224.084454 C230.385909,223.936799 230.297329,223.805349 230.182081,223.691007 C230.066833,223.576664 229.924915,223.488431 229.758234,223.428108 C229.592505,223.367785 229.397249,223.345277 229.172467,223.360583 C228.970545,223.374088 228.796243,223.4074 228.646706,223.45962 C228.499074,223.511839 228.364776,223.574863 228.244766,223.64599 C228.123803,223.717116 228.015222,223.799047 227.919975,223.889981 C227.823776,223.980915 227.731387,224.067348 227.642808,224.149279 L226.976082,223.484829 Z M216.991385,223.429909 L217.970519,223.363284 L218.023857,224.299635 L218.047669,224.297834 C218.065766,224.212302 218.120056,224.103361 218.209588,223.969211 C218.300072,223.836861 218.417226,223.707213 218.562953,223.582966 C218.707728,223.45962 218.882029,223.350679 219.082047,223.256143 C219.283969,223.162508 219.509704,223.106687 219.757345,223.089581 C220.16881,223.06167 220.52027,223.130096 220.809819,223.296659 C221.100321,223.464121 221.344152,223.72612 221.543218,224.084454 C221.701327,223.70091 221.938491,223.4065 222.253757,223.198522 C222.569976,222.990544 222.893814,222.875301 223.227177,222.853692 C223.653882,222.824882 224.007246,222.876201 224.287271,223.009451 C224.567296,223.141801 224.792078,223.32727 224.960664,223.56586 C225.130203,223.803549 225.252119,224.078152 225.328316,224.390569 C225.404513,224.702986 225.452137,225.027108 225.470233,225.363834 L225.668346,228.851743 L224.620634,228.92377 L224.432998,225.587118 C224.419664,225.359333 224.393947,225.141451 224.354896,224.932572 C224.315845,224.723694 224.249173,224.542726 224.154878,224.387868 C224.060584,224.23391 223.932954,224.113265 223.771987,224.027733 C223.611021,223.941301 223.404336,223.907088 223.14717,223.924194 C222.643315,223.958407 222.291856,224.15198 222.093743,224.504012 C221.89563,224.855143 221.810861,225.297209 221.840387,225.828409 L222.024213,229.102937 L220.976501,229.175865 L220.800295,226.039088 C220.784103,225.75278 220.755529,225.491682 220.715525,225.258495 C220.674569,225.023507 220.608849,224.822731 220.517412,224.656169 C220.426928,224.488706 220.303107,224.361758 220.145951,224.275326 C219.988794,224.187993 219.782109,224.15378 219.525896,224.171787 C219.339212,224.184392 219.160149,224.236611 218.99061,224.328446 C218.820118,224.421181 218.673439,224.55173 218.550571,224.720993 C218.427703,224.890257 218.333409,225.101836 218.270546,225.355731 C218.206731,225.609627 218.183871,225.904937 218.202921,226.242564 L218.377222,229.355932 L217.327605,229.42886 L216.991385,223.429909 Z M213.908253,221.480677 C213.894919,221.252892 213.960639,221.052116 214.102556,220.877451 C214.245426,220.701885 214.421632,220.60825 214.632127,220.593844 C214.84167,220.578539 215.0274,220.649665 215.188367,220.802723 C215.349334,220.957581 215.436008,221.148453 215.44839,221.376238 C215.461725,221.604023 215.396005,221.805699 215.254087,221.980365 C215.11217,222.15413 214.935011,222.249566 214.724516,222.263971 C214.515926,222.277476 214.329243,222.20815 214.168276,222.053292 C214.00731,221.899334 213.921588,221.708463 213.908253,221.480677 Z M214.274,223.615378 L215.323617,223.543351 L215.658885,229.544103 L214.608316,229.61703 L214.274,223.615378 Z M209.869799,223.916091 L210.921321,223.844064 L210.972754,224.768711 L210.995613,224.76691 C211.057524,224.601248 211.143246,224.449091 211.252779,224.311339 C211.36136,224.172687 211.486133,224.051142 211.624241,223.948503 C211.764253,223.845865 211.9176,223.761233 212.086187,223.694608 C212.254773,223.627983 212.423359,223.589268 212.594803,223.577564 C212.767199,223.56586 212.923404,223.580265 213.066274,223.621681 L213.08818,224.853343 C213.001506,224.833535 212.914832,224.817329 212.827205,224.807426 C212.74053,224.795721 212.654809,224.79302 212.570039,224.799322 C212.055708,224.834436 211.670912,225.017204 211.415651,225.348529 C211.16039,225.678953 211.050856,226.174138 211.08705,226.833186 L211.255637,229.848417 L210.20221,229.921344 L209.869799,223.916091 Z M204.37693,225.282804 L205.852299,225.181966 C206.070414,225.16666 206.286623,225.133348 206.499023,225.080228 C206.711423,225.028008 206.898106,224.945177 207.060025,224.831735 C207.222897,224.719192 207.349575,224.564334 207.440059,224.36716 C207.531496,224.170887 207.568642,223.919692 207.551498,223.615378 C207.534353,223.311964 207.469586,223.067973 207.358147,222.885204 C207.246709,222.701535 207.102886,222.565584 206.93049,222.475551 C206.757141,222.384616 206.561886,222.328795 206.344724,222.304486 C206.128514,222.281078 205.910399,222.276576 205.692285,222.291882 L204.216916,222.391819 L204.37693,225.282804 Z M203.033001,221.403248 L205.949451,221.206074 C206.479974,221.170061 206.920965,221.218679 207.273378,221.351929 C207.624838,221.484279 207.906767,221.665246 208.119167,221.892132 C208.330615,222.119017 208.484914,222.380115 208.579208,222.675426 C208.674455,222.969836 208.728745,223.256143 208.744937,223.535248 C208.760177,223.813453 208.737317,224.105162 208.67636,224.410377 C208.614449,224.715591 208.490629,224.995596 208.305851,225.249491 C208.12012,225.504287 207.860097,225.721268 207.525781,225.901336 C207.190513,226.081404 206.758094,226.189444 206.226618,226.225458 L204.435983,226.348804 L204.654097,230.305789 L203.528283,230.383218 L203.033001,221.403248 Z" id="Fill-61" fill="#35495E"></path>
                                <path d="M81.881374,230.44309 L39.6661928,233.304364 C37.4640922,233.45292 35.7639411,235.45347 35.8706173,237.773641 C35.9782459,240.093811 37.8517458,241.850371 40.0547987,241.698214 L82.2861719,238.774817 C84.4568411,238.62536 86.1236559,236.639215 86.0103125,234.338852 C85.898874,232.039389 84.0501382,230.295435 81.881374,230.44309" id="Fill-63" fill="#EDEDEE"></path>
                                <path d="M179.736549,223.811022 L113.143963,228.324415 C110.997105,228.47027 109.347435,230.44291 109.462683,232.732469 C109.576979,235.022929 111.413333,236.75968 113.561143,236.611125 L180.178493,232.000495 C182.275822,231.85464 183.875965,229.905408 183.753096,227.64466 C183.631181,225.384812 181.832926,223.669669 179.736549,223.811022" id="Fill-65" fill="#EDEDEE"></path>
                                <path d="M67.307888,97.0045595 L68.3308361,96.9586422 L68.3775069,97.9048973 L68.4013186,97.903997 C68.4213204,97.8175645 68.4794208,97.7086236 68.5746673,97.5753736 C68.6699139,97.443024 68.7937344,97.3160764 68.9470814,97.1936304 C69.0994759,97.0720848 69.2813968,96.9658449 69.4918917,96.8749108 C69.7033391,96.7839767 69.9395506,96.7335578 70.1986212,96.7218534 C70.6281832,96.7029463 70.99393,96.7803753 71.2958616,96.9541405 C71.5958883,97.1288061 71.8492441,97.3989074 72.0540242,97.7662453 C72.2226106,97.3827014 72.4721566,97.0900916 72.8036147,96.8875155 C73.1350727,96.6849395 73.4751029,96.5750983 73.8227529,96.5597926 C74.2694593,96.5399851 74.637111,96.6003078 74.927613,96.7416608 C75.2190675,96.8821135 75.4514691,97.0738855 75.6257703,97.317877 C75.8000715,97.5618686 75.9248445,97.8418736 76.0010418,98.1587926 C76.0781915,98.4748111 76.1239098,98.8034345 76.1410542,99.1437622 L76.312498,102.669485 L75.2190675,102.719904 L75.0552434,99.3472385 C75.0438138,99.116752 75.0190497,98.8961693 74.9799986,98.6845899 C74.9419,98.4730105 74.8733225,98.2884412 74.776171,98.1299818 C74.6799719,97.9724226 74.5475792,97.848176 74.3808977,97.7572419 C74.2142163,97.6672081 73.9970541,97.6275932 73.7294113,97.6392976 C73.2026978,97.6627064 72.8340936,97.8499767 72.6235987,98.2011084 C72.4131038,98.5522402 72.3207146,98.9961068 72.3473836,99.5327081 L72.5073979,102.84325 L71.4120624,102.893669 L71.2587154,99.7226794 C71.2444285,99.4327706 71.2177594,99.169872 71.1777559,98.9321828 C71.1377523,98.6944936 71.0710797,98.4910172 70.9777381,98.319953 C70.883444,98.1488889 70.7558136,98.0183399 70.5919895,97.9274057 C70.4291179,97.8364716 70.2138606,97.7968568 69.9462178,97.8094615 C69.7509624,97.8175645 69.5652316,97.8670831 69.386168,97.9562166 C69.2071045,98.04535 69.0528051,98.173198 68.9223173,98.3415611 C68.7927819,98.5099243 68.6927731,98.7215037 68.6241955,98.9762993 C68.5546655,99.2319953 68.528949,99.5300071 68.5451409,99.8712351 L68.6965829,103.017916 L67.600295,103.067434 L67.307888,97.0045595 Z M62.7970109,97.2062351 L63.8952037,97.1567166 L63.9399696,98.0912672 L63.9637812,98.0903669 C64.0295014,97.9247047 64.1199856,97.773448 64.2352339,97.6356963 C64.3514348,97.4979446 64.4819225,97.3791 64.6276498,97.2782622 C64.773377,97.1774243 64.9343437,97.0954936 65.1105499,97.0324699 C65.286756,96.9685459 65.4639146,96.9325324 65.6429781,96.9253297 C65.8220417,96.9172267 65.9858658,96.9352334 66.1344504,96.9802503 L66.14588,98.2227166 C66.0553957,98.2011084 65.963959,98.184002 65.8744273,98.170497 C65.783943,98.1578922 65.6944113,98.1533905 65.6048795,98.1569919 C65.0686414,98.181301 64.6657484,98.3577672 64.3962006,98.6863905 C64.1266529,99.0141135 64.0075947,99.5111 64.0399785,100.17645 L64.1866582,103.223193 L63.0875129,103.273612 L62.7970109,97.2062351 Z M55.4030202,100.579801 C55.382066,100.135934 55.4420713,99.7172774 55.5820838,99.3256304 C55.7230487,98.9339834 55.9249714,98.5873534 56.1888044,98.2839395 C56.4526374,97.981426 56.7679035,97.7383348 57.1346027,97.5546659 C57.501302,97.3718973 57.9013376,97.2701591 58.3328045,97.251252 C58.7642714,97.2314446 59.1719267,97.2971693 59.5538654,97.4466253 C59.9367566,97.5969818 60.272977,97.8103618 60.563479,98.0885662 C60.8549335,98.3658703 61.0882875,98.6935932 61.2654461,99.0699345 C61.4426047,99.447176 61.5416612,99.8577301 61.5626154,100.301597 C61.5845221,100.745463 61.5245168,101.165021 61.3845043,101.561169 C61.2444919,101.956418 61.0425692,102.303948 60.7796887,102.60286 C60.5168082,102.900872 60.201542,103.142162 59.8348428,103.325831 C59.4681435,103.5095 59.0690604,103.611239 58.636641,103.631046 C58.2051741,103.650853 57.7975188,103.586029 57.4146276,103.436573 C57.0317365,103.287117 56.6945636,103.075537 56.4040616,102.801835 C56.1126071,102.528132 55.8783006,102.200409 55.701142,101.818666 C55.5230309,101.436923 55.4239745,101.023668 55.4030202,100.579801 Z M56.5774104,100.526681 C56.5926498,100.834597 56.6507502,101.116402 56.752664,101.372999 C56.8545778,101.629595 56.9917329,101.845676 57.1631767,102.022142 C57.335573,102.198608 57.542258,102.334559 57.7832318,102.430896 C58.0242056,102.526331 58.2918485,102.567747 58.5852079,102.555142 C58.8785673,102.541637 59.1414478,102.475912 59.3719445,102.357968 C59.6033936,102.240924 59.7957917,102.086967 59.9500911,101.896095 C60.1043905,101.704323 60.2196389,101.476537 60.2967886,101.212739 C60.3739383,100.948039 60.4053697,100.661732 60.3910827,100.354717 C60.3758433,100.046801 60.3177428,99.7649953 60.215829,99.5092993 C60.1139152,99.252703 59.9767602,99.036622 59.8053163,98.8601557 C59.6338725,98.6836895 59.4271875,98.5477385 59.1862137,98.4514024 C58.9442874,98.3550662 58.6766446,98.3136507 58.3832852,98.3271557 C58.0908782,98.3397605 57.8279977,98.4054851 57.597501,98.5225291 C57.3660519,98.639573 57.1727014,98.7944311 57.0184019,98.9853027 C56.8641025,99.1761743 56.7488542,99.4039598 56.6717045,99.6686591 C56.5936023,99.9333584 56.5631234,100.218766 56.5774104,100.526681 Z M51.9398552,98.6926929 L50.6902204,98.7485139 L50.6425971,97.7482385 L51.892232,97.6924176 L51.8284168,96.3338078 C51.7903181,95.521703 51.9103288,94.9103736 52.1894012,94.4998196 C52.4684737,94.0901659 52.9713755,93.8686828 53.6971543,93.8362706 C53.8190699,93.8317689 53.9486052,93.8299682 54.0829029,93.8326693 C54.218153,93.8344699 54.3638803,93.8542774 54.5210371,93.8902909 L54.4476972,94.9202774 C54.3391161,94.8824632 54.2362499,94.8572537 54.1371934,94.844649 C54.038137,94.8311439 53.9324133,94.8275426 53.8181174,94.8329446 C53.6142898,94.841948 53.4523707,94.8815628 53.3333124,94.9508889 C53.2142542,95.0202149 53.1218651,95.1156507 53.0590023,95.238997 C52.9951872,95.3614429 52.9570885,95.5063973 52.943754,95.6738601 C52.931372,95.841323 52.9304195,96.0321946 52.9408966,96.2455747 L53.0066167,97.642899 L54.316257,97.584377 L54.3638803,98.583752 L53.041858,98.6431743 L53.2828318,103.72198 L52.180829,103.772399 L51.9398552,98.6926929 Z M50.090167,98.775524 L48.5081216,98.8466507 L48.6386094,101.605286 C48.6462291,101.77635 48.6586112,101.945614 48.6748031,102.112176 C48.690995,102.278739 48.7281412,102.426394 48.7881465,102.556943 C48.8471994,102.687492 48.9338737,102.79013 49.0481696,102.866659 C49.1624655,102.943188 49.3262896,102.9765 49.5386894,102.966597 C49.6691772,102.960294 49.8034749,102.941387 49.9415824,102.909875 C50.0787374,102.877463 50.2035104,102.825244 50.3149489,102.751416 L50.3644771,103.803911 C50.2368467,103.886742 50.0701652,103.947965 49.8634802,103.98758 C49.6558427,104.026294 49.494876,104.048803 49.3805801,104.054205 C48.9557805,104.074012 48.62337,104.026294 48.3843011,103.912852 C48.1461847,103.799409 47.9661687,103.647252 47.8471105,103.45548 C47.7270998,103.263708 47.6509026,103.045826 47.6194712,102.802735 C47.5870874,102.559644 47.5651806,102.314752 47.5537511,102.066259 L47.4051664,98.8961693 L46.1288625,98.9537909 L46.0812392,97.9517149 L47.3575431,97.8949936 L47.277536,96.1888534 L48.3804912,96.1402351 L48.4614508,97.8463753 L50.0425437,97.7752486 L50.090167,98.775524 Z M43.8477073,101.21724 C43.5857793,101.228945 43.3181364,101.256855 43.0447788,101.299171 C42.7723736,101.341487 42.5247326,101.410813 42.3037606,101.506249 C42.0827885,101.601684 41.903725,101.730433 41.7675224,101.890693 C41.6313198,102.051853 41.5694096,102.251728 41.5798867,102.492119 C41.5960786,102.84325 41.7208516,103.090843 41.9532532,103.234897 C42.1866073,103.378951 42.4952061,103.441975 42.8800023,103.423968 C43.1828863,103.410463 43.4381471,103.344739 43.6467371,103.228595 C43.8543746,103.111551 44.0201036,102.964796 44.1429717,102.787429 C44.2658397,102.610063 44.3515616,102.41559 44.3991849,102.20311 C44.4468082,101.99063 44.4649051,101.781752 44.4553804,101.576475 L44.4372835,101.19113 L43.8477073,101.21724 Z M40.6131341,98.9429868 C40.9103034,98.6287689 41.2608107,98.3883787 41.6637037,98.2200155 C42.0665966,98.0516524 42.472347,97.9589176 42.8819072,97.9409108 C43.3076593,97.9220037 43.6762635,97.9607182 43.9886722,98.0579547 C44.301081,98.1560916 44.5601516,98.2947436 44.7649317,98.4739108 C44.9706643,98.6539784 45.1259162,98.8628568 45.2316399,99.103247 C45.3373636,99.3427368 45.3964164,99.5948314 45.4087985,99.8604311 L45.5545257,102.968397 C45.5640504,103.181777 45.5783374,103.378951 45.5945293,103.558119 C45.6116737,103.737286 45.6316754,103.90835 45.6554871,104.070411 L44.673495,104.114527 C44.6344439,103.807512 44.6077749,103.499597 44.5925354,103.191681 L44.5677713,103.193482 C44.3410845,103.597733 44.063917,103.889443 43.7353164,104.06771 C43.4067157,104.245977 43.0219196,104.345014 42.5790231,104.364821 C42.3085229,104.377426 42.0484998,104.351316 41.7999062,104.284691 C41.5503603,104.218967 41.3293882,104.113627 41.1379426,103.966872 C40.9455446,103.821918 40.7912452,103.637348 40.6740919,103.414965 C40.5569386,103.193482 40.4912185,102.931483 40.477884,102.631671 C40.4597871,102.237323 40.5274122,101.904198 40.6836165,101.631396 C40.8388684,101.357693 41.0579355,101.130808 41.3417703,100.95074 C41.6246526,100.770673 41.958968,100.635622 42.345669,100.545588 C42.7304652,100.454654 43.1447877,100.399733 43.5867317,100.379926 L44.39728,100.343012 L44.3858504,100.086416 C44.3782307,99.9324581 44.3429895,99.7794007 44.2782218,99.6281439 C44.2134541,99.4768872 44.121065,99.3409361 44.0001018,99.2220916 C43.8800912,99.103247 43.732459,99.0114125 43.5562528,98.9465882 C43.3809992,98.8808635 43.1752666,98.8538534 42.9371502,98.8646574 C42.7237979,98.8745611 42.5390196,98.903372 42.3818627,98.9537909 C42.2237534,99.0042098 42.0808836,99.0636321 41.9523007,99.1338584 C41.8246703,99.2040848 41.709422,99.2842149 41.6065557,99.3742486 C41.5046419,99.4651828 41.4055855,99.5516152 41.3112914,99.6326456 L40.6131341,98.9429868 Z M37.5185733,94.7023956 L38.6262908,94.6537774 L39.0796644,104.371124 L37.9719469,104.421543 L37.5185733,94.7023956 Z M31.8085419,99.5948314 L33.3620133,99.5255054 C33.5915575,99.5147014 33.8191968,99.4849902 34.0430262,99.4372723 C34.2678081,99.3877537 34.4649685,99.308524 34.6373648,99.1977824 C34.8088086,99.0870409 34.9440587,98.9321828 35.0412102,98.7350088 C35.1393142,98.5369345 35.1812226,98.2839395 35.1669357,97.9751236 C35.1526487,97.6663078 35.0869285,97.4187149 34.9716802,97.2305443 C34.8554794,97.0423736 34.7068948,96.9010206 34.5259263,96.8055848 C34.3449578,96.710149 34.1401777,96.648926 33.9125384,96.6201152 C33.6848992,96.5922047 33.4553549,96.582301 33.2258107,96.5922047 L31.6723393,96.6615307 L31.8085419,99.5948314 Z M30.4388963,95.6333449 L33.508693,95.4982943 C34.0668379,95.4730848 34.5306886,95.5325071 34.8992928,95.6747605 C35.267897,95.8170139 35.5622089,96.0060848 35.7831809,96.241073 C36.0041529,96.4760611 36.1622622,96.7434615 36.2584613,97.0441743 C36.3546603,97.3448872 36.4099033,97.6365966 36.4232378,97.9193027 C36.4356199,98.2020088 36.4089508,98.4973196 36.3403733,98.8052351 C36.2727482,99.1131507 36.1394031,99.3940561 35.9412902,99.6479514 C35.7431774,99.9018466 35.4679148,100.116127 35.1135976,100.290793 C34.7602328,100.465458 34.3030493,100.566296 33.7449045,100.590605 L31.8580701,100.676137 L32.0438009,104.692544 L30.8589337,104.746565 L30.4388963,95.6333449 Z" id="Fill-67" fill="#35495E"></path>
                                <path d="M146.889439,95.9547655 C146.868484,95.7026709 146.818004,95.4730848 146.739901,95.2660071 C146.661799,95.0589294 146.552266,94.8806625 146.408443,94.7312064 C146.266526,94.5817503 146.092225,94.4674074 145.88554,94.3881777 C145.678855,94.308948 145.441691,94.2756355 145.173096,94.2873399 C144.913072,94.2990443 144.675908,94.3620679 144.464461,94.4773111 C144.252061,94.5916541 144.075855,94.7366084 143.933938,94.9121743 C143.79202,95.0868399 143.686297,95.2795122 143.613909,95.4892909 C143.540569,95.6990696 143.510091,95.905247 143.520568,96.1069226 L146.889439,95.9547655 Z M143.568191,97.0153635 C143.581525,97.2764615 143.648198,97.5114497 143.766304,97.7212284 C143.88441,97.9310071 144.033947,98.1083736 144.215868,98.2515274 C144.397789,98.3946811 144.606378,98.503622 144.839733,98.5774497 C145.073087,98.6512774 145.313108,98.6818889 145.557892,98.6710848 C145.88935,98.6557791 146.174137,98.5612436 146.410348,98.3856777 C146.64656,98.2101118 146.860865,97.9832267 147.05231,97.7050223 L147.893337,98.3244547 C147.343765,99.1671709 146.534169,99.6128382 145.467407,99.6623568 C145.024511,99.6821642 144.618761,99.6209412 144.250156,99.4777875 C143.882505,99.3337334 143.566286,99.1266557 143.301501,98.8565544 C143.037668,98.5855527 142.828125,98.2623314 142.673826,97.8850899 C142.519526,97.5078483 142.429995,97.0963939 142.407135,96.6507267 C142.384276,96.2041591 142.434757,95.7864024 142.561435,95.3974564 C142.688113,95.0076101 142.871939,94.6663821 143.114817,94.372872 C143.356744,94.0793618 143.65296,93.845274 143.999658,93.6697081 C144.347308,93.4941422 144.730199,93.3969057 145.149284,93.3779986 C145.647423,93.3554902 146.074128,93.4293179 146.427493,93.5994818 C146.780857,93.7687453 147.075169,93.9974311 147.312333,94.2864395 C147.548545,94.5745476 147.726656,94.9040713 147.845714,95.2732098 C147.96382,95.6432486 148.032397,96.0213905 148.053352,96.4076355 L148.074306,96.8118872 L143.568191,97.0153635 Z M141.257509,94.6906912 L139.724992,94.7591169 L139.86691,97.4736355 C139.875482,97.642899 139.887864,97.8085611 139.904056,97.9724226 C139.9212,98.1362841 139.958346,98.2821389 140.016447,98.4108872 C140.0755,98.5387351 140.160269,98.6404733 140.270755,98.7152014 C140.382193,98.7908297 140.540303,98.8241422 140.746035,98.8142385 C140.873666,98.8079361 141.002249,98.7899294 141.136546,98.7584176 C141.269891,98.7269057 141.389902,98.6746861 141.497531,98.6026591 L141.551821,99.6380476 C141.428953,99.7199784 141.267034,99.780301 141.067016,99.8190155 C140.866046,99.8577301 140.710794,99.8793382 140.599356,99.8847402 C140.18789,99.9036473 139.865957,99.8568297 139.633555,99.7451878 C139.401154,99.6335459 139.226853,99.4831895 139.109699,99.2941186 C138.992546,99.1050476 138.918254,98.8916676 138.88587,98.6521777 C138.852534,98.4126878 138.830627,98.1713973 138.817292,97.9265054 L138.654421,94.8068348 L137.419073,94.8626557 L137.36764,93.8767858 L138.60394,93.8218652 L138.516313,92.1427351 L139.585932,92.0950172 L139.673559,93.7741473 L141.206076,93.7057216 L141.257509,94.6906912 Z M135.055053,91.8276169 C135.043624,91.5998314 135.111249,91.4008568 135.256976,91.2297926 C135.402703,91.0587284 135.583672,90.9686946 135.797024,90.9587909 C136.011329,90.9497875 136.199917,91.0236152 136.362789,91.1811743 C136.526613,91.3387334 136.614239,91.5305054 136.625669,91.7582909 C136.637099,91.985176 136.570426,92.185051 136.424699,92.3552149 C136.278019,92.5262791 136.098003,92.6163128 135.883698,92.6262166 C135.670346,92.6361203 135.480805,92.5613922 135.318886,92.4047334 C135.155062,92.2471743 135.067435,92.054502 135.055053,91.8276169 Z M135.41699,93.9641186 L136.487562,93.9164007 L136.799018,99.9063483 L135.727494,99.9549666 L135.41699,93.9641186 Z M133.12631,95.5739226 C132.990108,95.4109615 132.826284,95.2777115 132.633886,95.1714716 C132.441488,95.0661321 132.210038,95.0193145 131.939538,95.0319193 C131.68523,95.0427233 131.468068,95.1102486 131.287099,95.2317943 C131.106131,95.3542402 131.021361,95.5253044 131.032791,95.7440865 C131.042316,95.921453 131.103273,96.0628061 131.215664,96.1672453 C131.329008,96.2716845 131.460448,96.3545155 131.610938,96.4157385 C131.761427,96.4760611 131.921441,96.5192774 132.089075,96.5462875 C132.258614,96.5723973 132.403389,96.5949057 132.5234,96.6147132 C132.756754,96.6642318 132.976773,96.7254547 133.183458,96.8010831 C133.390143,96.8758111 133.571112,96.9775493 133.724459,97.1062976 C133.878758,97.2341456 134.002579,97.3935054 134.094968,97.5834767 C134.18831,97.773448 134.2426,98.0075358 134.256887,98.2857402 C134.274984,98.6233669 134.221646,98.9150764 134.09973,99.1617689 C133.976862,99.4075611 133.813038,99.6119378 133.606353,99.7730983 C133.399668,99.9342588 133.160599,100.055804 132.890099,100.135934 C132.619599,100.215164 132.345289,100.261982 132.067169,100.274586 C131.598555,100.296195 131.18328,100.238573 130.822296,100.102622 C130.460359,99.9675713 130.129853,99.7037723 129.830779,99.311225 L130.605134,98.5657453 C130.789912,98.7431118 130.992787,98.8988703 131.214712,99.0321203 C131.436636,99.1662706 131.702374,99.2256929 132.012878,99.2121878 C132.147176,99.2058855 132.284331,99.1842774 132.421486,99.1491642 C132.558641,99.1131507 132.679604,99.0609311 132.783423,98.9934057 C132.887241,98.9249801 132.971058,98.8412486 133.032969,98.7404108 C133.095831,98.6404733 133.123453,98.5270307 133.117738,98.4009834 C133.108213,98.2326203 133.052018,98.0957689 132.946294,97.9904294 C132.841523,97.8850899 132.717703,97.8040595 132.575785,97.7473382 C132.433868,97.6906169 132.284331,97.6465003 132.127174,97.6158889 C131.970017,97.584377 131.830957,97.5591676 131.710946,97.5393601 C131.477592,97.4907419 131.255668,97.4331203 131.045173,97.3664953 C130.834678,97.2998703 130.64609,97.2071355 130.481313,97.0873905 C130.315584,96.9685459 130.180334,96.8136878 130.07461,96.6246169 C129.968887,96.4346456 129.908881,96.1960561 129.894594,95.9097486 C129.878403,95.5973314 129.926026,95.3227284 130.037464,95.0850392 C130.14795,94.8482503 130.301297,94.6483753 130.496553,94.4881152 C130.690856,94.3269547 130.915638,94.2036084 131.169946,94.1162757 C131.424254,94.0280426 131.682372,93.978524 131.944301,93.9668196 C132.325287,93.9497132 132.694843,94.0091355 133.052018,94.1459868 C133.409193,94.2819378 133.699695,94.522328 133.925429,94.8671574 L133.12631,95.5739226 Z M125.952339,99.4876912 C126.239031,99.4750865 126.495245,99.4102622 126.720027,99.2941186 C126.945761,99.177975 127.133397,99.0258179 127.282934,98.8376473 C127.433423,98.6485764 127.544862,98.4234919 127.619154,98.1623939 C127.693446,97.9003956 127.722973,97.6185899 127.706781,97.3142757 C127.691542,97.0108618 127.633441,96.7317571 127.53248,96.4787622 C127.431518,96.2248669 127.297221,96.0114868 127.128634,95.8377216 C126.960048,95.6630561 126.758125,95.5280054 126.521914,95.4325696 C126.285702,95.3380341 126.024727,95.2966186 125.737082,95.3101236 C125.451342,95.3227284 125.195129,95.3866524 124.969395,95.5027959 C124.744613,95.6180392 124.556025,95.7701963 124.406488,95.9592672 C124.255998,96.1483382 124.14456,96.3734226 124.070267,96.6345206 C123.995022,96.8956186 123.966448,97.1783247 123.981688,97.4826389 C123.996927,97.786953 124.055028,98.0651574 124.155989,98.3190527 C124.25695,98.572948 124.391248,98.786328 124.560787,98.9609936 C124.729373,99.1347588 124.931296,99.2698095 125.167508,99.3652453 C125.403719,99.4597807 125.665647,99.5002959 125.952339,99.4876912 Z M122.569181,90.9587909 L123.644515,90.9119733 L123.872154,95.3425358 L123.895966,95.3416355 C124.070267,95.0202149 124.333148,94.7609176 124.682703,94.5637436 C125.031305,94.3665696 125.408481,94.2585291 125.814232,94.2405223 C126.252366,94.2207149 126.652402,94.2837385 127.014338,94.4277926 C127.377228,94.572747 127.690589,94.780725 127.955374,95.0517267 C128.22016,95.3227284 128.430655,95.6477503 128.585907,96.0258922 C128.740206,96.4031338 128.829738,96.8154885 128.852597,97.2629564 C128.875456,97.709524 128.829738,98.1263804 128.713537,98.511725 C128.598289,98.8979699 128.422083,99.2400983 128.186824,99.5381101 C127.950612,99.8370223 127.66011,100.073811 127.314365,100.250277 C126.967668,100.427644 126.576204,100.525781 126.13807,100.545588 C125.756131,100.563595 125.379907,100.491568 125.007493,100.330407 C124.636032,100.170147 124.338863,99.9333584 124.115033,99.6218416 L124.091221,99.6236422 L124.135035,100.484365 L123.059701,100.533884 L122.569181,90.9587909 Z M120.441373,97.1468128 C120.420419,96.8938179 120.370891,96.6633314 120.291836,96.4553534 C120.213734,96.2473753 120.102295,96.0682081 119.959426,95.9178517 C119.815603,95.7674953 119.639397,95.6531524 119.43176,95.5730223 C119.224122,95.4937926 118.984101,95.4595797 118.712648,95.4721845 C118.449768,95.4838889 118.210699,95.5469125 117.996394,95.6630561 C117.782089,95.7782993 117.603978,95.9241541 117.461108,96.0997199 C117.318238,96.2752858 117.209657,96.4688584 117.136317,96.6795375 C117.062978,96.8911169 117.031546,97.0972943 117.042023,97.3007706 L120.441373,97.1468128 Z M117.087742,98.2137132 C117.102029,98.4757115 117.167749,98.7125003 117.286807,98.9222791 C117.404913,99.1329581 117.556355,99.311225 117.740181,99.4552791 C117.923054,99.5993331 118.132597,99.708274 118.368808,99.7821017 C118.604067,99.8559294 118.845993,99.8874412 119.093634,99.8757368 C119.42795,99.8613314 119.715594,99.7649953 119.954663,99.5894294 C120.193732,99.4129632 120.409942,99.1851777 120.603292,98.9051726 L121.450034,99.5273061 C120.893794,100.374524 120.077531,100.822892 119.000293,100.87151 C118.553586,100.892218 118.144026,100.830995 117.772565,100.686041 C117.401103,100.542887 117.082027,100.334909 116.816289,100.062107 C116.549599,99.7911051 116.339104,99.4651828 116.183852,99.0870409 C116.0286,98.708899 115.940021,98.2947436 115.917162,97.8472757 C115.894302,97.3989074 115.946688,96.97935 116.075271,96.587703 C116.202901,96.1969564 116.390537,95.8530274 116.635321,95.5586169 C116.880104,95.2633061 117.178226,95.0283179 117.529686,94.8518517 C117.880193,94.6753855 118.266894,94.5772486 118.690741,94.5583416 C119.192691,94.5358331 119.622253,94.6096608 119.978475,94.7798247 C120.33565,94.9508889 120.632819,95.180475 120.870935,95.4703838 C121.110004,95.7602926 121.289068,96.0907166 121.407173,96.4625561 C121.526232,96.8334953 121.595762,97.2134378 121.615763,97.6023838 L121.635765,98.0075358 L117.087742,98.2137132 Z M104.162783,92.3804243 L105.364795,92.3273044 L107.602137,99.4318703 L107.625948,99.4309699 L109.268951,92.1553399 L110.590021,92.0968179 L112.956898,99.1887791 L112.98071,99.1878787 L114.486558,91.9248534 L115.685712,91.8717334 L113.6722,100.962445 L112.460664,101.018266 L110.025209,93.7750476 L110.001398,93.775948 L108.317438,101.207336 L107.103997,101.263157 L104.162783,92.3804243 Z" id="Fill-69" fill="#35495E"></path>
                                <polyline id="Stroke-105" stroke="#FEFEFE" stroke-width="1.44000006" stroke-linecap="round" stroke-linejoin="round" points="51.4159992 78.1400508 52.6522995 79.2978853 54.8334458 76.7904444"></polyline>
                            </g>
                        </g>
                    </g>
                </g>
            </g>
        </g>
    </g>
</svg>