<svg width="83" height="40" viewBox="0 0 83 40" fill="none" xmlns="http://www.w3.org/2000/svg">
<path d="M68.6946 30.54C62.3876 30.54 57.5746 25.643 57.5746 19.668C57.5746 13.734 62.4296 8.838 68.6946 8.838C75.0436 8.838 79.8566 13.776 79.8566 19.668C79.8566 25.643 75.0016 30.539 68.6946 30.539V30.54ZM68.6946 25.02C71.7246 25.02 73.9646 22.614 73.9646 19.71C73.9646 16.805 71.7246 14.398 68.6946 14.398C65.6656 14.398 63.4666 16.805 63.4666 19.709C63.4666 22.614 65.6656 25.02 68.6946 25.02ZM43.6796 40C38.8666 40 35.1736 37.884 33.3066 34.066L38.2026 31.411C39.1156 33.195 40.8166 34.606 43.5966 34.606C47.0826 34.606 49.4466 32.158 49.4466 28.133V27.759C48.3266 29.17 46.3356 30.249 43.4306 30.249C37.6626 30.249 33.0576 25.768 33.0576 19.668C33.0576 13.734 37.8706 8.88 44.1776 8.88C50.6086 8.88 55.3396 13.485 55.3396 19.668V27.967C55.3396 35.27 50.3596 40 43.6796 40ZM44.0946 24.689C47.0406 24.689 49.3646 22.489 49.3646 19.544C49.3646 16.597 47.0406 14.44 44.0946 14.44C41.1896 14.44 38.8666 16.598 38.8666 19.544C38.8666 22.49 41.1896 24.689 44.0946 24.689ZM20.6736 30.54C14.3666 30.54 9.55361 25.643 9.55361 19.668C9.55361 13.734 14.4076 8.838 20.6736 8.838C27.0216 8.838 31.8356 13.776 31.8356 19.668C31.8356 25.643 26.9806 30.539 20.6736 30.539V30.54ZM20.6736 25.02C23.7026 25.02 25.9436 22.614 25.9436 19.71C25.9436 16.805 23.7026 14.398 20.6736 14.398C17.6436 14.398 15.4456 16.805 15.4456 19.709C15.4456 22.614 17.6446 25.02 20.6736 25.02ZM0.599609 0H6.49161V30H0.599609V0ZM82.5996 6.5C82.5996 7.16304 82.3362 7.79893 81.8674 8.26777C81.3985 8.73661 80.7626 9 80.0996 9C79.4366 9 78.8007 8.73661 78.3318 8.26777C77.863 7.79893 77.5996 7.16304 77.5996 6.5C77.5996 5.83696 77.863 5.20107 78.3318 4.73223C78.8007 4.26339 79.4366 4 80.0996 4C80.7626 4 81.3985 4.26339 81.8674 4.73223C82.3362 5.20107 82.5996 5.83696 82.5996 6.5Z" fill="#1F2444"/>
<path d="M73.9648 19.7099C73.9648 22.6139 71.7238 25.0199 68.6948 25.0199C65.6648 25.0199 63.4668 22.6139 63.4668 19.7099C63.4668 16.8049 65.6658 14.3979 68.6948 14.3979C71.7238 14.3979 73.9648 16.8059 73.9648 19.7099Z" fill="white"/>
<path d="M49.3632 19.5439C49.3632 22.4899 47.0402 24.6889 44.0932 24.6889C41.1892 24.6889 38.8662 22.4889 38.8662 19.5439C38.8662 16.5969 41.1892 14.4399 44.0942 14.4399C47.0402 14.4399 49.3632 16.5979 49.3632 19.5439Z" fill="white"/>
<path d="M20.6733 25.0199C23.7023 25.0199 25.9433 22.6139 25.9433 19.7099C25.9433 16.8049 23.7023 14.3979 20.6733 14.3979C17.6433 14.3979 15.4453 16.8049 15.4453 19.7089C15.4453 22.6139 17.6443 25.0199 20.6733 25.0199Z" fill="white"/>
</svg>
