<svg width="168" height="34" viewBox="0 0 168 34" fill="none" xmlns="http://www.w3.org/2000/svg">
<path d="M159.311 8.604C164.902 8.604 167.6 12.509 167.6 17.032V25.527H161.749V18.04C161.749 15.99 161.001 14.298 158.856 14.298C156.711 14.298 155.996 15.99 155.996 18.04V25.526H150.145V18.04C150.145 15.99 149.43 14.298 147.284 14.298C145.139 14.298 144.391 15.99 144.391 18.04V25.526H138.541V17.031C138.541 12.508 141.238 8.603 146.829 8.603C149.885 8.603 152.095 9.807 153.103 11.792C154.175 9.807 156.516 8.602 159.311 8.602V8.604ZM128.027 20.32C129.912 20.32 130.725 18.595 130.725 16.544V9.254H136.575V17.26C136.575 22.044 133.78 26.015 128.027 26.015C122.273 26.015 119.478 22.045 119.478 17.26V9.254H125.329V16.544C125.329 18.594 126.141 20.32 128.027 20.32ZM110.875 26.047C107.202 26.047 104.829 24.778 103.431 22.305L107.657 19.929C108.242 20.97 109.119 21.491 110.582 21.491C111.785 21.491 112.337 21.068 112.337 20.547C112.337 18.562 103.756 20.58 103.756 14.267C103.756 11.207 106.356 8.734 110.777 8.734C114.645 8.734 116.758 10.621 117.701 12.444L113.475 14.852C113.118 13.876 112.012 13.29 110.907 13.29C110.062 13.29 109.607 13.648 109.607 14.136C109.607 16.154 118.188 14.299 118.188 20.417C118.188 23.834 114.84 26.047 110.875 26.047ZM90.4326 33.012H84.5816V17.358C84.5816 12.378 88.3196 8.766 93.5206 8.766C98.5916 8.766 102.46 12.639 102.46 17.358C102.46 22.565 99.0136 26.015 93.8456 26.015C92.6426 26.015 91.4406 25.657 90.4326 25.103V33.012ZM93.5206 20.515C95.3736 20.515 96.6086 19.083 96.6086 17.39C96.6086 15.666 95.3736 14.266 93.5206 14.266C91.6676 14.266 90.4326 15.666 90.4326 17.391C90.4326 19.083 91.6676 20.515 93.5206 20.515ZM78.7206 7.53C76.8026 7.53 75.2106 5.935 75.2106 4.015C75.2106 2.095 76.8026 0.5 78.7206 0.5C80.6386 0.5 82.2316 2.095 82.2316 4.015C82.2316 5.935 80.6386 7.53 78.7206 7.53ZM75.7956 9.254H81.6466V25.527H75.7956V9.254ZM64.5696 26.015C59.4986 26.015 55.6306 22.11 55.6306 17.358C55.6306 12.639 59.4986 8.734 64.5696 8.734C69.6406 8.734 73.5086 12.639 73.5086 17.358C73.5086 22.11 69.6406 26.015 64.5696 26.015ZM64.5696 20.515C66.4226 20.515 67.6576 19.083 67.6576 17.39C67.6576 15.666 66.4226 14.234 64.5696 14.234C62.7166 14.234 61.4816 15.666 61.4816 17.39C61.4816 19.083 62.7166 20.515 64.5696 20.515ZM44.5826 33.5C40.5526 33.5 37.6266 31.71 36.1316 28.52L40.9746 25.917C41.4946 27.024 42.4696 28.163 44.4846 28.163C46.5986 28.163 47.9956 26.828 48.1586 24.485C47.3786 25.169 46.1426 25.689 44.2906 25.689C39.7716 25.689 36.1306 22.207 36.1306 17.325C36.1306 12.607 39.9996 8.766 45.0706 8.766C50.2716 8.766 54.0096 12.379 54.0096 17.358V23.802C54.0096 29.66 49.9456 33.5 44.5826 33.5ZM44.9726 20.19C46.7276 20.19 48.0606 18.985 48.0606 17.195C48.0606 15.438 46.7286 14.266 44.9726 14.266C43.2496 14.266 41.8846 15.438 41.8846 17.196C41.8846 18.986 43.2496 20.189 44.9726 20.189V20.19ZM26.2066 26.015C21.1356 26.015 17.2666 22.11 17.2666 17.358C17.2666 12.639 21.1356 8.734 26.2066 8.734C31.2766 8.734 35.1456 12.639 35.1456 17.358C35.1456 22.11 31.2776 26.015 26.2066 26.015ZM26.2066 20.515C28.0596 20.515 29.2946 19.083 29.2946 17.39C29.2946 15.666 28.0596 14.234 26.2066 14.234C24.3536 14.234 23.1186 15.666 23.1186 17.39C23.1186 19.083 24.3536 20.515 26.2066 20.515ZM6.61261 3.56V19.994H16.2996V25.527H5.79961C2.09461 25.527 0.599609 23.574 0.599609 20.482V3.56H6.61261Z" fill="#1F2444"/>
</svg>
