<svg width="143" height="32" viewBox="0 0 143 32" fill="none" xmlns="http://www.w3.org/2000/svg">
<path fill-rule="evenodd" clip-rule="evenodd" d="M12.6167 22.4C11.5543 22.4 10.5354 21.9786 9.78421 21.2284C9.033 20.4783 8.61097 19.4609 8.61097 18.4V0H0.599609V18.4C0.599609 25.0272 5.98004 30.4 12.6167 30.4H21.4292V22.4H12.6167ZM36.6507 8C35.7039 8 34.7663 8.18623 33.8915 8.54807C33.0167 8.9099 32.2219 9.44025 31.5523 10.1088C30.8828 10.7774 30.3517 11.5711 29.9894 12.4447C29.627 13.3182 29.4405 14.2545 29.4405 15.2C29.4405 16.1455 29.627 17.0818 29.9894 17.9553C30.3517 18.8289 30.8828 19.6226 31.5523 20.2912C32.2219 20.9598 33.0167 21.4901 33.8915 21.8519C34.7663 22.2138 35.7039 22.4 36.6507 22.4C38.563 22.4 40.397 21.6414 41.7491 20.2912C43.1013 18.9409 43.861 17.1096 43.861 15.2C43.861 13.2904 43.1013 11.4591 41.7491 10.1088C40.397 8.75857 38.563 8 36.6507 8ZM21.4292 15.2C21.4292 6.8056 28.2444 0 36.6507 0C45.0571 0 51.8723 6.8056 51.8723 15.2C51.8723 23.5944 45.0571 30.4 36.6507 30.4C28.2444 30.4 21.4292 23.5944 21.4292 15.2ZM123.173 8C121.261 8 119.427 8.75857 118.075 10.1088C116.723 11.4591 115.963 13.2904 115.963 15.2C115.963 17.1096 116.723 18.9409 118.075 20.2912C119.427 21.6414 121.261 22.4 123.173 22.4C125.086 22.4 126.92 21.6414 128.272 20.2912C129.624 18.9409 130.384 17.1096 130.384 15.2C130.384 13.2904 129.624 11.4591 128.272 10.1088C126.92 8.75857 125.086 8 123.173 8ZM107.952 15.2C107.952 6.8056 114.767 0 123.173 0C131.58 0 138.395 6.8056 138.395 15.2C138.395 23.5944 131.58 30.4 123.173 30.4C114.767 30.4 107.952 23.5944 107.952 15.2ZM68.6962 0C60.2899 0 53.4746 6.8056 53.4746 15.2C53.4746 23.5944 60.2899 30.4 68.6962 30.4H91.128C92.7055 30.4 94.2268 30.16 95.6576 29.7152L99.9405 32L104.561 23.3568C105.735 21.1565 106.349 18.7018 106.35 16.2088V15.2C106.35 6.8056 99.5343 0 91.128 0H68.6962ZM98.3382 15.2C98.3382 13.2904 97.5786 11.4591 96.2264 10.1088C94.8742 8.75857 93.0403 8 91.128 8H68.6962C67.7493 8 66.8118 8.18623 65.937 8.54807C65.0622 8.9099 64.2673 9.44025 63.5978 10.1088C62.9283 10.7774 62.3972 11.5711 62.0348 12.4447C61.6725 13.3182 61.486 14.2545 61.486 15.2C61.486 16.1455 61.6725 17.0818 62.0348 17.9553C62.3972 18.8289 62.9283 19.6226 63.5978 20.2912C64.2673 20.9598 65.0622 21.4901 65.937 21.8519C66.8118 22.2138 67.7493 22.4 68.6962 22.4H91.128C93.0306 22.4001 94.8561 21.6492 96.2067 20.311C97.5573 18.9728 98.3234 17.1558 98.3382 15.256V15.2Z" fill="#1F2444"/>
<path d="M142.401 16C142.401 16.5304 142.19 17.0391 141.815 17.4142C141.439 17.7893 140.93 18 140.398 18C139.867 18 139.358 17.7893 138.982 17.4142C138.607 17.0391 138.396 16.5304 138.396 16C138.396 15.4696 138.607 14.9609 138.982 14.5858C139.358 14.2107 139.867 14 140.398 14C140.93 14 141.439 14.2107 141.815 14.5858C142.19 14.9609 142.401 15.4696 142.401 16Z" fill="#1F2444"/>
</svg>
