<svg width="21" height="20" viewBox="0 0 21 20" fill="none" xmlns="http://www.w3.org/2000/svg">
<g clip-path="url(#clip0_169_927)">
<path d="M15.2413 9.375H3.625C3.45924 9.375 3.30027 9.44084 3.18306 9.55805C3.06585 9.67526 3 9.83424 3 10C3 10.1658 3.06585 10.3247 3.18306 10.4419C3.30027 10.5591 3.45924 10.625 3.625 10.625H15.2413L10.6825 15.1825C10.5651 15.2999 10.4992 15.459 10.4992 15.625C10.4992 15.791 10.5651 15.9501 10.6825 16.0675C10.7999 16.1849 10.959 16.2508 11.125 16.2508C11.291 16.2508 11.4501 16.1849 11.5675 16.0675L17.1925 10.4425C17.2507 10.3844 17.2969 10.3155 17.3284 10.2395C17.3599 10.1636 17.3761 10.0822 17.3761 10C17.3761 9.91779 17.3599 9.83639 17.3284 9.76045C17.2969 9.68452 17.2507 9.61555 17.1925 9.5575L11.5675 3.9325C11.4501 3.81514 11.291 3.74921 11.125 3.74921C10.959 3.74921 10.7999 3.81514 10.6825 3.9325C10.5651 4.04985 10.4992 4.20903 10.4992 4.375C10.4992 4.54097 10.5651 4.70014 10.6825 4.8175L15.2413 9.375Z" fill="white"/>
</g>
<defs>
<clipPath id="clip0_169_927">
<rect width="20" height="20" fill="white" transform="translate(0.5)"/>
</clipPath>
</defs>
</svg>
