<svg width="80" height="80" viewBox="0 0 80 80" fill="none" xmlns="http://www.w3.org/2000/svg">
<g clip-path="url(#clip0_198_108)">
<g clip-path="url(#clip1_198_108)">
<path d="M0 40.0006C0 56.38 9.84938 70.4512 23.9434 76.6378C23.8309 73.8447 23.9234 70.4916 24.6397 67.4525C25.4088 64.2053 29.7866 45.6563 29.7866 45.6563C29.7866 45.6563 28.5087 43.1022 28.5087 39.3275C28.5087 33.3997 31.9444 28.9725 36.2231 28.9725C39.8616 28.9725 41.6194 31.7053 41.6194 34.9778C41.6194 38.6353 39.2866 44.1062 38.0869 49.1734C37.0847 53.4166 40.2144 56.8775 44.4003 56.8775C51.9791 56.8775 57.0834 47.1434 57.0834 35.6103C57.0834 26.8434 51.1787 20.2816 40.4391 20.2816C28.3053 20.2816 20.7463 29.3303 20.7463 39.4378C20.7463 42.9228 21.7737 45.3803 23.3831 47.2834C24.1231 48.1575 24.2259 48.5091 23.9581 49.5128C23.7663 50.2487 23.3256 52.0206 23.1431 52.7228C22.8769 53.7359 22.0559 54.0981 21.1403 53.7241C15.5516 51.4425 12.9488 45.3222 12.9488 38.4422C12.9488 27.0794 22.5319 13.4544 41.5369 13.4544C56.8087 13.4544 66.8603 24.5056 66.8603 36.3684C66.8603 52.06 58.1366 63.7828 45.2772 63.7828C40.9587 63.7828 36.8966 61.4484 35.505 58.7969C35.505 58.7969 33.1828 68.0131 32.6909 69.7928C31.8428 72.8769 30.1828 75.9594 28.665 78.3619C32.3455 79.4501 36.1636 80.0025 40.0016 80.0022C62.0903 80.0022 80.0003 62.0931 80.0003 40.0006C80.0003 17.9091 62.0903 0 40.0016 0C17.9106 0 0 17.9091 0 40.0006Z" fill="#CB1F27"/>
</g>
</g>
<defs>
<clipPath id="clip0_198_108">
<rect width="80" height="80" fill="white"/>
</clipPath>
<clipPath id="clip1_198_108">
<rect width="80" height="80" fill="white"/>
</clipPath>
</defs>
</svg>
