<svg width="80" height="80" viewBox="0 0 80 80" fill="none" xmlns="http://www.w3.org/2000/svg">
<g clip-path="url(#clip0_198_75)">
<g clip-path="url(#clip1_198_75)">
<path d="M39.9999 0.0429688C17.9714 0.0429688 0.0478516 17.9616 0.0478516 39.993C0.0478516 62.0245 17.9724 79.9431 39.9999 79.9431C62.0274 79.9431 79.948 62.0215 79.948 39.993C79.948 17.9646 62.0274 0.0429688 39.9999 0.0429688Z" fill="#025450"/>
<path d="M59.9738 28.809H36.2854C35.9718 28.809 35.7061 29.0337 35.6532 29.3423L34.5466 35.8332C34.5146 36.02 34.5666 36.2107 34.6884 36.3545C34.8102 36.4994 34.989 36.5823 35.1788 36.5823H50.3678C50.6844 36.5823 50.984 36.7211 51.1888 36.9638C51.3935 37.2055 51.4804 37.5241 51.4265 37.8367L48.8247 53.0976C48.3873 55.6654 45.9403 57.7538 43.3715 57.7538H31.3516C31.038 57.7538 30.7713 57.9785 30.7194 58.2871L29.6127 64.779C29.5808 64.9658 29.6327 65.1565 29.7546 65.3004C29.8764 65.4452 30.0552 65.5281 30.245 65.5281H41.9723C48.8657 65.5281 55.4305 59.9191 56.606 53.0247L60.607 29.557C60.639 29.3703 60.587 29.1795 60.4652 29.0357C60.3433 28.8919 60.1646 28.808 59.9748 28.808L59.9738 28.809Z" fill="white"/>
<path d="M42.5218 50.6427L43.6284 44.1508C43.6603 43.9641 43.6084 43.7733 43.4866 43.6295C43.3647 43.4847 43.1859 43.4018 42.9962 43.4018H31.2688C30.0224 43.4018 28.9258 42.9164 28.1817 42.0345C27.4236 41.1356 27.125 39.9421 27.3417 38.6727L29.3512 26.8864C29.7887 24.3186 32.2346 22.2302 34.8044 22.2302H46.8244C47.138 22.2302 47.4037 22.0055 47.4566 21.6969L48.5632 15.205C48.5952 15.0183 48.5432 14.8275 48.4204 14.6827C48.2975 14.5379 48.1198 14.455 47.93 14.455H36.2027C29.3093 14.455 22.7445 20.0639 21.569 26.9583L19.5595 38.7446C18.9882 42.0974 19.7682 45.2415 21.7567 47.5975C23.7043 49.9046 26.5847 51.1761 29.8686 51.1761H41.8886C42.2022 51.1761 42.4688 50.9513 42.5208 50.6427H42.5218Z" fill="white"/>
<path d="M71.3323 72.2527V72.8859H69.9919V76.5973H69.2778V72.8859H67.9375V72.2527H71.3323Z" fill="#025450"/>
<path d="M72.7979 72.2527L74.1882 75.6724L75.5535 72.2527H76.4593V76.5963H75.7702V73.4003L74.4668 76.5963H73.8646L72.5612 73.4003V76.5963H71.8721V72.2527H72.7969H72.7979Z" fill="#025450"/>
</g>
</g>
<defs>
<clipPath id="clip0_198_75">
<rect width="80" height="80" fill="white"/>
</clipPath>
<clipPath id="clip1_198_75">
<rect width="80" height="80" fill="white"/>
</clipPath>
</defs>
</svg>
