<svg width="80" height="80" viewBox="0 0 80 80" fill="none" xmlns="http://www.w3.org/2000/svg">
<g clip-path="url(#clip0_198_61)">
<g clip-path="url(#clip1_198_61)">
<path fill-rule="evenodd" clip-rule="evenodd" d="M39.9996 6.66663C34.6952 6.66663 29.6082 8.77376 25.8574 12.5245C22.1067 16.2752 19.9996 21.3623 19.9996 26.6666V32.9166L16.9996 30.6666C16.6494 30.404 16.2509 30.2129 15.8268 30.1042C15.4028 29.9956 14.9615 29.9716 14.5282 30.0335C14.0948 30.0954 13.6779 30.242 13.3013 30.465C12.9246 30.6881 12.5955 30.9831 12.3329 31.3333C12.0703 31.6835 11.8792 32.082 11.7705 32.506C11.6619 32.9301 11.6378 33.3714 11.6997 33.8047C11.7616 34.238 11.9083 34.6549 12.1313 35.0316C12.3543 35.4083 12.6494 35.7373 12.9996 36L19.2196 40.6666C17.7396 44.56 14.1296 48.6333 8.28623 52.1433C7.90296 52.3785 7.5707 52.6882 7.30907 53.054C7.04743 53.4197 6.86173 53.8342 6.76293 54.2729C6.66412 54.7116 6.65421 55.1657 6.73379 55.6083C6.81336 56.0509 6.98081 56.4731 7.22623 56.85C10.9529 62.44 16.8662 66.6666 23.3329 66.6666C29.2796 66.6666 33.3562 73.3333 39.9996 73.3333C46.7029 73.3333 50.6962 66.6666 56.6662 66.6666C63.1329 66.6666 69.0462 62.44 72.7729 56.85C73.0183 56.4731 73.1858 56.0509 73.2653 55.6083C73.3449 55.1657 73.335 54.7116 73.2362 54.2729C73.1374 53.8342 72.9517 53.4197 72.6901 53.054C72.4284 52.6882 72.0962 52.3785 71.7129 52.1433C65.8696 48.6333 62.2596 44.56 60.7796 40.6666L66.9996 36C67.7068 35.4695 68.1744 34.6799 68.2994 33.8047C68.4244 32.9295 68.1967 32.0405 67.6662 31.3333C67.1358 30.626 66.3461 30.1585 65.471 30.0335C64.5958 29.9084 63.7068 30.1362 62.9996 30.6666L59.9996 32.9166V26.6666C59.9996 21.3623 57.8924 16.2752 54.1417 12.5245C50.391 8.77376 45.3039 6.66663 39.9996 6.66663Z" fill="black"/>
</g>
</g>
<defs>
<clipPath id="clip0_198_61">
<rect width="80" height="80" fill="white"/>
</clipPath>
<clipPath id="clip1_198_61">
<rect width="80" height="80" fill="white"/>
</clipPath>
</defs>
</svg>
