<svg width="80" height="80" viewBox="0 0 80 80" fill="none" xmlns="http://www.w3.org/2000/svg">
<g clip-path="url(#clip0_198_32)">
<path d="M57.3365 28.8058C62.489 32.4872 68.8013 34.6533 75.6187 34.6533V21.5415C74.3284 21.542 73.0415 21.4074 71.7792 21.1399V31.4607C64.9624 31.4607 58.651 29.2949 53.4973 25.6138V52.3713C53.4973 65.757 42.6405 76.6072 29.249 76.6072C24.2523 76.6072 19.6079 75.0974 15.75 72.5079C20.1533 77.008 26.294 79.7995 33.0874 79.7995C46.4799 79.7995 57.337 68.9493 57.337 55.5631V28.8058H57.3365ZM62.073 15.5777C59.4397 12.7024 57.7106 8.9865 57.3365 4.87836V3.19202H53.6981C54.614 8.41326 57.7381 12.8739 62.073 15.5777ZM24.2201 62.2364C22.7487 60.3086 21.9534 57.9498 21.9572 55.5247C21.9572 49.4028 26.923 44.4389 33.0496 44.4389C34.1912 44.4383 35.326 44.6135 36.4143 44.9584V31.5534C35.1426 31.3793 33.8592 31.3051 32.5765 31.3324V41.7661C31.4877 41.4211 30.3523 41.246 29.2101 41.2469C23.0838 41.2469 18.1183 46.2102 18.1183 52.333C18.1183 56.6624 20.6002 60.4105 24.2201 62.2364Z" fill="#FF004F"/>
<path d="M53.4971 25.6135C58.651 29.2946 64.9619 31.4604 71.779 31.4604V21.1396C67.9738 20.3294 64.6052 18.3421 62.0725 15.5777C57.7374 12.8737 54.6138 8.41298 53.6979 3.19202H44.1412V55.5625C44.1194 61.6679 39.1622 66.6113 33.0488 66.6113C29.4466 66.6113 26.246 64.8952 24.2193 62.2362C20.6 60.4105 18.1178 56.6621 18.1178 52.3333C18.1178 46.211 23.0833 41.2472 29.2096 41.2472C30.3834 41.2472 31.5147 41.4298 32.576 41.7664V31.3327C19.4196 31.6044 8.83887 42.3487 8.83887 55.5628C8.83887 62.1592 11.4736 68.139 15.75 72.5084C19.608 75.0974 24.2521 76.6077 29.2491 76.6077C42.6408 76.6077 53.4973 65.7567 53.4973 52.3713L53.4971 25.6135Z" fill="black"/>
<path d="M71.7793 21.1393V18.3492C68.3479 18.3542 64.9843 17.3938 62.0728 15.5777C64.6499 18.3976 68.0434 20.3422 71.7793 21.1399M53.6979 3.19172C53.6107 2.69285 53.5437 2.19064 53.4971 1.68634V0H40.3015V52.371C40.2806 58.4759 35.3233 63.4193 29.2097 63.4193C27.4765 63.4219 25.767 63.0168 24.2193 62.2367C26.2461 64.8952 29.4466 66.611 33.0488 66.611C39.1619 66.611 44.1197 61.6681 44.1412 55.5628V3.192L53.6979 3.19172ZM32.5768 31.3324V28.3617C31.4742 28.2111 30.3625 28.1357 29.2497 28.136C15.8566 28.136 5 38.9868 5 52.371C5 60.7625 9.26676 68.1578 15.7506 72.5079C11.4742 68.1388 8.83945 62.1586 8.83945 55.5625C8.83945 42.3487 19.4199 31.6041 32.5768 31.3324Z" fill="#00F2EA"/>
</g>
<defs>
<clipPath id="clip0_198_32">
<rect width="70.6207" height="80" fill="white" transform="translate(5)"/>
</clipPath>
</defs>
</svg>
