<svg width="80" height="80" viewBox="0 0 80 80" fill="none" xmlns="http://www.w3.org/2000/svg">
<g clip-path="url(#clip0_198_126)">
<path d="M40.6858 25.1643C39.2151 25.3352 38.0934 26.5296 37.9891 28.036C37.9442 28.6849 37.9582 28.7288 39.4295 32.5148C42.7765 41.128 43.5875 43.201 43.7238 43.4927C44.0543 44.1993 44.5188 44.8639 45.0994 45.4606C45.5448 45.9183 45.8386 46.1645 46.3353 46.4965C47.2087 47.0797 47.6419 47.2408 51.04 48.247C54.3499 49.2272 56.1584 49.8785 57.7165 50.6519C59.7353 51.654 61.144 52.7936 62.0349 54.1459C62.6741 55.1162 63.2402 56.8562 63.4864 58.6078C63.5829 59.2925 63.5833 60.8059 63.4877 61.4249C63.2798 62.7684 62.8648 63.8942 62.2297 64.8362C61.892 65.3373 62.0095 65.2534 62.5005 64.6426C63.8901 62.915 65.3056 59.9622 66.0279 57.2845C66.9021 54.0437 67.0211 50.5637 66.3701 47.2701C65.1027 40.856 61.0534 35.3206 55.3508 32.2061C54.9924 32.0103 53.6277 31.2948 51.7774 30.3329C51.4935 30.1853 51.2099 30.0373 50.9264 29.8888C50.7394 29.7905 50.3565 29.5905 50.0757 29.4447C49.7949 29.2987 48.9866 28.8777 48.2796 28.5088L46.5213 27.5921C45.9476 27.2931 45.3741 26.9937 44.8009 26.6938C42.9673 25.734 42.1912 25.3459 41.9699 25.2787C41.738 25.208 41.1485 25.1175 41.0007 25.1296C40.9693 25.1321 40.8279 25.1478 40.6858 25.1643Z" fill="url(#paint0_radial_198_126)"/>
<path d="M44.6824 57.3183C44.5807 57.3785 44.4382 57.4655 44.3655 57.5117C44.2925 57.5581 44.131 57.6585 44.0061 57.735C43.0981 58.2934 42.1906 58.8526 41.2836 59.4127C40.7284 59.7552 40.1738 60.0987 39.6197 60.443C39.3747 60.5954 39.129 60.7465 38.8824 60.8962C38.7888 60.9521 38.389 61.1983 37.9937 61.4434C37.4838 61.7595 36.9733 62.0747 36.4624 62.389C35.8695 62.7536 35.277 63.119 34.685 63.4851C34.1688 63.8045 33.6521 64.1232 33.1349 64.4412C32.8125 64.6389 32.5147 64.8298 32.4731 64.8655C32.4112 64.9185 29.5442 66.6944 28.1057 67.5709C27.0129 68.2364 25.749 68.6816 24.4551 68.8564C23.8529 68.9379 22.7129 68.9381 22.1123 68.8571C20.4834 68.6371 18.9832 68.0296 17.698 67.0702C17.1941 66.6937 16.245 65.7455 15.8824 65.2558C15.0273 64.1016 14.4743 62.8637 14.1879 61.4628C14.122 61.1404 14.0597 60.8682 14.0494 60.8577C14.0226 60.8309 14.071 61.3177 14.1582 61.9544C14.249 62.6164 14.4422 63.5742 14.6504 64.3933C16.2615 70.7321 20.8463 75.888 27.0525 78.341C28.8397 79.0469 30.6432 79.4919 32.6055 79.71C33.3428 79.7925 35.43 79.8255 36.1993 79.7669C39.7286 79.4997 42.8013 78.461 45.9535 76.4688C46.2343 76.2915 46.7617 75.9587 47.1257 75.7296C47.4667 75.515 47.8071 75.2991 48.1467 75.0822C48.3442 74.9554 48.5826 74.8057 48.676 74.7494C48.8158 74.6641 48.9545 74.5769 49.0921 74.488C49.2273 74.4006 49.8057 74.0344 50.3776 73.6748L52.6646 72.2302L53.45 71.7342L53.4782 71.7164L53.5648 71.6618L53.6059 71.6358L54.184 71.2707L56.182 70.0086C58.7279 68.4088 59.4871 67.8472 60.6698 66.6886C61.163 66.2057 61.9063 65.3814 61.9432 65.2766C61.9508 65.2552 62.083 65.0515 62.2368 64.8236C62.8628 63.8975 63.2801 62.7628 63.4871 61.4249C63.583 60.8059 63.5824 59.2925 63.4861 58.6078C63.2999 57.2841 62.8768 55.7826 62.4207 54.8265C61.6729 53.2589 60.0799 51.8344 57.7912 50.6872C57.1593 50.3702 56.5067 50.0804 56.4339 50.0843C56.3993 50.0861 54.2696 51.3878 51.7011 52.9771C49.1327 54.5667 46.9036 55.9461 46.7475 56.043C46.5914 56.1399 46.3236 56.3034 46.1521 56.4067L44.6824 57.3183Z" fill="url(#paint1_radial_198_126)"/>
<path d="M14.0109 49.6934L14.0221 60.7633L14.1654 61.4062C14.6132 63.4159 15.3895 64.865 16.739 66.2108C17.3736 66.8438 17.859 67.2256 18.5468 67.6326C20.0025 68.4939 21.5689 68.9188 23.2845 68.9182C25.0816 68.9172 26.6363 68.4689 28.2381 67.4897C28.5085 67.3246 29.5678 66.6724 30.592 66.0405L32.4542 64.8916V38.6235L32.4538 26.6085C32.4534 18.9431 32.4394 14.3908 32.4151 14.0336C32.2625 11.7893 31.3237 9.72602 29.7454 8.1654C29.261 7.68643 28.8472 7.36643 27.6142 6.51798C26.7822 5.9453 25.9503 5.37238 25.1186 4.79921L19.9004 1.20313C18.7089 0.38148 18.6157 0.324573 18.2555 0.195707C17.787 0.0280779 17.2905 -0.0335716 16.8186 0.0173562C15.4429 0.16581 14.3416 1.15921 14.0555 2.50952C14.0109 2.71983 14.0027 5.51571 14.0021 20.6908L14.0014 38.6238H14L14.0109 49.6934Z" fill="url(#paint2_linear_198_126)"/>
</g>
<defs>
<radialGradient id="paint0_radial_198_126" cx="0" cy="0" r="1" gradientUnits="userSpaceOnUse" gradientTransform="translate(604.049 -2960.56) rotate(-140.294) scale(3509.36 4843.46)">
<stop stop-color="#00CACC"/>
<stop offset="1" stop-color="#048FCE"/>
</radialGradient>
<radialGradient id="paint1_radial_198_126" cx="0" cy="0" r="1" gradientUnits="userSpaceOnUse" gradientTransform="translate(906.992 1726.38) rotate(-35.5312) scale(5036.85 3948.22)">
<stop stop-color="#00BBEC"/>
<stop offset="1" stop-color="#2756A9"/>
</radialGradient>
<linearGradient id="paint2_linear_198_126" x1="936.711" y1="0" x2="936.711" y2="6891.82" gradientUnits="userSpaceOnUse">
<stop stop-color="#00BBEC"/>
<stop offset="1" stop-color="#2756A9"/>
</linearGradient>
<clipPath id="clip0_198_126">
<rect width="52.7835" height="80" fill="white" transform="translate(14)"/>
</clipPath>
</defs>
</svg>
