<svg width="80" height="80" viewBox="0 0 80 80" fill="none" xmlns="http://www.w3.org/2000/svg">
<g clip-path="url(#clip0_201_7)">
<path d="M23.3333 26.6667C21.5 26.6667 20 28.1667 20 30V50C20 53.6667 23 56.6667 26.6667 56.6667H53.3333C55.1667 56.6667 56.6667 55.1667 56.6667 53.3333C56.6667 51.5 55.1667 50 53.3333 50H26.6667V30C26.6667 28.1667 25.1667 26.6667 23.3333 26.6667Z" fill="#892663"/>
<path d="M66.667 10H40.0003C36.3337 10 33.3337 13 33.3337 16.6667V36.6667C33.3337 40.3333 36.3337 43.3333 40.0003 43.3333H66.667C70.3337 43.3333 73.3337 40.3333 73.3337 36.6667V16.6667C73.3337 13 70.3337 10 66.667 10ZM66.667 36.6667H40.0003V23.3333H66.667V36.6667ZM10.0003 40C8.16699 40 6.66699 41.5 6.66699 43.3333V63.3333C6.66699 67 9.66699 70 13.3337 70H40.0003C41.8337 70 43.3337 68.5 43.3337 66.6667C43.3337 64.8333 41.8337 63.3333 40.0003 63.3333H13.3337V43.3333C13.3337 41.5 11.8337 40 10.0003 40Z" fill="#892663"/>
</g>
<defs>
<clipPath id="clip0_201_7">
<rect width="80" height="80" fill="white"/>
</clipPath>
</defs>
</svg>
