<svg width="80" height="80" viewBox="0 0 80 80" fill="none" xmlns="http://www.w3.org/2000/svg">
<path d="M27.8688 2.63124C19.8756 5.40417 12.9822 10.6673 8.20128 17.6475C3.42033 24.6277 1.00378 32.9571 1.3066 41.4123C1.60942 49.8674 4.61564 58.0026 9.88369 64.6229C15.1517 71.2432 22.404 75.9997 30.5751 78.1937C37.1996 79.9031 44.1401 79.9782 50.8001 78.4125C56.8333 77.0573 62.4112 74.1585 66.9876 70C71.7506 65.5397 75.2078 59.8655 76.9876 53.5875C78.9221 46.7604 79.2663 39.5808 77.9938 32.6H40.7938V48.0312H62.3376C61.907 50.4924 60.9843 52.8414 59.6248 54.9377C58.2652 57.034 56.4967 58.8344 54.4251 60.2312C51.7943 61.9714 48.8288 63.1423 45.7188 63.6687C42.5997 64.2487 39.4004 64.2487 36.2813 63.6687C33.12 63.0151 30.1295 61.7103 27.5001 59.8375C23.276 56.8474 20.1043 52.5995 18.4376 47.7C16.7427 42.7087 16.7427 37.2975 18.4376 32.3062C19.624 28.8076 21.5853 25.6221 24.1751 22.9875C27.1388 19.9172 30.8909 17.7225 35.0198 16.6442C39.1487 15.566 43.4948 15.6458 47.5813 16.875C50.7736 17.8549 53.6929 19.5671 56.1063 21.875C58.5355 19.4583 60.9605 17.0354 63.3813 14.6062C64.6313 13.3 65.9938 12.0562 67.2251 10.7187C63.5411 7.29047 59.2168 4.62284 54.5001 2.86874C45.9107 -0.250075 36.5124 -0.33389 27.8688 2.63124Z" fill="white"/>
<path d="M27.8684 2.63122C36.5113 -0.33592 45.9095 -0.254311 54.4996 2.86247C59.2172 4.6285 63.5395 7.30896 67.2184 10.75C65.9684 12.0875 64.6496 13.3375 63.3746 14.6375C60.9496 17.0583 58.5267 19.4708 56.1059 21.875C53.6924 19.5671 50.7732 17.8549 47.5809 16.875C43.4957 15.6415 39.1497 15.557 35.0197 16.6309C30.8897 17.7047 27.1353 19.8954 24.1684 22.9625C21.5786 25.5971 19.6173 28.7826 18.4309 32.2812L5.47461 22.25C10.1122 13.0535 18.1418 6.01887 27.8684 2.63122Z" fill="#E33629"/>
<path d="M2.03768 32.1875C2.73406 28.7362 3.8902 25.3939 5.47518 22.25L18.4314 32.3062C16.7365 37.2975 16.7365 42.7087 18.4314 47.7C14.1148 51.0333 9.79601 54.3833 5.47518 57.75C1.50737 49.852 0.297257 40.8531 2.03768 32.1875Z" fill="#F8BD00"/>
<path d="M40.7938 32.5938H77.9938C79.2663 39.5746 78.922 46.7542 76.9875 53.5813C75.2078 59.8592 71.7505 65.5334 66.9875 69.9937C62.8063 66.7312 58.6063 63.4938 54.425 60.2313C56.498 58.833 58.2674 57.0306 59.627 54.9321C60.9866 52.8336 61.9086 50.4821 62.3375 48.0188H40.7938C40.7875 42.8813 40.7938 37.7375 40.7938 32.5938Z" fill="#587DBD"/>
<path d="M5.46875 57.75C9.78958 54.4166 14.1083 51.0666 18.425 47.7C20.095 52.6012 23.2713 56.8493 27.5 59.8375C30.1375 61.7016 33.1346 62.9958 36.3 63.6375C39.4191 64.2174 42.6184 64.2174 45.7375 63.6375C48.8475 63.111 51.813 61.9401 54.4438 60.2C58.625 63.4625 62.825 66.7 67.0062 69.9625C62.4306 74.1232 56.8526 77.0242 50.8187 78.3812C44.1588 79.9469 37.2183 79.8718 30.5938 78.1624C25.3544 76.7635 20.4605 74.2974 16.2188 70.9187C11.7291 67.3542 8.06222 62.8623 5.46875 57.75Z" fill="#319F43"/>
</svg>
