<svg width="41" height="41" viewBox="0 0 41 41" fill="none" xmlns="http://www.w3.org/2000/svg">
<path d="M29.9825 19.2501H6.75C6.41848 19.2501 6.10054 19.3818 5.86612 19.6162C5.6317 19.8507 5.5 20.1686 5.5 20.5001C5.5 20.8316 5.6317 21.1496 5.86612 21.384C6.10054 21.6184 6.41848 21.7501 6.75 21.7501H29.9825L20.865 30.8651C20.6303 31.0998 20.4984 31.4182 20.4984 31.7501C20.4984 32.0821 20.6303 32.4004 20.865 32.6351C21.0997 32.8698 21.4181 33.0017 21.75 33.0017C22.0819 33.0017 22.4003 32.8698 22.635 32.6351L33.885 21.3851C34.0014 21.269 34.0938 21.1311 34.1568 20.9792C34.2198 20.8273 34.2522 20.6645 34.2522 20.5001C34.2522 20.3357 34.2198 20.1729 34.1568 20.021C34.0938 19.8692 34.0014 19.7312 33.885 19.6151L22.635 8.36511C22.4003 8.1304 22.0819 7.99854 21.75 7.99854C21.4181 7.99854 21.0997 8.1304 20.865 8.36511C20.6303 8.59983 20.4984 8.91817 20.4984 9.25011C20.4984 9.58205 20.6303 9.9004 20.865 10.1351L29.9825 19.2501Z" fill="#892663"/>
</svg>
