<svg width="54" height="61" viewBox="0 0 54 61" fill="none" xmlns="http://www.w3.org/2000/svg">
<g clip-path="url(#clip0_217_119)">
<path d="M46.8784 12.2823C46.8371 11.9823 46.5743 11.8163 46.3571 11.798C44.7556 11.6776 43.154 11.5582 41.5524 11.4398C41.5524 11.4398 38.366 8.27646 38.0163 7.92632C37.6664 7.57639 36.9829 7.68283 36.7177 7.76091C36.6786 7.77242 36.0215 7.97522 34.9345 8.31159C33.8701 5.24872 31.9916 2.43406 28.6869 2.43406C28.5957 2.43406 28.5018 2.43776 28.4079 2.4431C27.468 1.20016 26.3038 0.660156 25.2982 0.660156C17.5999 0.660156 13.922 10.2838 12.7688 15.1742C9.77747 16.1011 7.6524 16.7601 7.38096 16.8454C5.71123 17.3691 5.65842 17.4217 5.43918 18.9951C5.27418 20.1863 0.905273 53.973 0.905273 53.973L34.9487 60.3515L53.3946 56.3611C53.3946 56.3611 46.9191 12.5823 46.8784 12.2823ZM33.0529 8.89351L30.1723 9.78509C30.1734 9.58207 30.1744 9.38235 30.1744 9.16392C30.1744 7.26036 29.9101 5.72769 29.4862 4.51269C31.189 4.72639 32.3231 6.66386 33.0529 8.89351ZM27.3739 4.89016C27.8473 6.07639 28.1551 7.77879 28.1551 10.076C28.1551 10.1936 28.1541 10.301 28.1531 10.4097C26.2797 10.99 24.244 11.62 22.2038 12.2521C23.3494 7.83098 25.4966 5.69564 27.3739 4.89016ZM25.0867 2.72502C25.419 2.72502 25.7537 2.83783 26.074 3.05831C23.6068 4.21927 20.9623 7.14324 19.8455 12.9823L15.1429 14.4388C16.451 9.98502 19.5573 2.72502 25.0867 2.72502Z" fill="#95BF46"/>
<path d="M46.357 11.7977C44.7555 11.6773 43.1539 11.5579 41.5523 11.4395C41.5523 11.4395 38.3659 8.27615 38.0162 7.92602C37.8853 7.79574 37.7088 7.72896 37.5242 7.7002L34.9502 60.3508L53.3944 56.3608C53.3944 56.3608 46.919 12.582 46.8783 12.282C46.837 11.982 46.5742 11.8159 46.357 11.7977Z" fill="#5E8E3E"/>
<path d="M28.6874 21.99L26.4129 28.7556C26.4129 28.7556 24.4202 27.6921 21.9774 27.6921C18.3963 27.6921 18.2161 29.9394 18.2161 30.5057C18.2161 33.5957 26.2709 34.7797 26.2709 42.0175C26.2709 47.7119 22.6592 51.3787 17.7894 51.3787C11.9455 51.3787 8.95703 47.7417 8.95703 47.7417L10.5218 42.5719C10.5218 42.5719 13.5937 45.2092 16.1858 45.2092C17.8796 45.2092 18.5685 43.8756 18.5685 42.9012C18.5685 38.8706 11.9603 38.6908 11.9603 32.0675C11.9603 26.4931 15.9614 21.0986 24.038 21.0986C27.15 21.0986 28.6874 21.99 28.6874 21.99Z" fill="white"/>
</g>
<defs>
<clipPath id="clip0_217_119">
<rect width="52.6027" height="60" fill="white" transform="translate(0.897461 0.5)"/>
</clipPath>
</defs>
</svg>
