<svg width="60" height="61" viewBox="0 0 60 61" fill="none" xmlns="http://www.w3.org/2000/svg">
<g clip-path="url(#clip0_218_11)">
<path d="M31.6126 34.658H39.1801C41.3326 34.658 42.6951 33.473 42.6951 31.5705C42.6951 29.778 41.3326 28.4855 39.1801 28.4855H31.6126C31.3626 28.4855 31.1451 28.7005 31.1451 28.9155V34.228C31.1826 34.478 31.3601 34.658 31.6126 34.658ZM31.6126 46.898H39.4326C41.8351 46.898 43.2701 45.678 43.2701 43.523C43.2701 41.658 41.9076 40.148 39.4326 40.148H31.6126C31.3626 40.148 31.1451 40.3655 31.1451 40.5805V46.4305C31.1826 46.718 31.3601 46.898 31.6126 46.898ZM59.3001 0.632995L36.9176 22.958H40.5776C46.2801 22.958 49.6526 26.5455 49.6526 30.458C49.6526 33.5455 47.5726 35.808 45.3476 36.8105C44.9901 36.9555 44.9901 37.458 45.3826 37.6005C47.9651 38.6055 49.7951 41.3005 49.7951 44.4555C49.7951 48.9055 46.8201 52.4605 41.0451 52.4605H25.1901C24.9401 52.4605 24.7226 52.2455 24.7226 52.0305V35.1255L0.155118 59.6005C-0.169882 59.9255 0.0476181 60.498 0.512618 60.498H59.5901C59.6945 60.4967 59.7942 60.4547 59.868 60.3809C59.9418 60.3071 59.9838 60.2074 59.9851 60.103V0.955495C60.0926 0.560495 59.5901 0.345495 59.3026 0.630495L59.3001 0.632995Z" fill="black"/>
</g>
<defs>
<clipPath id="clip0_218_11">
<rect width="60" height="60" fill="white" transform="translate(0 0.5)"/>
</clipPath>
</defs>
</svg>
