<svg width="100" height="29" viewBox="0 0 100 29" fill="none" xmlns="http://www.w3.org/2000/svg">
<path d="M11.3 0.901639C11.5 0.901639 11.6 1.00164 11.8 1.10164C10.6 1.60164 9.4 2.90164 8.8 5.70164L6.6 6.30164C7.3 4.30164 8.7 0.901639 11.3 0.901639ZM12.4 1.90164C12.6 2.50164 12.8 3.20164 12.8 4.30164C12.8 4.40164 12.8 4.40164 12.8 4.50164L9.9 5.30164C10.5 3.20164 11.5 2.30164 12.4 1.90164ZM15 3.70164L13.7 4.10164C13.7 4.00164 13.7 3.90164 13.7 3.80164C13.7 2.90164 13.6 2.20164 13.4 1.60164C14.1 1.80164 14.7 2.70164 15 3.70164ZM21.5 5.30164C21.5 5.20164 21.4 5.10164 21.3 5.10164C21.1 5.10164 19 4.90164 19 4.90164C19 4.90164 17.5 3.40164 17.3 3.30164C17.1 3.10164 16.8 3.20164 16.7 3.20164C16.7 3.20164 16.4 3.30164 15.9 3.50164C15.4 2.10164 14.5 0.801639 13 0.801639H12.9C12.5 0.201639 11.9 0.00163927 11.4 0.00163927C7.8 -0.0983607 6.1 4.40164 5.5 6.70164C4.7 6.90164 3.9 7.20164 3 7.50164C2.2 7.70164 2.2 7.80164 2.1 8.50164C2 9.00164 0 24.8016 0 24.8016L15.9 27.8016L24.5 25.9016C24.5 25.9016 21.5 5.50164 21.5 5.30164Z" fill="#8DB849"/>
<path d="M21.2004 5.10164C21.1004 5.10164 19.0004 4.90164 19.0004 4.90164C19.0004 4.90164 17.5004 3.40164 17.3004 3.30164C17.2004 3.20164 17.2004 3.20164 17.1004 3.20164L15.9004 27.8016L24.5004 25.9016C24.5004 25.9016 21.5004 5.50164 21.5004 5.30164C21.5004 5.20164 21.3004 5.10164 21.2004 5.10164Z" fill="#5A863E"/>
<path d="M13.0002 9.90164L11.9002 13.1016C11.9002 13.1016 11.0002 12.6016 9.8002 12.6016C8.1002 12.6016 8.0002 13.6016 8.0002 13.9016C8.0002 15.3016 11.8002 15.9016 11.8002 19.3016C11.8002 22.0016 10.1002 23.7016 7.8002 23.7016C5.1002 23.7016 3.7002 22.0016 3.7002 22.0016L4.4002 19.6016C4.4002 19.6016 5.8002 20.8016 7.0002 20.8016C7.8002 20.8016 8.1002 20.2016 8.1002 19.7016C8.1002 17.8016 5.0002 17.7016 5.0002 14.6016C5.0002 12.0016 6.9002 9.50164 10.6002 9.50164C12.3002 9.40164 13.0002 9.90164 13.0002 9.90164Z" fill="#FFFFFE"/>
<path d="M34.6 15.8016C33.7 15.3016 33.3 14.9016 33.3 14.4016C33.3 13.7016 33.9 13.3016 34.9 13.3016C36 13.3016 37 13.8016 37 13.8016L37.8 11.4016C37.8 11.4016 37.1 10.8016 35 10.8016C32 10.8016 30 12.5016 30 14.9016C30 16.3016 31 17.3016 32.2 18.0016C33.2 18.6016 33.6 19.0016 33.6 19.6016C33.6 20.2016 33.1 20.8016 32.1 20.8016C30.7 20.8016 29.3 20.1016 29.3 20.1016L28.5 22.5016C28.5 22.5016 29.7 23.3016 31.8 23.3016C34.8 23.3016 37 21.8016 37 19.1016C37 17.6016 35.9 16.5016 34.6 15.8016ZM46.7 10.7016C45.2 10.7016 44 11.4016 43.1 12.5016L44.4 5.70164H41L37.7 23.0016H41.1L42.2 17.1016C42.6 14.9016 43.8 13.5016 44.9 13.5016C45.7 13.5016 46 14.0016 46 14.8016C46 15.3016 46 15.8016 45.9 16.3016L44.6 23.1016H48L49.3 16.1016C49.4 15.4016 49.5 14.5016 49.5 13.9016C49.5 11.9016 48.5 10.7016 46.7 10.7016ZM55.4 20.6016C54.2 20.6016 53.8 19.6016 53.8 18.4016C53.8 16.5016 54.8 13.3016 56.6 13.3016C57.8 13.3016 58.2 14.3016 58.2 15.3016C58.2 17.5016 57.2 20.6016 55.4 20.6016ZM57.1 10.7016C53 10.7016 50.3 14.4016 50.3 18.5016C50.3 21.1016 51.9 23.2016 55 23.2016C59 23.2016 61.7 19.6016 61.7 15.4016C61.7 13.0016 60.3 10.7016 57.1 10.7016ZM67.1 20.7016C66.2 20.7016 65.7 20.2016 65.7 20.2016L66.3 17.0016C66.7 14.9016 67.8 13.5016 69 13.5016C70 13.5016 70.4 14.5016 70.4 15.4016C70.3 17.6016 69 20.7016 67.1 20.7016ZM70.4 10.7016C68.1 10.7016 66.8 12.7016 66.8 12.7016L67 10.9016H64C63.9 12.1016 63.6 14.0016 63.3 15.4016L60.9 27.8016H64.3L65.2 22.8016H65.3C65.3 22.8016 66 23.2016 67.3 23.2016C71.3 23.2016 73.9 19.1016 73.9 15.0016C73.9 12.8016 72.9 10.7016 70.4 10.7016ZM78.7 5.90164C77.6 5.90164 76.8 6.80164 76.8 7.90164C76.8 8.90164 77.4 9.60164 78.4 9.60164C79.5 9.60164 80.4 8.90164 80.4 7.60164C80.4 6.60164 79.7 5.90164 78.7 5.90164ZM74 23.0016H77.4L79.7 11.0016H76.3L74 23.0016ZM88.3 11.0016H85.9L86 10.4016C86.2 9.20164 86.9 8.20164 88 8.20164C88.6 8.20164 89.1 8.40164 89.1 8.40164L89.8 5.70164C89.8 5.70164 89.2 5.40164 88 5.40164C86.8 5.40164 85.6 5.70164 84.7 6.50164C83.5 7.50164 83 8.90164 82.7 10.3016L82.6 10.9016H81L80.5 13.5016H82.1L80.3 23.0016H83.7L85.5 13.5016H87.8L88.3 11.0016ZM96.4 11.0016C96.4 11.0016 94.3 16.3016 93.3 19.2016C93.2 18.3016 92.5 11.0016 92.5 11.0016H88.9L90.9 22.0016C90.9 22.2016 90.9 22.4016 90.8 22.6016C90.4 23.4016 89.7 24.1016 89 24.6016C88.4 25.1016 87.6 25.4016 87.1 25.6016L88 28.5016C88.7 28.4016 90.1 27.8016 91.3 26.7016C92.8 25.3016 94.3 23.0016 95.7 20.0016L99.8 11.1016L96.4 11.0016Z" fill="#1A1919"/>
</svg>
