<svg width="112" height="26" viewBox="0 0 112 26" fill="none" xmlns="http://www.w3.org/2000/svg">
<path fill-rule="evenodd" clip-rule="evenodd" d="M32.8579 15.387C32.4209 14.794 31.6778 14.31 30.7778 14.31C29.1118 14.31 27.9098 15.582 27.9098 17.304C27.9098 19.026 29.1118 20.298 30.7778 20.298C31.5558 20.298 32.2839 19.966 32.6649 19.635C32.6909 19.613 32.7049 19.581 32.7049 19.547V18.613C32.7049 18.555 32.6579 18.507 32.5989 18.507H30.4559C30.3709 18.507 30.3018 18.437 30.3018 18.353V16.966C30.3018 16.881 30.3719 16.811 30.4559 16.811H34.2979V14.753L33.0578 15.433C32.9918 15.469 32.9039 15.447 32.8599 15.387H32.8579ZM14.8208 16.361H17.1208C17.7758 16.361 18.1859 15.991 18.1859 15.404C18.1859 14.844 17.7858 14.447 17.1208 14.447H14.8208C14.8021 14.4467 14.7835 14.4502 14.7662 14.4573C14.7488 14.4643 14.7331 14.4747 14.7198 14.488C14.7066 14.5012 14.6962 14.517 14.6891 14.5343C14.6821 14.5517 14.6786 14.5703 14.6789 14.589V16.219C14.6786 16.2377 14.6821 16.2563 14.6891 16.2737C14.6962 16.291 14.7066 16.3068 14.7198 16.32C14.7331 16.3332 14.7488 16.3437 14.7662 16.3507C14.7835 16.3578 14.8021 16.3613 14.8208 16.361ZM24.1258 21.731C24.1258 21.801 24.0688 21.858 23.9988 21.858H22.3138C22.2438 21.858 22.1868 21.801 22.1868 21.731V12.866C22.1868 12.796 22.2438 12.739 22.3138 12.739H23.9998C24.0698 12.739 24.1269 12.796 24.1269 12.866L24.1258 21.731ZM33.8129 0.504995L17.0998 12.737H17.5299C19.2638 12.737 20.1518 13.844 20.1518 15.061C20.1518 16.008 19.6579 16.707 18.9949 17.016C18.8949 17.068 18.8888 17.224 19.0008 17.27C19.7738 17.587 20.3308 18.415 20.3308 19.382C20.3308 20.762 19.4308 21.857 17.6808 21.857H12.8799C12.8611 21.8573 12.8425 21.8538 12.8252 21.8467C12.8078 21.8397 12.7921 21.8292 12.7788 21.816C12.7656 21.8028 12.7552 21.787 12.7481 21.7697C12.7411 21.7523 12.7376 21.7337 12.7379 21.715V15.93L0.34285 25.005C0.10585 25.179 0.22785 25.555 0.52285 25.555H33.9929C34.1609 25.555 34.2969 25.419 34.2969 25.25V20.65C33.4009 21.486 32.2238 22.01 30.7768 22.01C28.1008 22.01 25.9168 20.164 25.9168 17.293C25.9168 14.408 28.1018 12.576 30.7768 12.576C32.4598 12.576 33.5769 13.339 34.2969 14.272V0.749995C34.2969 0.499995 34.0139 0.356995 33.8129 0.503995V0.504995ZM14.8198 20.147H17.1898C17.9138 20.147 18.3498 19.764 18.3498 19.107C18.3498 18.533 17.9498 18.067 17.1898 18.067H14.8198C14.8011 18.0667 14.7825 18.0702 14.7652 18.0773C14.7478 18.0843 14.7321 18.0947 14.7188 18.108C14.7056 18.1212 14.6952 18.137 14.6881 18.1543C14.6811 18.1717 14.6776 18.1903 14.6778 18.209V20.003C14.6776 20.0217 14.6811 20.0403 14.6881 20.0577C14.6952 20.075 14.7056 20.0908 14.7188 20.104C14.7321 20.1172 14.7478 20.1277 14.7652 20.1347C14.7825 20.1418 14.8011 20.1453 14.8198 20.145V20.147ZM43.9999 19.87L42.9549 19.328C42.9216 19.3117 42.8834 19.3083 42.8478 19.3185C42.8122 19.3286 42.7815 19.3516 42.7619 19.383C42.3199 20.076 41.5049 20.591 40.6199 20.591C38.8799 20.591 37.5899 19.196 37.5899 17.296C37.5899 15.368 38.8899 14.001 40.6199 14.001C41.5049 14.001 42.3199 14.503 42.7619 15.206C42.7818 15.2377 42.8128 15.2608 42.8489 15.2708C42.885 15.2808 42.9235 15.277 42.9569 15.26L43.9939 14.695C44.0739 14.652 44.1008 14.555 44.0518 14.477C43.3958 13.444 42.3099 12.579 40.6199 12.579C38.0249 12.579 36.0199 14.479 36.0199 17.296C36.0199 20.099 38.0349 22.013 40.6199 22.013C42.3079 22.013 43.3819 21.126 44.0599 20.093C44.1099 20.013 44.0829 19.915 43.9999 19.873V19.87ZM49.4449 20.59C47.6649 20.59 46.5308 19.168 46.5308 17.295C46.5398 15.4 47.6749 14 49.4549 14C51.2219 14 52.3689 15.4 52.3689 17.295C52.3689 19.168 51.2219 20.59 49.4549 20.59H49.4449ZM48.1999 12.74C46.2419 13.264 44.9499 15.04 44.9499 17.298C44.9499 20.018 46.8099 22.015 49.4459 22.015C51.6919 22.015 53.3858 20.553 53.8288 18.415C54.5488 14.95 51.5109 11.845 48.2009 12.73L48.1999 12.74ZM64.8798 12.73H62.8798C62.8364 12.7294 62.7939 12.7422 62.7581 12.7667C62.7223 12.7913 62.6949 12.8263 62.6799 12.867L60.2619 19.125L57.8319 12.867C57.7989 12.785 57.7199 12.73 57.6319 12.73H55.6319C55.5719 12.73 55.5249 12.778 55.5249 12.837V21.742C55.5249 21.802 55.5729 21.849 55.6319 21.849H57.0159C57.0759 21.849 57.1229 21.801 57.1229 21.742V14.808L59.9029 21.801C59.9149 21.831 59.9429 21.849 59.9729 21.849H60.5508C60.5808 21.849 60.6108 21.829 60.6208 21.801L63.3879 14.808V21.742C63.3879 21.802 63.4359 21.849 63.4949 21.849H64.8998C64.9598 21.849 65.0069 21.801 65.0069 21.742V12.837C65.0069 12.777 64.9588 12.73 64.8998 12.73H64.8798ZM85.3129 12.73H79.3998C79.2998 12.73 79.2348 12.804 79.2348 12.895V21.695C79.2348 21.795 79.3088 21.86 79.3998 21.86H85.3118C85.4118 21.86 85.4768 21.786 85.4768 21.695V20.617C85.4768 20.517 85.4028 20.452 85.3118 20.452H80.9998C80.8998 20.452 80.8348 20.378 80.8348 20.287V18.073C80.8348 17.973 80.9088 17.908 80.9998 17.908H85.2178C85.3178 17.908 85.3829 17.834 85.3829 17.743V16.665C85.3829 16.565 85.3088 16.5 85.2178 16.5H80.9998C80.8998 16.5 80.8348 16.426 80.8348 16.335V14.313C80.8348 14.213 80.9088 14.148 80.9998 14.148H85.3139C85.4139 14.148 85.4788 14.074 85.4788 13.983V12.905C85.4788 12.805 85.4049 12.74 85.3139 12.74L85.3129 12.73ZM91.5448 17.037H89.5198C89.4198 17.037 89.3568 16.963 89.3568 16.874V14.3C89.3568 14.2 89.4298 14.137 89.5198 14.137H91.5548C92.4548 14.137 93.1118 14.697 93.1118 15.573C93.1118 16.473 92.4558 17.036 91.5548 17.036L91.5448 17.037ZM92.7999 18.22C93.8199 17.963 94.7398 17.09 94.7398 15.587C94.7398 13.892 93.5518 12.73 91.7398 12.73H87.9099C87.8099 12.73 87.7468 12.803 87.7468 12.893V21.686C87.7468 21.786 87.8199 21.85 87.9099 21.85H89.1798C89.2798 21.85 89.3428 21.776 89.3428 21.686V18.608C89.3428 18.508 89.4158 18.445 89.5058 18.445H90.8458C90.9038 18.445 90.9458 18.475 90.9858 18.525L92.8998 21.77C92.9298 21.82 92.9828 21.85 93.0398 21.85H94.5098C94.6378 21.85 94.7168 21.71 94.6498 21.6L92.6898 18.464C92.6298 18.368 92.6858 18.247 92.7958 18.219L92.7999 18.22ZM107.3 14.138H111.622C111.643 14.138 111.664 14.1338 111.683 14.1257C111.703 14.1176 111.72 14.1057 111.735 14.0908C111.75 14.0758 111.762 14.0581 111.77 14.0385C111.778 14.019 111.782 13.9981 111.782 13.977V12.9C111.782 12.8 111.71 12.74 111.622 12.74H105.702C105.659 12.74 105.619 12.7569 105.589 12.7869C105.559 12.8169 105.542 12.8576 105.542 12.9V21.698C105.542 21.798 105.614 21.858 105.702 21.858H111.622C111.643 21.858 111.664 21.8538 111.683 21.8457C111.703 21.8376 111.72 21.8257 111.735 21.8108C111.75 21.7958 111.762 21.7781 111.77 21.7585C111.778 21.739 111.782 21.7181 111.782 21.697V20.61C111.782 20.5889 111.778 20.568 111.77 20.5485C111.762 20.5289 111.75 20.5112 111.735 20.4962C111.72 20.4812 111.703 20.4694 111.683 20.4613C111.664 20.4532 111.643 20.449 111.622 20.449H107.312C107.269 20.449 107.229 20.4321 107.199 20.4021C107.169 20.3721 107.152 20.3314 107.152 20.289V18.067C107.152 17.967 107.224 17.907 107.312 17.907H111.538C111.559 17.9071 111.58 17.9031 111.6 17.895C111.619 17.887 111.637 17.8751 111.652 17.8601C111.667 17.8452 111.679 17.8274 111.687 17.8078C111.695 17.7882 111.699 17.7672 111.699 17.746V16.65C111.699 16.55 111.627 16.49 111.539 16.49H107.3C107.279 16.4901 107.258 16.4861 107.238 16.478C107.218 16.47 107.201 16.4581 107.186 16.4431C107.171 16.4282 107.159 16.4104 107.151 16.3908C107.143 16.3712 107.139 16.3502 107.139 16.329V14.3C107.139 14.2788 107.143 14.2578 107.151 14.2382C107.159 14.2186 107.171 14.2008 107.186 14.1859C107.201 14.1709 107.218 14.159 107.238 14.151C107.258 14.1429 107.279 14.1379 107.3 14.138ZM103.9 19.833L102.855 19.291C102.788 19.256 102.703 19.281 102.662 19.346C102.22 20.039 101.405 20.554 100.52 20.554C98.7798 20.554 97.4898 19.159 97.4898 17.259C97.4898 15.331 98.7898 13.964 100.52 13.964C101.405 13.964 102.22 14.466 102.662 15.169C102.702 15.235 102.789 15.269 102.857 15.223L103.894 14.658C103.974 14.615 104.001 14.516 103.952 14.44C103.296 13.407 102.21 12.542 100.52 12.542C97.9248 12.542 95.9198 14.442 95.9198 17.259C95.9198 20.062 97.9348 21.976 100.52 21.976C102.208 21.976 103.282 21.089 103.96 20.056C103.972 20.0381 103.98 20.0177 103.984 19.9964C103.987 19.975 103.986 19.9531 103.981 19.9322C103.975 19.9113 103.965 19.8918 103.951 19.8752C103.937 19.8586 103.919 19.8452 103.9 19.836V19.833ZM76.6868 12.73H74.6868C74.6434 12.7294 74.6009 12.7422 74.5651 12.7667C74.5293 12.7913 74.5019 12.8263 74.4868 12.867L72.0688 19.125L69.6388 12.867C69.6058 12.785 69.5269 12.73 69.4389 12.73H67.4389C67.3789 12.73 67.3318 12.778 67.3318 12.837V21.742C67.3318 21.802 67.3799 21.849 67.4389 21.849H68.8228C68.8828 21.849 68.9298 21.801 68.9298 21.742V14.808L71.6998 21.8C71.7118 21.83 71.7398 21.848 71.7698 21.848H72.3478C72.3778 21.848 72.4078 21.828 72.4178 21.8L75.1848 14.807V21.741C75.1848 21.801 75.2328 21.848 75.2918 21.848H76.6749C76.7349 21.848 76.7818 21.8 76.7818 21.741V12.836C76.7818 12.776 76.7339 12.729 76.6749 12.729L76.6868 12.73Z" fill="#34313F"/>
</svg>
