<svg width="80" height="80" viewBox="0 0 80 80" fill="none" xmlns="http://www.w3.org/2000/svg">
<path d="M68.6533 33.3463C69.4767 30.8758 69.7613 28.2569 69.4877 25.667C69.2141 23.0772 68.3887 20.5762 67.0667 18.3329C65.1066 14.9163 62.1097 12.2128 58.5078 10.6105C54.9059 9.00817 50.8843 8.59124 47.0289 9.42126C45.2922 7.46554 43.157 5.90433 40.7666 4.84217C38.3762 3.78001 35.7858 3.24159 33.1697 3.2629C29.2247 3.25366 25.3792 4.49605 22.1838 6.81195C18.9885 9.12784 16.6079 12.398 15.3878 16.1518C12.8354 16.6742 10.4254 17.7375 8.31836 19.2705C6.21133 20.8035 4.45528 22.7708 3.16972 25.0399C1.19014 28.4486 0.342632 32.3915 0.747105 36.3072C1.15158 40.2229 2.78836 43.9091 5.42334 46.8463C4.59996 49.3168 4.31536 51.9357 4.58895 54.5256C4.86254 57.1154 5.68799 59.6164 7.00997 61.8597C8.97003 65.2763 11.967 67.9798 15.5689 69.5821C19.1708 71.1845 23.1924 71.6014 27.0478 70.7714C28.7844 72.7271 30.9197 74.2883 33.3101 75.3505C35.7005 76.4126 38.2908 76.951 40.907 76.9297C44.8538 76.9398 48.7012 75.6969 51.8978 73.3801C55.0944 71.0633 57.4756 67.7912 58.6955 64.0353C61.2479 63.5129 63.6579 62.4496 65.7649 60.9166C67.8719 59.3836 69.628 57.4163 70.9136 55.1472C72.8908 51.7387 73.7367 47.7969 73.3322 43.8826C72.9277 39.9684 71.292 36.2833 68.6589 33.3463H68.6533ZM40.9126 72.0743C37.6708 72.0788 34.5306 70.9438 32.0398 68.8674C32.1525 68.806 32.3491 68.6981 32.4767 68.6196L45.0008 61.3877C45.3142 61.2096 45.5743 60.9512 45.7547 60.6392C45.9352 60.3271 46.0294 59.9727 46.0277 59.6122V41.955L51.3216 45.0124C51.3492 45.0264 51.3729 45.0469 51.3905 45.072C51.4081 45.0972 51.4191 45.1262 51.4225 45.1565V59.7787C51.4181 63.0405 50.1196 66.1672 47.8124 68.4738C45.5051 70.7804 42.3779 72.0779 39.1162 72.0813L40.9126 72.0743ZM12.0729 59.4322C10.4488 56.6275 9.86384 53.3372 10.4204 50.1426C10.5295 50.2078 10.7204 50.3241 10.8568 50.4025L23.3809 57.6344C23.6921 57.8159 24.0457 57.9114 24.4057 57.9114C24.7657 57.9114 25.1193 57.8159 25.4305 57.6344L40.7152 48.8056V54.9204C40.7166 54.9509 40.7106 54.9813 40.6977 55.009C40.6849 55.0367 40.6656 55.0608 40.6415 55.0794L27.9783 62.3884C25.1488 64.0185 21.7887 64.4607 18.6335 63.6178C15.4784 62.7749 12.7886 60.7152 11.1582 57.8861L12.0729 59.4322ZM5.20473 26.9882C6.82339 24.1813 9.37682 22.0331 12.4179 20.9152C12.4179 21.0419 12.4109 21.2664 12.4109 21.4234V35.8878C12.4092 36.2479 12.5033 36.6019 12.6835 36.9137C12.8637 37.2256 13.1235 37.4839 13.4366 37.6622L28.7213 46.4896L23.4274 49.547C23.4012 49.5635 23.3713 49.5731 23.3404 49.5751C23.3096 49.577 23.2787 49.5712 23.2505 49.5582L10.5882 42.2422C7.76219 40.6082 5.70428 37.9171 4.86341 34.7622C4.02255 31.6073 4.4658 28.2483 6.09573 25.4192L5.20473 26.9882ZM54.5174 38.3098L39.2327 29.4824L44.5266 26.4264C44.5528 26.4099 44.5827 26.4003 44.6136 26.3983C44.6444 26.3963 44.6753 26.4021 44.7035 26.4151L57.3658 33.7269C59.3946 34.8979 61.0496 36.6193 62.1398 38.6924C63.23 40.7654 63.7115 43.1051 63.5283 45.4395C63.345 47.7739 62.5045 50.0095 61.1041 51.8868C59.7037 53.764 57.8004 55.2061 55.6149 56.0508C55.6149 55.9228 55.6149 55.6983 55.6149 55.5413V41.0769C55.6178 40.7173 55.5251 40.3634 55.3463 40.0514C55.1675 39.7395 54.9089 39.4806 54.5969 39.3018L54.5174 38.3098ZM59.7861 30.4178C59.677 30.3512 59.4861 30.2362 59.3497 30.1578L46.8256 22.9259C46.5144 22.7444 46.1608 22.6489 45.8008 22.6489C45.4408 22.6489 45.0872 22.7444 44.776 22.9259L29.4913 31.7547V25.6399C29.4899 25.6094 29.4959 25.579 29.5088 25.5513C29.5216 25.5236 29.5409 25.4995 29.565 25.4809L42.2282 18.1789C44.2575 17.0095 46.5783 16.4423 48.9189 16.5436C51.2595 16.6449 53.5226 17.4105 55.4424 18.7508C57.3622 20.0911 58.8595 21.9504 59.7595 24.1108C60.6595 26.2712 60.9252 28.6437 60.5256 30.9498L59.7861 30.4178ZM26.6121 41.2419L21.3168 38.1845C21.2892 38.1705 21.2655 38.15 21.2479 38.1248C21.2303 38.0997 21.2193 38.0707 21.2159 38.0404V23.4182C21.2178 21.0676 21.8888 18.766 23.1505 16.7831C24.4123 14.8002 26.2125 13.2174 28.3411 12.2198C30.4697 11.2221 32.8385 10.8508 35.1709 11.1494C37.5034 11.448 39.7035 12.4041 41.5113 13.9056C41.3986 13.967 41.2034 14.0749 41.0744 14.1534L28.5503 21.3853C28.2369 21.5634 27.9768 21.8218 27.7964 22.1338C27.6159 22.4459 27.5217 22.8003 27.5234 23.1608L27.5164 40.8054L26.6121 41.2419ZM29.4871 35.0379L36.3019 31.0998L43.1167 35.0351V42.9098L36.3019 46.8451L29.4871 42.9098V35.0379Z" fill="#000000"/>
</svg>
