<svg width="111" height="28" viewBox="0 0 111 28" fill="none" xmlns="http://www.w3.org/2000/svg">
<g clip-path="url(#clip0)">
<path d="M31.4268 22H27.5209V7.32008H36.1963V10.5031H31.4268V13.3045H35.8248V16.4875H31.4268V22ZM42.105 22.2008C40.2106 22.2008 38.7379 21.6988 37.687 20.6947C36.6427 19.6839 36.1206 18.248 36.1206 16.3871C36.1206 14.4659 36.6059 12.9932 37.5765 11.9691C38.5471 10.9382 39.9328 10.4227 41.7335 10.4227C43.4471 10.4227 44.7692 10.8712 45.6997 11.7682C46.6368 12.6585 47.1054 13.9438 47.1054 15.624V17.3711H40.0868C40.1135 18.007 40.3445 18.5057 40.7796 18.8672C41.2214 19.2287 41.8205 19.4094 42.5769 19.4094C43.2664 19.4094 43.899 19.3458 44.4747 19.2186C45.057 19.0848 45.6863 18.8605 46.3624 18.5459V21.3674C45.7465 21.682 45.1106 21.8996 44.4546 22.0201C43.7986 22.1406 43.0154 22.2008 42.105 22.2008ZM41.874 13.0936C41.4122 13.0936 41.0239 13.2409 40.7093 13.5355C40.4014 13.8233 40.2206 14.2785 40.1671 14.901H43.5409C43.5275 14.3521 43.3702 13.9137 43.0689 13.5857C42.7744 13.2577 42.3761 13.0936 41.874 13.0936ZM53.0543 22.2008C51.1599 22.2008 49.6872 21.6988 48.6362 20.6947C47.592 19.6839 47.0698 18.248 47.0698 16.3871C47.0698 14.4659 47.5551 12.9932 48.5258 11.9691C49.4964 10.9382 50.8821 10.4227 52.6827 10.4227C54.3964 10.4227 55.7185 10.8712 56.6489 11.7682C57.5861 12.6585 58.0547 13.9438 58.0547 15.624V17.3711H51.036C51.0628 18.007 51.2937 18.5057 51.7288 18.8672C52.1706 19.2287 52.7698 19.4094 53.5262 19.4094C54.2157 19.4094 54.8482 19.3458 55.4239 19.2186C56.0063 19.0848 56.6355 18.8605 57.3116 18.5459V21.3674C56.6958 21.682 56.0599 21.8996 55.4038 22.0201C54.7478 22.1406 53.9646 22.2008 53.0543 22.2008ZM52.8233 13.0936C52.3614 13.0936 51.9732 13.2409 51.6586 13.5355C51.3506 13.8233 51.1699 14.2785 51.1163 14.901H54.4901C54.4767 14.3521 54.3194 13.9137 54.0182 13.5857C53.7237 13.2577 53.3254 13.0936 52.8233 13.0936ZM62.0455 22.2008C61.2356 22.2008 60.526 21.9699 59.9168 21.508C59.3144 21.0461 58.8458 20.3667 58.5111 19.4697C58.1831 18.5727 58.0191 17.5251 58.0191 16.3268C58.0191 14.4793 58.3906 13.0334 59.1336 11.9891C59.8767 10.9449 60.8975 10.4227 62.1961 10.4227C62.8321 10.4227 63.3877 10.5499 63.8629 10.8043C64.3449 11.0587 64.7834 11.4871 65.1783 12.0895H65.2586C65.1315 11.1992 65.0679 10.3089 65.0679 9.41865V6.37623H69.024V22H66.0619L65.2185 20.5641H65.0679C64.3918 21.6553 63.3843 22.2008 62.0455 22.2008ZM63.6521 19.0982C64.2813 19.0982 64.7231 18.9007 64.9775 18.5057C65.2386 18.1108 65.3791 17.5016 65.3992 16.6783V16.367C65.3992 15.3629 65.2553 14.65 64.9675 14.2283C64.6796 13.7999 64.2278 13.5857 63.6119 13.5857C63.0965 13.5857 62.6948 13.83 62.407 14.3186C62.1259 14.8006 61.9853 15.4901 61.9853 16.3871C61.9853 17.2707 62.1292 17.9434 62.417 18.4053C62.7049 18.8672 63.1166 19.0982 63.6521 19.0982ZM76.1075 13.4049H82.4434V21.3172C80.723 21.9063 78.8319 22.2008 76.7702 22.2008C74.5076 22.2008 72.7572 21.5448 71.5188 20.2328C70.2871 18.9208 69.6712 17.0498 69.6712 14.6199C69.6712 12.2502 70.3473 10.406 71.6995 9.0873C73.0517 7.76858 74.9461 7.10922 77.3827 7.10922C78.3065 7.10922 79.1767 7.19624 79.9934 7.37029C80.8167 7.54433 81.533 7.76523 82.1421 8.03299L80.887 11.1457C79.8294 10.6236 78.6679 10.3625 77.4028 10.3625C76.2447 10.3625 75.3477 10.7407 74.7118 11.4971C74.0826 12.2469 73.7679 13.3212 73.7679 14.7203C73.7679 16.0926 74.0524 17.1402 74.6214 17.8631C75.1971 18.5794 76.0238 18.9375 77.1016 18.9375C77.6906 18.9375 78.2328 18.8806 78.7282 18.7668V16.4674H76.1075V13.4049ZM88.9344 22.2008C87.04 22.2008 85.5673 21.6988 84.5164 20.6947C83.4721 19.6839 82.95 18.248 82.95 16.3871C82.95 14.4659 83.4353 12.9932 84.4059 11.9691C85.3766 10.9382 86.7622 10.4227 88.5629 10.4227C90.2766 10.4227 91.5986 10.8712 92.5291 11.7682C93.4662 12.6585 93.9348 13.9438 93.9348 15.624V17.3711H86.9162C86.943 18.007 87.1739 18.5057 87.609 18.8672C88.0508 19.2287 88.6499 19.4094 89.4063 19.4094C90.0958 19.4094 90.7284 19.3458 91.3041 19.2186C91.8865 19.0848 92.5157 18.8605 93.1918 18.5459V21.3674C92.5759 21.682 91.94 21.8996 91.284 22.0201C90.628 22.1406 89.8448 22.2008 88.9344 22.2008ZM88.7035 13.0936C88.2416 13.0936 87.8533 13.2409 87.5387 13.5355C87.2308 13.8233 87.0501 14.2785 86.9965 14.901H90.3703C90.3569 14.3521 90.1996 13.9137 89.8984 13.5857C89.6038 13.2577 89.2055 13.0936 88.7035 13.0936ZM101.571 22V15.7947C101.571 15.0383 101.46 14.4693 101.239 14.0877C101.025 13.6995 100.677 13.5053 100.195 13.5053C99.5322 13.5053 99.0536 13.7697 98.7591 14.2986C98.4646 14.8274 98.3173 15.7344 98.3173 17.0197V22H94.3913V10.6236H97.3534L97.8454 12.0293H98.0763C98.411 11.4938 98.8729 11.0921 99.462 10.8244C100.058 10.5566 100.741 10.4227 101.51 10.4227C102.769 10.4227 103.746 10.7876 104.442 11.5172C105.145 12.2469 105.497 13.2744 105.497 14.5998V22H101.571ZM110.351 22H106.425V10.6236H110.351V22ZM106.325 7.79201C106.325 7.20294 106.489 6.76448 106.817 6.47664C107.145 6.1888 107.673 6.04488 108.403 6.04488C109.133 6.04488 109.665 6.19214 110 6.48668C110.334 6.78122 110.502 7.21633 110.502 7.79201C110.502 8.94337 109.802 9.51906 108.403 9.51906C107.017 9.51906 106.325 8.94337 106.325 7.79201Z" fill="#2537D7"/>
<path d="M15.8982 21.7759C16.9542 21.6402 17.7003 20.674 17.5646 19.618C16.5619 11.8158 10.3837 5.63975 2.58095 4.63988C1.52485 4.50455 0.559008 5.25098 0.423676 6.30708C0.288345 7.36318 1.03477 8.32902 2.09087 8.46435C8.1533 9.24121 12.9612 14.0475 13.7403 20.1095C13.876 21.1655 14.8422 21.9116 15.8982 21.7759Z" fill="#2537D7"/>
<path d="M9.557 21.7999C10.5971 21.5722 11.2557 20.5445 11.028 19.5044C10.116 15.3379 6.83314 12.0662 2.66287 11.169C1.62195 10.9451 0.596583 11.6073 0.372643 12.6483C0.148703 13.6892 0.810992 14.7145 1.85191 14.9385C4.50285 15.5088 6.60591 17.5723 7.23276 20.2031L7.26149 20.3288C7.48916 21.3689 8.51689 22.0275 9.557 21.7999Z" fill="#FC871F"/>
<path d="M2.28398 21.8492C3.34872 21.8492 4.21185 20.986 4.21185 19.9213C4.21185 18.8566 3.34872 17.9934 2.28398 17.9934C1.21925 17.9934 0.356116 18.8566 0.356116 19.9213V21.8492H2.28398Z" fill="#FC871F"/>
</g>
<defs>
<clipPath id="clip0">
<rect width="110.393" height="28" fill="white"/>
</clipPath>
</defs>
</svg>
