<svg width="16" height="16" viewBox="0 0 16 16" fill="none" xmlns="http://www.w3.org/2000/svg">
<path fill-rule="evenodd" clip-rule="evenodd" d="M8.40878 2.7383C8.03331 3.09197 7.99184 3.71061 8.31616 4.12007L10.6497 7.06622H3.39835C2.9022 7.06622 2.5 7.50484 2.5 8.04589C2.5 8.58695 2.9022 9.02556 3.39835 9.02556H10.6083L8.32018 11.8749C7.99331 12.2819 8.03091 12.9009 8.40415 13.2573C8.7774 13.6138 9.34496 13.5728 9.67183 13.1657L13.1849 8.791C13.3778 8.61132 13.5 8.34417 13.5 8.04589C13.5 8.02753 13.4995 8.00927 13.4986 7.99116C13.4906 7.77644 13.4181 7.56396 13.2809 7.39073L9.67585 2.8393C9.35153 2.42984 8.78425 2.38462 8.40878 2.7383Z" fill="#2537D7"/>
</svg>
