<svg width="88" height="88" viewBox="0 0 88 88" fill="none" xmlns="http://www.w3.org/2000/svg">
<rect width="88" height="88" rx="20" fill="#F1F1FC"/>
<path d="M61.5 32C64.5376 32 67 29.5376 67 26.5C67 23.4624 64.5376 21 61.5 21C58.4624 21 56 23.4624 56 26.5C56 29.5376 58.4624 32 61.5 32Z" fill="#A7A7C9"/>
<path fill-rule="evenodd" clip-rule="evenodd" d="M38.5671 28C37.7476 34.5789 32.1359 39.67 25.335 39.67C17.9703 39.67 12 33.6997 12 26.335C12 18.9703 17.9703 13 25.335 13C32.2491 13 37.9343 18.2621 38.604 25H48.066C48.7357 18.2621 54.4209 13 61.335 13C68.6997 13 74.67 18.9703 74.67 26.335C74.67 33.1359 69.5789 38.7476 63 39.5671V49.1029C69.5789 49.9224 74.67 55.5341 74.67 62.335C74.67 69.6997 68.6997 75.67 61.335 75.67C53.9703 75.67 48 69.6997 48 62.335C48 55.4209 53.2621 49.7357 60 49.066V39.604C57.4293 39.3485 55.0733 38.3629 53.1425 36.8575L35.8575 54.1425C37.62 56.4031 38.67 59.2464 38.67 62.335C38.67 69.6997 32.6997 75.67 25.335 75.67C17.9703 75.67 12 69.6997 12 62.335C12 54.9703 17.9703 49 25.335 49C28.5303 49 31.463 50.1238 33.7596 51.9977L50.9977 34.7596C49.4545 32.8683 48.42 30.5455 48.1029 28H38.5671ZM25.335 35.67C30.4906 35.67 34.67 31.4906 34.67 26.335C34.67 21.1794 30.4906 17 25.335 17C20.1794 17 16 21.1794 16 26.335C16 31.4906 20.1794 35.67 25.335 35.67ZM70.67 26.335C70.67 31.4906 66.4906 35.67 61.335 35.67C56.1794 35.67 52 31.4906 52 26.335C52 21.1794 56.1794 17 61.335 17C66.4906 17 70.67 21.1794 70.67 26.335ZM70.67 62.335C70.67 67.4906 66.4906 71.67 61.335 71.67C56.1794 71.67 52 67.4906 52 62.335C52 57.1794 56.1794 53 61.335 53C66.4906 53 70.67 57.1794 70.67 62.335ZM25.335 71.67C30.4906 71.67 34.67 67.4906 34.67 62.335C34.67 57.1794 30.4906 53 25.335 53C20.1794 53 16 57.1794 16 62.335C16 67.4906 20.1794 71.67 25.335 71.67Z" fill="#A7A7C9"/>
</svg>
