<svg width="32" height="32" viewBox="0 0 32 32" fill="none" xmlns="http://www.w3.org/2000/svg">
<path fill-rule="evenodd" clip-rule="evenodd" d="M2.66669 16C2.66669 23.3638 8.63621 29.3333 16 29.3333C23.3638 29.3333 29.3334 23.3638 29.3334 16C29.3334 8.63615 23.3638 2.66663 16 2.66663C8.63621 2.66663 2.66669 8.63615 2.66669 16ZM19.3714 12.2129L14.4676 16.9021L12.6622 15.0536C12.1175 14.4959 11.2239 14.4854 10.6662 15.0301C10.1086 15.5747 10.098 16.4683 10.6427 17.026L13.4239 19.8736C13.9645 20.4272 14.8499 20.4423 15.4091 19.9076L21.3224 14.2532C21.8858 13.7145 21.9058 12.821 21.367 12.2576C20.8283 11.6942 19.9348 11.6742 19.3714 12.2129Z" fill="#A7A7C9"/>
</svg>
