<svg width="88" height="88" viewBox="0 0 88 88" fill="none" xmlns="http://www.w3.org/2000/svg">
<rect width="88" height="88" rx="20" fill="#F1F1FC"/>
<path d="M48.5185 11.3016C49.2374 10.463 49.1403 9.20037 48.3016 8.48152C47.463 7.76268 46.2004 7.8598 45.4815 8.69845L38.3659 17L45.4815 25.3016C46.2004 26.1403 47.463 26.2374 48.3016 25.5185C49.1403 24.7997 49.2374 23.5371 48.5185 22.6985L45.3769 19.0333C60.2013 19.7511 72 31.9977 72 47C72 62.464 59.464 75 44 75C28.536 75 16 62.464 16 47C16 38.6374 19.6635 31.133 25.4798 25.9995C26.3079 25.2685 26.3867 24.0047 25.6558 23.1765C24.9249 22.3484 23.661 22.2696 22.8328 23.0005C16.1928 28.8612 12 37.4422 12 47C12 64.6731 26.3269 79 44 79C61.6731 79 76 64.6731 76 47C76 29.7709 62.3839 15.7219 45.3254 15.0269L48.5185 11.3016Z" fill="#A7A7C9"/>
<path d="M44 57C49.5228 57 54 52.5228 54 47C54 41.4772 49.5228 37 44 37C38.4772 37 34 41.4772 34 47C34 52.5228 38.4772 57 44 57Z" fill="#A7A7C9"/>
<path fill-rule="evenodd" clip-rule="evenodd" d="M44 65C53.9411 65 62 56.9411 62 47C62 37.0589 53.9411 29 44 29C34.0589 29 26 37.0589 26 47C26 56.9411 34.0589 65 44 65ZM44 61C51.732 61 58 54.732 58 47C58 39.268 51.732 33 44 33C36.268 33 30 39.268 30 47C30 54.732 36.268 61 44 61Z" fill="#A7A7C9"/>
</svg>
