<svg width="88" height="88" viewBox="0 0 88 88" fill="none" xmlns="http://www.w3.org/2000/svg">
<rect width="88" height="88" rx="20" fill="#F1F1FC"/>
<path fill-rule="evenodd" clip-rule="evenodd" d="M48.6667 26C48.6667 33.3638 54.6362 39.3333 62 39.3333C69.3638 39.3333 75.3334 33.3638 75.3334 26C75.3334 18.6362 69.3638 12.6666 62 12.6666C54.6362 12.6666 48.6667 18.6362 48.6667 26ZM65.3714 22.2129L60.4676 26.9021L58.6622 25.0536C58.1175 24.4959 57.2239 24.4854 56.6662 25.0301C56.1086 25.5747 56.098 26.4683 56.6427 27.026L59.4239 29.8736C59.9645 30.4272 60.8499 30.4423 61.4091 29.9076L67.3224 24.2532C67.8858 23.7145 67.9058 22.821 67.367 22.2576C66.8283 21.6942 65.9348 21.6742 65.3714 22.2129Z" fill="#A7A7C9"/>
<path fill-rule="evenodd" clip-rule="evenodd" d="M12.6667 26C12.6667 33.3638 18.6362 39.3333 26 39.3333C33.3638 39.3333 39.3334 33.3638 39.3334 26C39.3334 18.6362 33.3638 12.6666 26 12.6666C18.6362 12.6666 12.6667 18.6362 12.6667 26ZM29.3714 22.2129L24.4676 26.9021L22.6622 25.0536C22.1175 24.4959 21.2239 24.4854 20.6662 25.0301C20.1086 25.5747 20.098 26.4683 20.6427 27.026L23.4239 29.8736C23.9645 30.4272 24.8499 30.4423 25.4091 29.9076L31.3224 24.2532C31.8858 23.7145 31.9058 22.821 31.367 22.2576C30.8283 21.6942 29.9348 21.6742 29.3714 22.2129Z" fill="#A7A7C9"/>
<path fill-rule="evenodd" clip-rule="evenodd" d="M62.335 71.67C67.4906 71.67 71.67 67.4906 71.67 62.335C71.67 57.1794 67.4906 53 62.335 53C57.1794 53 53 57.1794 53 62.335C53 67.4906 57.1794 71.67 62.335 71.67ZM62.335 75.67C69.6997 75.67 75.67 69.6997 75.67 62.335C75.67 54.9703 69.6997 49 62.335 49C54.9703 49 49 54.9703 49 62.335C49 69.6997 54.9703 75.67 62.335 75.67Z" fill="#A7A7C9"/>
<path fill-rule="evenodd" clip-rule="evenodd" d="M12.6667 62C12.6667 69.3638 18.6362 75.3333 26 75.3333C33.3638 75.3333 39.3334 69.3638 39.3334 62C39.3334 54.6362 33.3638 48.6666 26 48.6666C18.6362 48.6666 12.6667 54.6362 12.6667 62ZM29.3714 58.2129L24.4676 62.9021L22.6622 61.0536C22.1175 60.4959 21.2239 60.4854 20.6662 61.0301C20.1086 61.5747 20.098 62.4683 20.6427 63.026L23.4239 65.8736C23.9645 66.4272 24.8499 66.4423 25.4091 65.9076L31.3224 60.2532C31.8858 59.7145 31.9058 58.821 31.367 58.2576C30.8283 57.6942 29.9348 57.6742 29.3714 58.2129Z" fill="#A7A7C9"/>
</svg>
